<svg width="16" height="16" viewBox="0 0 16 16" fill="none" xmlns="http://www.w3.org/2000/svg">
<path d="M7.6932 0.0821815L1.30579 3.77571C1.21278 3.82957 1.13557 3.90694 1.08189 4.00006C1.02822 4.09317 0.999984 4.19875 1 4.30622V11.6943C1.00003 11.8017 1.0283 11.9073 1.08196 12.0004C1.13563 12.0935 1.21281 12.1709 1.30579 12.2248L7.6932 15.9178C7.78648 15.9716 7.89229 16 8 16C8.10771 16 8.21351 15.9716 8.30679 15.9178L14.6942 12.2248C14.7872 12.1709 14.8644 12.0935 14.918 12.0004C14.9717 11.9073 15 11.8017 15 11.6943V4.30622C15 4.19875 14.9718 4.09317 14.9181 4.00006C14.8644 3.90694 14.7872 3.82957 14.6942 3.77571L8.30679 0.0821815C8.21351 0.0283364 8.10771 0 8 0C7.89229 0 7.78648 0.0283364 7.6932 0.0821815ZM6.65211 12.3978L7.41055 9.16688C7.41599 9.14352 7.41528 9.11917 7.40849 9.09617C7.4017 9.07317 7.38907 9.05231 7.37182 9.03564L5.53355 7.24295C5.51998 7.22994 5.50918 7.21431 5.5018 7.19703C5.49442 7.17975 5.49063 7.16117 5.49063 7.14237C5.49063 7.12358 5.49442 7.10498 5.5018 7.08769C5.50918 7.07041 5.51998 7.0548 5.53355 7.0418L9.12811 3.46996C9.14946 3.44852 9.17724 3.43466 9.20721 3.43046C9.23718 3.42626 9.2677 3.43196 9.29413 3.44671C9.32056 3.46146 9.34144 3.48444 9.3536 3.51215C9.36575 3.53986 9.36852 3.57079 9.36147 3.60022L8.60203 6.83864C8.59634 6.86203 8.59687 6.88649 8.60358 6.9096C8.61028 6.93272 8.62293 6.95367 8.64025 6.97037L10.4679 8.75303C10.4811 8.76603 10.4915 8.7815 10.4986 8.79855C10.5057 8.8156 10.5094 8.83388 10.5094 8.85235C10.5094 8.87082 10.5057 8.8891 10.4986 8.90615C10.4915 8.92319 10.4811 8.93867 10.4679 8.95167L6.88597 12.5265C6.86459 12.5475 6.83701 12.5611 6.8073 12.5652C6.77759 12.5693 6.74736 12.5637 6.72109 12.5492C6.69482 12.5348 6.67392 12.5122 6.66149 12.4849C6.64906 12.4576 6.64577 12.4271 6.65211 12.3978Z" fill="url(#paint0_linear_1878_170374)"/>
<defs>
<linearGradient id="paint0_linear_1878_170374" x1="11.5573" y1="2.06173" x2="-1.81768" y2="25.1199" gradientUnits="userSpaceOnUse">
<stop stop-color="#792EE5"/>
<stop offset="1" stop-color="#3EABB3"/>
</linearGradient>
</defs>
</svg>
