<svg width="14" height="16" viewBox="0 0 14 16" fill="none" xmlns="http://www.w3.org/2000/svg">
    <path d="M3 3H11V13H3V3Z" fill="white" style="fill:white;fill-opacity:1;"/>
    <path fill-rule="evenodd" clip-rule="evenodd" d="M0.296441 3.77571L6.48859 0.0821816C6.57902 0.0283365 6.6816 0 6.78601 0C6.89043 0 6.993 0.0283365 7.08343 0.0821816L13.2756 3.77571C13.3657 3.82962 13.4405 3.90699 13.4926 4.0001C13.5446 4.0932 13.572 4.19876 13.572 4.30622V11.6943C13.572 11.8017 13.5446 11.9073 13.4926 12.0004C13.4405 12.0935 13.3657 12.1709 13.2756 12.2248L7.08343 15.9178C6.993 15.9716 6.89043 16 6.78601 16C6.6816 16 6.57902 15.9716 6.48859 15.9178L0.296441 12.2248C0.206307 12.1709 0.131482 12.0935 0.0794564 12.0004C0.0274313 11.9073 3.3632e-05 11.8017 0 11.6943V4.30622C3.3632e-05 4.19876 0.0274313 4.0932 0.0794564 4.0001C0.131482 3.90699 0.206307 3.82962 0.296441 3.77571ZM6.21723 9.17064L5.48198 12.401H5.47954C5.47312 12.4303 5.47603 12.4609 5.48785 12.4884C5.49967 12.5158 5.51977 12.5385 5.54514 12.5532C5.57051 12.5679 5.59981 12.5738 5.62867 12.5699C5.65752 12.566 5.68439 12.5527 5.70528 12.5318L9.17826 8.95491C9.19102 8.94199 9.20117 8.92657 9.20809 8.90956C9.21501 8.89255 9.21858 8.87428 9.21858 8.85584C9.21858 8.83739 9.21501 8.81915 9.20809 8.80214C9.20117 8.78513 9.19102 8.76971 9.17826 8.75679L7.40642 6.97364C7.38962 6.95693 7.37737 6.93597 7.37086 6.91286C7.36436 6.88974 7.36385 6.86527 7.36936 6.84189L8.1056 3.60346C8.11243 3.57403 8.10974 3.5431 8.09796 3.51539C8.08617 3.48768 8.06593 3.4647 8.04031 3.44995C8.01469 3.4352 7.9851 3.4295 7.95604 3.4337C7.92699 3.4379 7.90006 3.45177 7.87936 3.47322L4.39469 7.04756C4.38191 7.06052 4.37176 7.07598 4.36483 7.09303C4.3579 7.11009 4.35433 7.12838 4.35433 7.14687C4.35433 7.16536 4.3579 7.18366 4.36483 7.20072C4.37176 7.21777 4.38191 7.23323 4.39469 7.24619L6.18018 9.03889C6.19678 9.05574 6.20889 9.07671 6.21538 9.09978C6.22187 9.12285 6.2225 9.14725 6.21723 9.17064Z" fill="url(#paint0_linear_1112_9079)" style=""/>
    <defs>
        <linearGradient id="paint0_linear_1112_9079" x1="9.71284" y1="4.91679" x2="-6.81188" y2="19.8582" gradientUnits="userSpaceOnUse">
            <stop stop-color="#792EE5" style="stop-color:#792EE5;stop-color:color(display-p3 0.4745 0.1804 0.8980);stop-opacity:1;"/>
            <stop offset="1" stop-color="#428FF4" style="stop-color:#428FF4;stop-color:color(display-p3 0.2588 0.5608 0.9569);stop-opacity:1;"/>
            <stop offset="1" stop-color="#428FF4" style="stop-color:#428FF4;stop-color:color(display-p3 0.2588 0.5608 0.9569);stop-opacity:1;"/>
            <stop offset="1.0001" stop-color="#3EABB3" style="stop-color:#3EABB3;stop-color:color(display-p3 0.2431 0.6706 0.7020);stop-opacity:1;"/>
        </linearGradient>
    </defs>
</svg>
