<svg width="41" height="48" viewBox="0 0 41 48" fill="none" xmlns="http://www.w3.org/2000/svg">
    <path d="M9 8H31V40H9V8Z" fill="white" style="fill:white;fill-opacity:1;"/>
    <path fill-rule="evenodd" clip-rule="evenodd" d="M0.889324 11.3271L19.4658 0.246545C19.7371 0.0850095 20.0448 0 20.3581 0C20.6713 0 20.979 0.0850095 21.2503 0.246545L39.8268 11.3271C40.0972 11.4889 40.3217 11.721 40.4778 12.0003C40.6338 12.2796 40.716 12.5963 40.7161 12.9187V35.0829C40.716 35.4053 40.6338 35.722 40.4778 36.0013C40.3217 36.2806 40.0972 36.5127 39.8268 36.6744L21.2503 47.7535C20.979 47.915 20.6713 48.0001 20.3581 48.0001C20.0448 48.0001 19.7371 47.915 19.4658 47.7535L0.889324 36.6744C0.618921 36.5127 0.394445 36.2806 0.23837 36.0013C0.082294 35.722 0.000100896 35.4053 0 35.0829V12.9187C0.000100896 12.5963 0.082294 12.2796 0.23837 12.0003C0.394445 11.721 0.618921 11.4889 0.889324 11.3271ZM18.6521 27.5124L16.4464 37.2035H16.4391C16.4198 37.2913 16.4285 37.3832 16.464 37.4655C16.4994 37.5478 16.5597 37.6161 16.6359 37.6601C16.712 37.7042 16.7999 37.7217 16.8864 37.7102C16.973 37.6986 17.0536 37.6584 17.1163 37.5958L27.5352 26.8652C27.5735 26.8264 27.6039 26.7802 27.6247 26.7291C27.6455 26.6781 27.6562 26.6233 27.6562 26.568C27.6562 26.5126 27.6455 26.4579 27.6247 26.4069C27.6039 26.3558 27.5735 26.3096 27.5352 26.2708L22.2197 20.9214C22.1693 20.8712 22.1325 20.8084 22.113 20.739C22.0935 20.6697 22.092 20.5963 22.1085 20.5261L24.3173 10.8108C24.3377 10.7225 24.3297 10.6297 24.2943 10.5466C24.259 10.4635 24.1982 10.3945 24.1214 10.3503C24.0445 10.306 23.9558 10.2889 23.8686 10.3015C23.7814 10.3141 23.7006 10.3557 23.6385 10.4201L13.1845 21.1431C13.1462 21.182 13.1157 21.2284 13.0949 21.2796C13.0741 21.3307 13.0634 21.3856 13.0634 21.4411C13.0634 21.4965 13.0741 21.5514 13.0949 21.6026C13.1157 21.6537 13.1462 21.7001 13.1845 21.739L18.541 27.1171C18.5908 27.1677 18.6271 27.2306 18.6466 27.2998C18.6661 27.369 18.668 27.4422 18.6521 27.5124Z" fill="url(#paint0_linear_1112_9080)" style=""/>
    <defs>
        <linearGradient id="paint0_linear_1112_9080" x1="29.1386" y1="14.7504" x2="-20.4357" y2="59.5748" gradientUnits="userSpaceOnUse">
            <stop stop-color="#792EE5" style="stop-color:#792EE5;stop-color:color(display-p3 0.4745 0.1804 0.8980);stop-opacity:1;"/>
            <stop offset="1" stop-color="#428FF4" style="stop-color:#428FF4;stop-color:color(display-p3 0.2588 0.5608 0.9569);stop-opacity:1;"/>
            <stop offset="1" stop-color="#428FF4" style="stop-color:#428FF4;stop-color:color(display-p3 0.2588 0.5608 0.9569);stop-opacity:1;"/>
            <stop offset="1.0001" stop-color="#3EABB3" style="stop-color:#3EABB3;stop-color:color(display-p3 0.2431 0.6706 0.7020);stop-opacity:1;"/>
        </linearGradient>
    </defs>
</svg>
