<svg width="403" height="101" viewBox="0 0 403 101" fill="none" xmlns="http://www.w3.org/2000/svg">
<g clip-path="url(#clip0_402_223)">
<path d="M41.5765 1.31134L1.78056 24.3883C1.191 24.6841 0.896211 25.2758 0.306642 25.8676C0.0665573 26.4266 -0.0346068 27.0358 0.0118562 27.6427V73.7965C0.0729164 74.4252 0.27444 75.032 0.601428 75.5717C0.935017 76.2011 1.44824 76.7162 2.07535 77.051L41.5765 100.128C42.0867 100.512 42.7074 100.72 43.3452 100.72C43.983 100.72 44.6036 100.512 45.1139 100.128L84.615 77.051C85.2421 76.7162 85.7554 76.2011 86.0889 75.5717C86.4159 75.032 86.6175 74.4252 86.6785 73.7965V27.6723C86.6175 27.0436 86.4159 26.4368 86.0889 25.8971C85.7554 25.2677 85.2421 24.7527 84.615 24.4178L45.1139 1.34092C44.5761 1.01275 43.9716 0.810489 43.3452 0.749207C42.7211 0.801445 42.1167 0.993541 41.5765 1.31134Z" fill="url(#paint0_linear_402_223)"/>
<g clip-path="url(#clip1_402_223)">
<path d="M50.2434 58.6915C50.2386 58.6915 50.2354 58.6865 50.2375 58.6822C50.8435 57.4431 51.5205 56.2381 52.247 54.9632C52.8388 53.9249 53.4115 52.9058 53.9893 51.8204C54.1044 51.6036 54.2873 51.4306 54.5101 51.3279C54.7329 51.2251 54.9832 51.1983 55.2228 51.2515C57.5113 51.7619 59.8452 52.0422 62.1896 52.0882C62.339 52.0914 62.4875 52.0648 62.6265 52.01C62.7654 51.9551 62.8921 51.8731 62.999 51.7687C63.1059 51.6643 63.1909 51.5396 63.249 51.402C63.3071 51.2643 63.3372 51.1165 63.3375 50.967V47.4913C63.3369 47.1973 63.221 46.9153 63.0147 46.7059C62.8084 46.4965 62.5282 46.3764 62.2342 46.3714C60.8075 46.3373 59.3848 46.2039 57.9766 45.9721C57.8184 45.9451 57.6679 45.8846 57.5351 45.7945C57.4024 45.7045 57.2904 45.5871 57.2068 45.4502C57.1232 45.3133 57.0698 45.1601 57.0504 45.0008C57.0309 44.8416 57.0457 44.68 57.0939 44.527C58.3673 40.4177 59.0317 36.144 59.0659 31.842C59.0664 31.6944 59.0377 31.5481 58.9815 31.4115C58.9253 31.275 58.8427 31.1509 58.7384 31.0463C58.6341 30.9418 58.5102 30.8589 58.3737 30.8024C58.2373 30.7459 58.0911 30.7169 57.9434 30.717H54.4664C54.1712 30.718 53.8885 30.8356 53.6797 31.0442C53.4708 31.2528 53.3529 31.5354 53.3516 31.8306C53.3182 35.4609 52.7706 39.0681 51.7253 42.5448C51.6778 42.7036 51.5957 42.8498 51.4849 42.9731C51.3741 43.0963 51.2373 43.1934 51.0845 43.2574C50.9316 43.3215 50.7665 43.3508 50.601 43.3434C50.4354 43.336 50.2736 43.292 50.1271 43.2145C49.2916 42.7732 48.4562 42.3012 47.5888 41.8114C46.5506 41.2196 45.5302 40.6469 44.446 40.0704C44.2291 39.9551 44.0561 39.7719 43.9534 39.5489C43.8506 39.3259 43.8238 39.0754 43.8771 38.8357C44.3874 36.5475 44.6677 34.214 44.7138 31.8701C44.7169 31.7208 44.6902 31.5723 44.6352 31.4334C44.5803 31.2945 44.4983 31.1679 44.3939 31.0611C44.2895 30.9542 44.1649 30.8692 44.0274 30.811C43.8898 30.7528 43.742 30.7226 43.5927 30.7221H40.1169C39.8228 30.7231 39.5408 30.8393 39.3314 31.0458C39.1221 31.2523 39.002 31.5327 38.997 31.8267C38.9623 33.253 38.8289 34.6752 38.5978 36.0831C38.5707 36.2412 38.5102 36.3918 38.4202 36.5245C38.3301 36.6573 38.2127 36.7693 38.0758 36.8529C37.9389 36.9365 37.7857 36.9899 37.6264 37.0093C37.4672 37.0288 37.3056 37.0139 37.1526 36.9658C33.043 35.6945 28.7693 35.0323 24.4677 35.0002C24.32 34.9995 24.1738 35.028 24.0372 35.0841C23.9007 35.1402 23.7766 35.2227 23.672 35.3269C23.5675 35.431 23.4845 35.5549 23.428 35.6912C23.3715 35.8276 23.3425 35.9738 23.3427 36.1214V39.5997C23.3437 39.8948 23.4613 40.1776 23.6698 40.3864C23.8784 40.5952 24.161 40.7131 24.4562 40.7145C28.0864 40.7472 31.6937 41.2943 35.1705 42.3395C35.3292 42.3871 35.4754 42.4692 35.5986 42.58C35.7219 42.6907 35.819 42.8274 35.8832 42.9802C35.9473 43.133 35.9768 43.2981 35.9696 43.4637C35.9624 43.6292 35.9186 43.7911 35.8414 43.9377C35.4001 44.7732 34.9281 45.6086 34.4383 46.4772C33.8465 47.5155 33.2738 48.5346 32.6972 49.6188C32.5822 49.8358 32.399 50.009 32.176 50.1117C31.9529 50.2145 31.7023 50.2412 31.4626 50.1877C29.1743 49.6778 26.8409 49.3979 24.497 49.3522C24.3477 49.349 24.1993 49.3756 24.0604 49.4304C23.9215 49.4852 23.7949 49.5671 23.688 49.6713C23.5812 49.7756 23.4961 49.9001 23.4379 50.0376C23.3797 50.1751 23.3495 50.3228 23.349 50.4721V53.9479C23.3503 54.242 23.4666 54.5239 23.673 54.7335C23.8794 54.943 24.1596 55.0634 24.4536 55.0691C25.88 55.1025 27.3023 55.236 28.71 55.4683C28.8681 55.4952 29.0186 55.5556 29.1514 55.6455C29.2841 55.7354 29.3961 55.8527 29.4798 55.9895C29.5634 56.1263 29.6167 56.2794 29.6362 56.4386C29.6557 56.5978 29.6408 56.7593 29.5927 56.9122C28.3205 61.0217 27.6575 65.2954 27.6245 69.5971C27.624 69.7448 27.6527 69.8911 27.7089 70.0277C27.7651 70.1642 27.8477 70.2883 27.952 70.3929C28.0563 70.4974 28.1802 70.5803 28.3167 70.6368C28.4531 70.6933 28.5993 70.7223 28.747 70.7221H32.224C32.519 70.7215 32.8018 70.6042 33.0107 70.3958C33.2195 70.1874 33.3375 69.9049 33.3388 69.6099C33.372 65.9796 33.9196 62.3723 34.9651 58.8956C35.0129 58.737 35.0951 58.5909 35.2059 58.4678C35.3167 58.3448 35.4534 58.2477 35.6061 58.1836C35.7588 58.1195 35.9238 58.0899 36.0893 58.097C36.2548 58.1041 36.4167 58.1477 36.5633 58.2247C37.3988 58.6673 38.2342 59.138 39.1016 59.6278C40.1398 60.2196 41.1603 60.7923 42.2444 61.3701C42.4613 61.485 42.6344 61.6679 42.7372 61.8907C42.84 62.1136 42.8667 62.364 42.8133 62.6035C42.3034 64.8922 42.0236 67.226 41.9779 69.5704C41.9746 69.7196 42.0012 69.8681 42.056 70.0069C42.1108 70.1458 42.1927 70.2724 42.297 70.3793C42.4012 70.4862 42.5257 70.5712 42.6632 70.6294C42.8007 70.6876 42.9484 70.7178 43.0978 70.7183H46.5735C46.8675 70.7174 47.1494 70.6014 47.359 70.3952C47.5685 70.189 47.689 69.9089 47.6947 69.615C47.7281 68.1882 47.8615 66.7655 48.0939 65.3573C48.1207 65.1993 48.1811 65.0488 48.2711 64.916C48.361 64.7833 48.4783 64.6714 48.6152 64.5879C48.752 64.5043 48.9052 64.4511 49.0643 64.4318C49.2235 64.4125 49.385 64.4276 49.5378 64.476C53.6476 65.7462 57.9212 66.408 62.2228 66.4403C62.3704 66.4409 62.5166 66.4124 62.6532 66.3564C62.7897 66.3003 62.9138 66.2178 63.0184 66.1136C63.1229 66.0094 63.2059 65.8856 63.2624 65.7492C63.3189 65.6129 63.3479 65.4667 63.3478 65.3191V61.8408C63.3471 61.5455 63.2296 61.2626 63.0209 61.0537C62.8123 60.8448 62.5295 60.727 62.2342 60.726C58.1554 60.6884 54.1085 60.0017 50.2455 58.6919C50.2448 58.6916 50.2441 58.6915 50.2434 58.6915ZM47.2852 52.1482C47.2837 52.1482 47.2822 52.149 47.2814 52.1504C46.676 53.216 46.0821 54.2688 45.5199 55.3586C45.4513 55.4909 45.3569 55.6081 45.2423 55.7034C45.1277 55.7988 44.9953 55.8703 44.8528 55.9137C44.7102 55.9572 44.5604 55.9718 44.4121 55.9566C44.2639 55.9415 44.1201 55.8969 43.9893 55.8255C43.2916 55.4428 42.6067 55.0602 41.9281 54.6698C40.8618 54.064 39.8095 53.4696 38.7177 52.9071C38.5854 52.8384 38.4682 52.744 38.3728 52.6295C38.2775 52.5149 38.206 52.3825 38.1625 52.2399C38.1191 52.0973 38.1045 51.9476 38.1196 51.7993C38.1348 51.651 38.1794 51.5073 38.2508 51.3765C38.6335 50.6788 39.0161 49.9938 39.4064 49.3153C40.0136 48.2502 40.608 47.1966 41.1705 46.1048C41.239 45.9724 41.3333 45.8551 41.4479 45.7596C41.5624 45.6642 41.6949 45.5927 41.8375 45.5492C41.9801 45.5057 42.1299 45.4911 42.2782 45.5064C42.4265 45.5216 42.5703 45.5664 42.7011 45.638C43.3988 46.0206 44.0837 46.4033 44.7623 46.7936C45.8273 47.3994 46.8796 47.9938 47.9702 48.5563C48.1025 48.625 48.2197 48.7194 48.315 48.834C48.4103 48.9486 48.4817 49.0811 48.5251 49.2237C48.5685 49.3662 48.5829 49.5161 48.5676 49.6643C48.5522 49.8126 48.5074 49.9563 48.4358 50.0869C48.065 50.7788 47.6726 51.4617 47.2891 52.1459C47.2883 52.1473 47.2868 52.1482 47.2852 52.1482Z" fill="white" stroke="url(#paint1_linear_402_223)" stroke-linejoin="round"/>
</g>
</g>
<path d="M107.857 46.7196V17.6287H113.127V42.302H125.94V46.7196H107.857ZM129.286 46.7196V24.9014H134.428V46.7196H129.286ZM131.872 21.8048C131.057 21.8048 130.356 21.5349 129.769 20.9952C129.182 20.4459 128.889 19.7878 128.889 19.0207C128.889 18.2442 129.182 17.5861 129.769 17.0463C130.356 16.4971 131.057 16.2224 131.872 16.2224C132.695 16.2224 133.396 16.4971 133.974 17.0463C134.561 17.5861 134.855 18.2442 134.855 19.0207C134.855 19.7878 134.561 20.4459 133.974 20.9952C133.396 21.5349 132.695 21.8048 131.872 21.8048ZM148.205 55.356C146.358 55.356 144.772 55.105 143.446 54.6031C142.12 54.1107 141.055 53.4478 140.25 52.6145C139.445 51.7812 138.886 50.8579 138.574 49.8446L143.205 48.7224C143.413 49.1486 143.716 49.57 144.114 49.9867C144.511 50.4128 145.047 50.7632 145.719 51.0378C146.401 51.3219 147.258 51.4639 148.29 51.4639C149.748 51.4639 150.956 51.1088 151.912 50.3986C152.868 49.6978 153.347 48.5425 153.347 46.9327V42.7991H153.091C152.826 43.3295 152.438 43.874 151.926 44.4327C151.424 44.9914 150.757 45.4601 149.923 45.8389C149.1 46.2177 148.063 46.4071 146.813 46.4071C145.136 46.4071 143.617 46.0141 142.253 45.2281C140.899 44.4327 139.819 43.249 139.014 41.677C138.219 40.0956 137.821 38.1164 137.821 35.7395C137.821 33.3437 138.219 31.3219 139.014 29.6741C139.819 28.017 140.904 26.7622 142.267 25.9099C143.631 25.0482 145.151 24.6173 146.827 24.6173C148.105 24.6173 149.156 24.8351 149.98 25.2707C150.814 25.6969 151.476 26.213 151.969 26.819C152.461 27.4156 152.835 27.9791 153.091 28.5094H153.375V24.9014H158.446V47.0747C158.446 48.9402 158.001 50.4838 157.111 51.7054C156.221 52.927 155.004 53.8408 153.46 54.4469C151.917 55.0529 150.165 55.356 148.205 55.356ZM148.247 42.373C149.336 42.373 150.264 42.1079 151.031 41.5776C151.798 41.0473 152.381 40.2849 152.779 39.2906C153.176 38.2963 153.375 37.1031 153.375 35.7111C153.375 34.338 153.176 33.1353 152.779 32.1031C152.39 31.0709 151.813 30.2707 151.046 29.7026C150.288 29.1249 149.355 28.8361 148.247 28.8361C147.101 28.8361 146.145 29.1344 145.378 29.731C144.611 30.3276 144.033 31.1467 143.645 32.1884C143.257 33.2206 143.063 34.3948 143.063 35.7111C143.063 37.0463 143.257 38.2158 143.645 39.2196C144.043 40.2139 144.625 40.9904 145.392 41.5491C146.169 42.0984 147.12 42.373 148.247 42.373ZM167.858 33.9355V46.7196H162.716V17.6287H167.744V28.6088H168C168.511 27.3777 169.302 26.4071 170.372 25.6969C171.452 24.9772 172.825 24.6173 174.492 24.6173C176.007 24.6173 177.328 24.9346 178.455 25.569C179.582 26.2035 180.453 27.1315 181.068 28.3531C181.693 29.5747 182.006 31.0662 182.006 32.8276V46.7196H176.864V33.623C176.864 32.1552 176.485 31.0141 175.727 30.1997C174.979 29.3759 173.928 28.9639 172.574 28.9639C171.665 28.9639 170.85 29.1628 170.131 29.5605C169.421 29.9488 168.862 30.5122 168.455 31.2509C168.057 31.9895 167.858 32.8844 167.858 33.9355ZM197.142 24.9014V28.8787H184.6V24.9014H197.142ZM187.696 19.6741H192.838V40.1571C192.838 40.8484 192.942 41.3787 193.151 41.748C193.368 42.1079 193.653 42.3541 194.003 42.4866C194.353 42.6192 194.742 42.6855 195.168 42.6855C195.49 42.6855 195.783 42.6618 196.048 42.6145C196.323 42.5671 196.531 42.5245 196.673 42.4866L197.54 46.5065C197.265 46.6012 196.872 46.7054 196.361 46.819C195.859 46.9327 195.243 46.999 194.514 47.0179C193.226 47.0558 192.066 46.8616 191.034 46.4355C190.002 45.9999 189.183 45.3276 188.577 44.4185C187.98 43.5094 187.687 42.373 187.696 41.0094V19.6741ZM205.585 33.9355V46.7196H200.443V24.9014H205.357V28.6088H205.613C206.115 27.3872 206.915 26.4166 208.014 25.6969C209.122 24.9772 210.49 24.6173 212.119 24.6173C213.624 24.6173 214.936 24.9393 216.053 25.5832C217.18 26.2272 218.051 27.1599 218.667 28.3815C219.292 29.6031 219.6 31.0851 219.59 32.8276V46.7196H214.448V33.623C214.448 32.1647 214.069 31.0236 213.312 30.1997C212.564 29.3759 211.527 28.9639 210.201 28.9639C209.301 28.9639 208.501 29.1628 207.801 29.5605C207.109 29.9488 206.565 30.5122 206.167 31.2509C205.779 31.9895 205.585 32.8844 205.585 33.9355ZM223.818 46.7196V24.9014H228.96V46.7196H223.818ZM226.403 21.8048C225.588 21.8048 224.888 21.5349 224.301 20.9952C223.713 20.4459 223.42 19.7878 223.42 19.0207C223.42 18.2442 223.713 17.5861 224.301 17.0463C224.888 16.4971 225.588 16.2224 226.403 16.2224C227.227 16.2224 227.927 16.4971 228.505 17.0463C229.092 17.5861 229.386 18.2442 229.386 19.0207C229.386 19.7878 229.092 20.4459 228.505 20.9952C227.927 21.5349 227.227 21.8048 226.403 21.8048ZM238.389 33.9355V46.7196H233.247V24.9014H238.162V28.6088H238.418C238.92 27.3872 239.72 26.4166 240.818 25.6969C241.926 24.9772 243.295 24.6173 244.923 24.6173C246.429 24.6173 247.741 24.9393 248.858 25.5832C249.985 26.2272 250.856 27.1599 251.472 28.3815C252.097 29.6031 252.404 31.0851 252.395 32.8276V46.7196H247.253V33.623C247.253 32.1647 246.874 31.0236 246.117 30.1997C245.368 29.3759 244.332 28.9639 243.006 28.9639C242.106 28.9639 241.306 29.1628 240.605 29.5605C239.914 29.9488 239.369 30.5122 238.972 31.2509C238.583 31.9895 238.389 32.8844 238.389 33.9355ZM266.111 55.356C264.264 55.356 262.678 55.105 261.352 54.6031C260.027 54.1107 258.961 53.4478 258.156 52.6145C257.351 51.7812 256.793 50.8579 256.48 49.8446L261.111 48.7224C261.319 49.1486 261.622 49.57 262.02 49.9867C262.418 50.4128 262.953 50.7632 263.625 51.0378C264.307 51.3219 265.164 51.4639 266.196 51.4639C267.654 51.4639 268.862 51.1088 269.818 50.3986C270.775 49.6978 271.253 48.5425 271.253 46.9327V42.7991H270.997C270.732 43.3295 270.344 43.874 269.832 44.4327C269.331 44.9914 268.663 45.4601 267.83 45.8389C267.006 46.2177 265.969 46.4071 264.719 46.4071C263.043 46.4071 261.523 46.0141 260.159 45.2281C258.805 44.4327 257.725 43.249 256.921 41.677C256.125 40.0956 255.727 38.1164 255.727 35.7395C255.727 33.3437 256.125 31.3219 256.921 29.6741C257.725 28.017 258.81 26.7622 260.173 25.9099C261.537 25.0482 263.057 24.6173 264.733 24.6173C266.011 24.6173 267.063 24.8351 267.886 25.2707C268.72 25.6969 269.383 26.213 269.875 26.819C270.368 27.4156 270.742 27.9791 270.997 28.5094H271.281V24.9014H276.352V47.0747C276.352 48.9402 275.907 50.4838 275.017 51.7054C274.127 52.927 272.91 53.8408 271.367 54.4469C269.823 55.0529 268.071 55.356 266.111 55.356ZM266.154 42.373C267.243 42.373 268.171 42.1079 268.938 41.5776C269.705 41.0473 270.287 40.2849 270.685 39.2906C271.082 38.2963 271.281 37.1031 271.281 35.7111C271.281 34.338 271.082 33.1353 270.685 32.1031C270.297 31.0709 269.719 30.2707 268.952 29.7026C268.194 29.1249 267.261 28.8361 266.154 28.8361C265.008 28.8361 264.051 29.1344 263.284 29.731C262.517 30.3276 261.94 31.1467 261.551 32.1884C261.163 33.2206 260.969 34.3948 260.969 35.7111C260.969 37.0463 261.163 38.2158 261.551 39.2196C261.949 40.2139 262.531 40.9904 263.298 41.5491C264.075 42.0984 265.027 42.373 266.154 42.373ZM289.771 46.7196V17.6287H308.408V22.0463H295.041V29.944H307.129V34.3616H295.041V46.7196H289.771ZM318.065 47.1599C316.682 47.1599 315.437 46.9137 314.329 46.4213C313.23 45.9194 312.359 45.1808 311.715 44.2054C311.081 43.23 310.764 42.0274 310.764 40.5974C310.764 39.3664 310.991 38.3484 311.445 37.5435C311.9 36.7385 312.52 36.0946 313.306 35.6116C314.092 35.1287 314.978 34.7641 315.962 34.5179C316.957 34.2622 317.984 34.0776 319.045 33.9639C320.323 33.8313 321.36 33.713 322.156 33.6088C322.951 33.4952 323.529 33.3247 323.889 33.0974C324.258 32.8607 324.443 32.4961 324.443 32.0037V31.9185C324.443 30.8484 324.125 30.0198 323.491 29.4327C322.856 28.8456 321.943 28.552 320.749 28.552C319.49 28.552 318.491 28.8266 317.752 29.3759C317.023 29.9251 316.531 30.5738 316.275 31.3219L311.474 30.6401C311.853 29.3143 312.478 28.2063 313.349 27.3162C314.22 26.4166 315.285 25.7442 316.545 25.2991C317.804 24.8446 319.196 24.6173 320.721 24.6173C321.772 24.6173 322.819 24.7404 323.86 24.9866C324.902 25.2329 325.854 25.6401 326.715 26.2082C327.577 26.767 328.268 27.5293 328.789 28.4952C329.319 29.4611 329.585 30.6685 329.585 32.1173V46.7196H324.641V43.7224H324.471C324.158 44.3285 323.718 44.8967 323.15 45.427C322.591 45.9478 321.886 46.3692 321.033 46.6912C320.191 47.0037 319.201 47.1599 318.065 47.1599ZM319.4 43.3815C320.432 43.3815 321.327 43.1779 322.085 42.7707C322.842 42.3541 323.425 41.8048 323.832 41.123C324.248 40.4412 324.457 39.6978 324.457 38.8929V36.3219C324.296 36.4545 324.021 36.5776 323.633 36.6912C323.254 36.8048 322.828 36.9043 322.355 36.9895C321.881 37.0747 321.412 37.1505 320.948 37.2168C320.484 37.2831 320.082 37.3399 319.741 37.3872C318.974 37.4914 318.287 37.6618 317.681 37.8986C317.075 38.1353 316.597 38.4668 316.247 38.8929C315.896 39.3096 315.721 39.8493 315.721 40.5122C315.721 41.4592 316.067 42.1741 316.758 42.6571C317.449 43.1401 318.33 43.3815 319.4 43.3815ZM333.982 46.7196V17.6287H339.124V28.5094H339.337C339.603 27.9791 339.977 27.4156 340.46 26.819C340.943 26.213 341.596 25.6969 342.42 25.2707C343.244 24.8351 344.295 24.6173 345.573 24.6173C347.259 24.6173 348.779 25.0482 350.133 25.9099C351.497 26.7622 352.576 28.0264 353.372 29.7026C354.176 31.3692 354.579 33.4147 354.579 35.8389C354.579 38.2348 354.186 40.2707 353.4 41.9469C352.614 43.623 351.544 44.9014 350.19 45.7821C348.836 46.6628 347.301 47.1031 345.587 47.1031C344.337 47.1031 343.301 46.8948 342.477 46.4781C341.653 46.0615 340.99 45.5596 340.488 44.9724C339.996 44.3759 339.612 43.8124 339.337 43.2821H339.039V46.7196H333.982ZM339.025 35.8105C339.025 37.2215 339.224 38.4573 339.622 39.5179C340.029 40.5785 340.611 41.4071 341.369 42.0037C342.136 42.5908 343.064 42.8844 344.153 42.8844C345.289 42.8844 346.241 42.5813 347.008 41.9753C347.775 41.3598 348.353 40.5217 348.741 39.4611C349.139 38.391 349.337 37.1741 349.337 35.8105C349.337 34.4563 349.143 33.2537 348.755 32.2026C348.367 31.1514 347.789 30.3276 347.022 29.731C346.255 29.1344 345.299 28.8361 344.153 28.8361C343.054 28.8361 342.122 29.1249 341.355 29.7026C340.587 30.2802 340.005 31.0899 339.607 32.1315C339.219 33.1732 339.025 34.3995 339.025 35.8105ZM357.95 46.7196V24.9014H362.936V28.5378H363.163C363.561 27.2783 364.243 26.3077 365.209 25.6259C366.184 24.9346 367.297 24.5889 368.547 24.5889C368.831 24.5889 369.148 24.6031 369.499 24.6315C369.859 24.6505 370.157 24.6836 370.394 24.731V29.4611C370.176 29.3853 369.83 29.319 369.357 29.2622C368.893 29.1959 368.443 29.1628 368.007 29.1628C367.07 29.1628 366.227 29.3664 365.479 29.7736C364.74 30.1713 364.158 30.7253 363.732 31.4355C363.306 32.1457 363.092 32.9649 363.092 33.8929V46.7196H357.95ZM372.81 46.7196V24.9014H377.952V46.7196H372.81ZM375.395 21.8048C374.581 21.8048 373.88 21.5349 373.293 20.9952C372.706 20.4459 372.412 19.7878 372.412 19.0207C372.412 18.2442 372.706 17.5861 373.293 17.0463C373.88 16.4971 374.581 16.2224 375.395 16.2224C376.219 16.2224 376.92 16.4971 377.497 17.0463C378.084 17.5861 378.378 18.2442 378.378 19.0207C378.378 19.7878 378.084 20.4459 377.497 20.9952C376.92 21.5349 376.219 21.8048 375.395 21.8048ZM391.757 47.1457C389.578 47.1457 387.708 46.6675 386.146 45.7111C384.593 44.7546 383.395 43.4336 382.552 41.748C381.719 40.0529 381.302 38.1022 381.302 35.8957C381.302 33.6798 381.728 31.7243 382.58 30.0293C383.433 28.3247 384.635 26.999 386.188 26.052C387.751 25.0956 389.597 24.6173 391.728 24.6173C393.499 24.6173 395.066 24.944 396.43 25.5974C397.803 26.2414 398.897 27.1552 399.711 28.3389C400.525 29.5132 400.989 30.8863 401.103 32.4582H396.188C395.989 31.4071 395.516 30.5312 394.768 29.8304C394.029 29.1202 393.04 28.7651 391.799 28.7651C390.748 28.7651 389.825 29.0491 389.029 29.6173C388.234 30.176 387.614 30.981 387.168 32.0321C386.733 33.0832 386.515 34.3427 386.515 35.8105C386.515 37.2973 386.733 38.5757 387.168 39.6457C387.604 40.7063 388.215 41.5255 389.001 42.1031C389.796 42.6713 390.729 42.9554 391.799 42.9554C392.557 42.9554 393.234 42.8134 393.83 42.5293C394.436 42.2357 394.943 41.8143 395.35 41.2651C395.757 40.7158 396.037 40.0482 396.188 39.2622H401.103C400.98 40.8058 400.525 42.1741 399.739 43.3673C398.953 44.551 397.883 45.4791 396.529 46.1514C395.175 46.8143 393.584 47.1457 391.757 47.1457Z" fill="#1C1C1C"/>
<path d="M123.159 75.3333H121.045C120.92 74.7254 120.702 74.1913 120.389 73.731C120.082 73.2708 119.707 72.8844 119.264 72.5719C118.827 72.2538 118.341 72.0151 117.807 71.856C117.273 71.6969 116.716 71.6174 116.136 71.6174C115.08 71.6174 114.122 71.8844 113.264 72.4185C112.412 72.9526 111.733 73.7396 111.227 74.7793C110.727 75.8191 110.477 77.0947 110.477 78.606C110.477 80.1174 110.727 81.393 111.227 82.4327C111.733 83.4725 112.412 84.2594 113.264 84.7935C114.122 85.3276 115.08 85.5947 116.136 85.5947C116.716 85.5947 117.273 85.5151 117.807 85.356C118.341 85.1969 118.827 84.9612 119.264 84.6487C119.707 84.3305 120.082 83.9413 120.389 83.481C120.702 83.0151 120.92 82.481 121.045 81.8788H123.159C123 82.7708 122.71 83.5691 122.29 84.2737C121.869 84.9782 121.347 85.5776 120.722 86.0719C120.097 86.5606 119.395 86.9327 118.616 87.1884C117.844 87.4441 117.017 87.5719 116.136 87.5719C114.648 87.5719 113.324 87.2083 112.165 86.481C111.006 85.7538 110.094 84.7197 109.429 83.3788C108.764 82.0379 108.432 80.4469 108.432 78.606C108.432 76.7651 108.764 75.1742 109.429 73.8333C110.094 72.4924 111.006 71.4583 112.165 70.731C113.324 70.0038 114.648 69.6401 116.136 69.6401C117.017 69.6401 117.844 69.768 118.616 70.0237C119.395 70.2793 120.097 70.6543 120.722 71.1487C121.347 71.6373 121.869 72.2339 122.29 72.9384C122.71 73.6373 123 74.4356 123.159 75.3333ZM126.302 87.3333V74.2424H128.245V76.2197H128.381C128.62 75.5719 129.052 75.0464 129.677 74.643C130.302 74.2396 131.006 74.0379 131.79 74.0379C131.938 74.0379 132.123 74.0407 132.344 74.0464C132.566 74.0521 132.734 74.0606 132.847 74.0719V76.1174C132.779 76.1004 132.623 76.0748 132.379 76.0407C132.14 76.0009 131.887 75.981 131.62 75.981C130.984 75.981 130.415 76.1146 129.915 76.3816C129.421 76.643 129.029 77.0066 128.739 77.4725C128.455 77.9327 128.313 78.4583 128.313 79.0492V87.3333H126.302ZM140.322 87.606C139.06 87.606 137.972 87.3276 137.058 86.7708C136.148 86.2083 135.447 85.4242 134.952 84.4185C134.464 83.4072 134.219 82.231 134.219 80.8901C134.219 79.5492 134.464 78.3674 134.952 77.3447C135.447 76.3163 136.134 75.5151 137.015 74.9413C137.901 74.3617 138.935 74.0719 140.117 74.0719C140.799 74.0719 141.472 74.1856 142.137 74.4129C142.802 74.6401 143.407 75.0094 143.952 75.5208C144.498 76.0265 144.933 76.6969 145.256 77.5322C145.58 78.3674 145.742 79.3958 145.742 80.6174V81.4697H135.651V79.731H143.697C143.697 78.9924 143.549 78.3333 143.254 77.7538C142.964 77.1742 142.549 76.7168 142.009 76.3816C141.475 76.0464 140.844 75.8788 140.117 75.8788C139.316 75.8788 138.623 76.0776 138.038 76.4754C137.458 76.8674 137.012 77.3788 136.7 78.0094C136.387 78.6401 136.231 79.3163 136.231 80.0379V81.1969C136.231 82.1856 136.401 83.0237 136.742 83.7112C137.089 84.393 137.569 84.9129 138.183 85.2708C138.796 85.6231 139.509 85.7992 140.322 85.7992C140.85 85.7992 141.327 85.7254 141.754 85.5776C142.185 85.4242 142.558 85.1969 142.87 84.8958C143.183 84.589 143.424 84.2083 143.594 83.7538L145.538 84.2992C145.333 84.9583 144.989 85.5379 144.506 86.0379C144.023 86.5322 143.427 86.9185 142.717 87.1969C142.006 87.4697 141.208 87.606 140.322 87.606ZM152.654 87.6401C151.825 87.6401 151.072 87.4839 150.396 87.1714C149.719 86.8532 149.183 86.3958 148.785 85.7992C148.387 85.1969 148.188 84.4697 148.188 83.6174C148.188 82.8674 148.336 82.2594 148.631 81.7935C148.927 81.3219 149.322 80.9526 149.816 80.6856C150.31 80.4185 150.856 80.2197 151.452 80.089C152.055 79.9526 152.66 79.8447 153.268 79.7651C154.063 79.6629 154.708 79.5862 155.202 79.535C155.702 79.4782 156.066 79.3844 156.293 79.2538C156.526 79.1231 156.643 78.8958 156.643 78.5719V78.5038C156.643 77.6629 156.413 77.0094 155.952 76.5435C155.498 76.0776 154.808 75.8447 153.881 75.8447C152.921 75.8447 152.168 76.0549 151.623 76.4754C151.077 76.8958 150.694 77.3447 150.472 77.8219L148.563 77.1401C148.904 76.3447 149.359 75.7254 149.927 75.2822C150.501 74.8333 151.126 74.5208 151.802 74.3447C152.484 74.1629 153.154 74.0719 153.813 74.0719C154.234 74.0719 154.717 74.1231 155.262 74.2254C155.813 74.3219 156.344 74.5237 156.856 74.8305C157.373 75.1373 157.802 75.6004 158.143 76.2197C158.484 76.839 158.654 77.6685 158.654 78.7083V87.3333H156.643V85.5606H156.54C156.404 85.8447 156.177 86.1487 155.859 86.4725C155.54 86.7964 155.117 87.0719 154.589 87.2992C154.06 87.5265 153.415 87.6401 152.654 87.6401ZM152.961 85.8333C153.756 85.8333 154.427 85.6771 154.972 85.3646C155.523 85.0521 155.938 84.6487 156.217 84.1543C156.501 83.66 156.643 83.1401 156.643 82.5947V80.7538C156.558 80.856 156.37 80.9498 156.08 81.035C155.796 81.1146 155.467 81.1856 155.092 81.2481C154.722 81.3049 154.362 81.356 154.009 81.4015C153.663 81.4413 153.381 81.4754 153.165 81.5038C152.643 81.5719 152.154 81.6827 151.7 81.8362C151.251 81.9839 150.887 82.2083 150.609 82.5094C150.336 82.8049 150.2 83.2083 150.2 83.7197C150.2 84.4185 150.458 84.9469 150.975 85.3049C151.498 85.6572 152.16 85.8333 152.961 85.8333ZM168.018 74.2424V75.9469H161.234V74.2424H168.018ZM163.212 71.106H165.223V83.5833C165.223 84.1515 165.305 84.5776 165.47 84.8617C165.641 85.1401 165.857 85.3276 166.118 85.4242C166.385 85.5151 166.666 85.5606 166.962 85.5606C167.183 85.5606 167.365 85.5492 167.507 85.5265C167.649 85.4981 167.763 85.4754 167.848 85.4583L168.257 87.2651C168.121 87.3163 167.93 87.3674 167.686 87.4185C167.442 87.4754 167.132 87.5038 166.757 87.5038C166.189 87.5038 165.632 87.3816 165.087 87.1373C164.547 86.893 164.098 86.5208 163.74 86.0208C163.388 85.5208 163.212 84.8901 163.212 84.1288V71.106ZM176.392 87.606C175.131 87.606 174.043 87.3276 173.128 86.7708C172.219 86.2083 171.517 85.4242 171.023 84.4185C170.534 83.4072 170.29 82.231 170.29 80.8901C170.29 79.5492 170.534 78.3674 171.023 77.3447C171.517 76.3163 172.205 75.5151 173.085 74.9413C173.972 74.3617 175.006 74.0719 176.188 74.0719C176.869 74.0719 177.543 74.1856 178.207 74.4129C178.872 74.6401 179.477 75.0094 180.023 75.5208C180.568 76.0265 181.003 76.6969 181.327 77.5322C181.651 78.3674 181.812 79.3958 181.812 80.6174V81.4697H171.722V79.731H179.767C179.767 78.9924 179.619 78.3333 179.324 77.7538C179.034 77.1742 178.619 76.7168 178.08 76.3816C177.545 76.0464 176.915 75.8788 176.188 75.8788C175.386 75.8788 174.693 76.0776 174.108 76.4754C173.528 76.8674 173.082 77.3788 172.77 78.0094C172.457 78.6401 172.301 79.3163 172.301 80.0379V81.1969C172.301 82.1856 172.472 83.0237 172.812 83.7112C173.159 84.393 173.639 84.9129 174.253 85.2708C174.866 85.6231 175.58 85.7992 176.392 85.7992C176.92 85.7992 177.398 85.7254 177.824 85.5776C178.256 85.4242 178.628 85.1969 178.94 84.8958C179.253 84.589 179.494 84.2083 179.665 83.7538L181.608 84.2992C181.403 84.9583 181.06 85.5379 180.577 86.0379C180.094 86.5322 179.497 86.9185 178.787 87.1969C178.077 87.4697 177.278 87.606 176.392 87.606ZM189.815 87.606C188.724 87.606 187.761 87.3305 186.926 86.7793C186.091 86.2225 185.438 85.4384 184.966 84.4271C184.494 83.41 184.259 82.2083 184.259 80.8219C184.259 79.4469 184.494 78.2538 184.966 77.2424C185.438 76.231 186.094 75.4498 186.935 74.8987C187.776 74.3475 188.747 74.0719 189.849 74.0719C190.702 74.0719 191.375 74.214 191.869 74.4981C192.369 74.7765 192.75 75.0947 193.011 75.4526C193.278 75.8049 193.486 76.0947 193.634 76.3219H193.804V69.8788H195.815V87.3333H193.872V85.3219H193.634C193.486 85.5606 193.276 85.8617 193.003 86.2254C192.73 86.5833 192.341 86.9043 191.835 87.1884C191.33 87.4668 190.656 87.606 189.815 87.606ZM190.088 85.7992C190.895 85.7992 191.577 85.589 192.134 85.1685C192.69 84.7424 193.114 84.1543 193.403 83.4043C193.693 82.6487 193.838 81.7765 193.838 80.7879C193.838 79.8106 193.696 78.9555 193.412 78.2225C193.128 77.4839 192.707 76.91 192.151 76.5009C191.594 76.0862 190.906 75.8788 190.088 75.8788C189.236 75.8788 188.526 76.0975 187.957 76.535C187.395 76.9668 186.972 77.5549 186.688 78.2992C186.409 79.0379 186.27 79.8674 186.27 80.7879C186.27 81.7197 186.412 82.5663 186.696 83.3276C186.986 84.0833 187.412 84.6856 187.974 85.1344C188.543 85.5776 189.247 85.7992 190.088 85.7992ZM206.801 87.3333V69.8788H208.812V76.3219H208.983C209.131 76.0947 209.335 75.8049 209.597 75.4526C209.864 75.0947 210.244 74.7765 210.739 74.4981C211.239 74.214 211.915 74.0719 212.767 74.0719C213.869 74.0719 214.841 74.3475 215.682 74.8987C216.523 75.4498 217.179 76.231 217.651 77.2424C218.122 78.2538 218.358 79.4469 218.358 80.8219C218.358 82.2083 218.122 83.41 217.651 84.4271C217.179 85.4384 216.526 86.2225 215.69 86.7793C214.855 87.3305 213.892 87.606 212.801 87.606C211.96 87.606 211.287 87.4668 210.781 87.1884C210.276 86.9043 209.886 86.5833 209.614 86.2254C209.341 85.8617 209.131 85.5606 208.983 85.3219H208.744V87.3333H206.801ZM208.778 80.7879C208.778 81.7765 208.923 82.6487 209.213 83.4043C209.503 84.1543 209.926 84.7424 210.483 85.1685C211.04 85.589 211.722 85.7992 212.528 85.7992C213.369 85.7992 214.071 85.5776 214.634 85.1344C215.202 84.6856 215.628 84.0833 215.912 83.3276C216.202 82.5663 216.347 81.7197 216.347 80.7879C216.347 79.8674 216.205 79.0379 215.92 78.2992C215.642 77.5549 215.219 76.9668 214.651 76.535C214.088 76.0975 213.381 75.8788 212.528 75.8788C211.71 75.8788 211.023 76.0862 210.466 76.5009C209.909 76.91 209.489 77.4839 209.205 78.2225C208.92 78.9555 208.778 79.8106 208.778 80.7879ZM222.261 92.2424C221.92 92.2424 221.616 92.214 221.349 92.1572C221.082 92.106 220.898 92.0549 220.795 92.0038L221.307 90.231C221.795 90.356 222.227 90.4015 222.602 90.3674C222.977 90.3333 223.31 90.1657 223.599 89.8646C223.895 89.5691 224.165 89.089 224.409 88.4242L224.784 87.4015L219.943 74.2424H222.125L225.739 84.6742H225.875L229.489 74.2424H231.67L226.114 89.2424C225.864 89.9185 225.554 90.4782 225.185 90.9214C224.815 91.3702 224.386 91.7026 223.898 91.9185C223.415 92.1344 222.869 92.2424 222.261 92.2424ZM241.348 87.3333V69.8788H243.462V85.4583H251.575V87.3333H241.348ZM254.575 87.3333V74.2424H256.587V87.3333H254.575ZM255.598 72.0606C255.206 72.0606 254.868 71.9271 254.584 71.66C254.305 71.393 254.166 71.0719 254.166 70.6969C254.166 70.3219 254.305 70.0009 254.584 69.7339C254.868 69.4668 255.206 69.3333 255.598 69.3333C255.99 69.3333 256.325 69.4668 256.604 69.7339C256.888 70.0009 257.03 70.3219 257.03 70.6969C257.03 71.0719 256.888 71.393 256.604 71.66C256.325 71.9271 255.99 72.0606 255.598 72.0606ZM265.555 92.5151C264.583 92.5151 263.748 92.3901 263.049 92.1401C262.35 91.8958 261.768 91.5719 261.302 91.1685C260.842 90.7708 260.475 90.3447 260.202 89.8901L261.805 88.7651C261.987 89.0038 262.217 89.2765 262.495 89.5833C262.773 89.8958 263.154 90.1657 263.637 90.393C264.126 90.6259 264.765 90.7424 265.555 90.7424C266.612 90.7424 267.484 90.4867 268.171 89.9754C268.859 89.464 269.202 88.6629 269.202 87.5719V84.9129H269.032C268.884 85.1515 268.674 85.4469 268.401 85.7992C268.134 86.1458 267.748 86.4555 267.242 86.7282C266.742 86.9952 266.066 87.1288 265.214 87.1288C264.157 87.1288 263.208 86.8788 262.367 86.3788C261.532 85.8788 260.87 85.1515 260.381 84.1969C259.898 83.2424 259.657 82.0833 259.657 80.7197C259.657 79.3788 259.893 78.2112 260.364 77.2168C260.836 76.2168 261.492 75.4441 262.333 74.8987C263.174 74.3475 264.146 74.0719 265.248 74.0719C266.1 74.0719 266.776 74.214 267.276 74.4981C267.782 74.7765 268.168 75.0947 268.435 75.4526C268.708 75.8049 268.918 76.0947 269.066 76.3219H269.271V74.2424H271.214V87.7083C271.214 88.8333 270.958 89.7481 270.447 90.4526C269.941 91.1629 269.259 91.6827 268.401 92.0123C267.549 92.3475 266.6 92.5151 265.555 92.5151ZM265.487 85.3219C266.293 85.3219 266.975 85.1373 267.532 84.768C268.089 84.3987 268.512 83.8674 268.802 83.1742C269.092 82.481 269.237 81.6515 269.237 80.6856C269.237 79.7424 269.094 78.91 268.81 78.1884C268.526 77.4668 268.106 76.9015 267.549 76.4924C266.992 76.0833 266.305 75.8788 265.487 75.8788C264.634 75.8788 263.924 76.0947 263.356 76.5265C262.793 76.9583 262.37 77.5379 262.086 78.2651C261.808 78.9924 261.668 79.7992 261.668 80.6856C261.668 81.5947 261.81 82.3987 262.094 83.0975C262.384 83.7907 262.81 84.3362 263.373 84.7339C263.941 85.1259 264.646 85.3219 265.487 85.3219ZM276.907 79.4583V87.3333H274.896V69.8788H276.907V76.2879H277.077C277.384 75.6117 277.844 75.0748 278.458 74.6771C279.077 74.2737 279.901 74.0719 280.93 74.0719C281.822 74.0719 282.603 74.2509 283.273 74.6089C283.944 74.9612 284.464 75.5038 284.833 76.2367C285.208 76.964 285.396 77.8901 285.396 79.0151V87.3333H283.384V79.1515C283.384 78.1117 283.114 77.3077 282.575 76.7396C282.04 76.1657 281.299 75.8788 280.35 75.8788C279.691 75.8788 279.1 76.018 278.577 76.2964C278.06 76.5748 277.651 76.981 277.35 77.5151C277.055 78.0492 276.907 78.6969 276.907 79.4583ZM294.768 74.2424V75.9469H287.984V74.2424H294.768ZM289.962 71.106H291.973V83.5833C291.973 84.1515 292.055 84.5776 292.22 84.8617C292.391 85.1401 292.607 85.3276 292.868 85.4242C293.135 85.5151 293.416 85.5606 293.712 85.5606C293.933 85.5606 294.115 85.5492 294.257 85.5265C294.399 85.4981 294.513 85.4754 294.598 85.4583L295.007 87.2651C294.871 87.3163 294.68 87.3674 294.436 87.4185C294.192 87.4754 293.882 87.5038 293.507 87.5038C292.939 87.5038 292.382 87.3816 291.837 87.1373C291.297 86.893 290.848 86.5208 290.49 86.0208C290.138 85.5208 289.962 84.8901 289.962 84.1288V71.106ZM299.805 79.4583V87.3333H297.794V74.2424H299.737V76.2879H299.908C300.214 75.6231 300.68 75.089 301.305 74.6856C301.93 74.2765 302.737 74.0719 303.726 74.0719C304.612 74.0719 305.388 74.2538 306.053 74.6174C306.717 74.9754 307.234 75.5208 307.604 76.2538C307.973 76.981 308.158 77.9015 308.158 79.0151V87.3333H306.146V79.1515C306.146 78.1231 305.879 77.3219 305.345 76.7481C304.811 76.1685 304.078 75.8788 303.146 75.8788C302.504 75.8788 301.93 76.018 301.425 76.2964C300.925 76.5748 300.53 76.981 300.24 77.5151C299.95 78.0492 299.805 78.6969 299.805 79.4583ZM311.833 87.3333V74.2424H313.844V87.3333H311.833ZM312.856 72.0606C312.464 72.0606 312.126 71.9271 311.842 71.66C311.563 71.393 311.424 71.0719 311.424 70.6969C311.424 70.3219 311.563 70.0009 311.842 69.7339C312.126 69.4668 312.464 69.3333 312.856 69.3333C313.248 69.3333 313.583 69.4668 313.862 69.7339C314.146 70.0009 314.288 70.3219 314.288 70.6969C314.288 71.0719 314.146 71.393 313.862 71.66C313.583 71.9271 313.248 72.0606 312.856 72.0606ZM319.54 79.4583V87.3333H317.528V74.2424H319.472V76.2879H319.642C319.949 75.6231 320.415 75.089 321.04 74.6856C321.665 74.2765 322.472 74.0719 323.46 74.0719C324.347 74.0719 325.122 74.2538 325.787 74.6174C326.452 74.9754 326.969 75.5208 327.338 76.2538C327.707 76.981 327.892 77.9015 327.892 79.0151V87.3333H325.881V79.1515C325.881 78.1231 325.614 77.3219 325.08 76.7481C324.545 76.1685 323.813 75.8788 322.881 75.8788C322.239 75.8788 321.665 76.018 321.159 76.2964C320.659 76.5748 320.264 76.981 319.974 77.5151C319.685 78.0492 319.54 78.6969 319.54 79.4583ZM336.852 92.5151C335.88 92.5151 335.045 92.3901 334.346 92.1401C333.647 91.8958 333.065 91.5719 332.599 91.1685C332.138 90.7708 331.772 90.3447 331.499 89.8901L333.102 88.7651C333.283 89.0038 333.513 89.2765 333.792 89.5833C334.07 89.8958 334.451 90.1657 334.934 90.393C335.423 90.6259 336.062 90.7424 336.852 90.7424C337.908 90.7424 338.781 90.4867 339.468 89.9754C340.156 89.464 340.499 88.6629 340.499 87.5719V84.9129H340.329C340.181 85.1515 339.971 85.4469 339.698 85.7992C339.431 86.1458 339.045 86.4555 338.539 86.7282C338.039 86.9952 337.363 87.1288 336.511 87.1288C335.454 87.1288 334.505 86.8788 333.664 86.3788C332.829 85.8788 332.167 85.1515 331.678 84.1969C331.195 83.2424 330.954 82.0833 330.954 80.7197C330.954 79.3788 331.19 78.2112 331.661 77.2168C332.133 76.2168 332.789 75.4441 333.63 74.8987C334.471 74.3475 335.442 74.0719 336.545 74.0719C337.397 74.0719 338.073 74.214 338.573 74.4981C339.079 74.7765 339.465 75.0947 339.732 75.4526C340.005 75.8049 340.215 76.0947 340.363 76.3219H340.567V74.2424H342.511V87.7083C342.511 88.8333 342.255 89.7481 341.744 90.4526C341.238 91.1629 340.556 91.6827 339.698 92.0123C338.846 92.3475 337.897 92.5151 336.852 92.5151ZM336.783 85.3219C337.59 85.3219 338.272 85.1373 338.829 84.768C339.386 84.3987 339.809 83.8674 340.099 83.1742C340.388 82.481 340.533 81.6515 340.533 80.6856C340.533 79.7424 340.391 78.91 340.107 78.1884C339.823 77.4668 339.403 76.9015 338.846 76.4924C338.289 76.0833 337.602 75.8788 336.783 75.8788C335.931 75.8788 335.221 76.0947 334.653 76.5265C334.09 76.9583 333.667 77.5379 333.383 78.2651C333.104 78.9924 332.965 79.7992 332.965 80.6856C332.965 81.5947 333.107 82.3987 333.391 83.0975C333.681 83.7907 334.107 84.3362 334.67 84.7339C335.238 85.1259 335.942 85.3219 336.783 85.3219ZM353.931 87.3333H351.715L358.124 69.8788H360.306L366.715 87.3333H364.499L359.283 72.6401H359.147L353.931 87.3333ZM354.749 80.5151H363.681V82.3901H354.749V80.5151ZM371.548 69.8788V87.3333H369.434V69.8788H371.548Z" fill="#4F4F4F"/>
<defs>
<linearGradient id="paint0_linear_402_223" x1="62.0319" y1="31.47" x2="-41.4197" y2="127.081" gradientUnits="userSpaceOnUse">
<stop stop-color="#792EE5"/>
<stop offset="1" stop-color="#428FF4"/>
</linearGradient>
<linearGradient id="paint1_linear_402_223" x1="70.3623" y1="14.1559" x2="8.93006" y2="87.2185" gradientUnits="userSpaceOnUse">
<stop stop-color="#792EE5"/>
<stop offset="1" stop-color="#428FF4"/>
</linearGradient>
<clipPath id="clip0_402_223">
<rect width="86.6667" height="100" fill="white" transform="translate(0.0118408 0.719604)"/>
</clipPath>
<clipPath id="clip1_402_223">
<rect width="40" height="40" fill="white" transform="translate(23.3452 30.7196)"/>
</clipPath>
</defs>
</svg>
