<svg width="190" height="224" viewBox="0 0 190 224" fill="none" xmlns="http://www.w3.org/2000/svg">
    <path d="M49 45H140V178H49V45Z" fill="white" style="fill:white;fill-opacity:1;"/>
    <path fill-rule="evenodd" clip-rule="evenodd" d="M4.15017 52.8599L90.8403 1.15054C92.1062 0.39671 93.5424 0 95.0042 0C96.466 0 97.902 0.39671 99.168 1.15054L185.858 52.8599C187.12 53.6146 188.168 54.6979 188.896 56.0013C189.624 57.3048 190.008 58.7826 190.008 60.2871V163.72C190.008 165.224 189.624 166.702 188.896 168.006C188.168 169.309 187.12 170.392 185.858 171.147L99.168 222.849C97.902 223.603 96.466 224 95.0042 224C93.5424 224 92.1062 223.603 90.8403 222.849L4.15017 171.147C2.8883 170.392 1.84074 169.309 1.11239 168.006C0.384038 166.702 0.000470848 165.224 0 163.72V60.2871C0.000470848 58.7826 0.384038 57.3048 1.11239 56.0013C1.84074 54.6979 2.8883 53.6146 4.15017 52.8599ZM87.0431 128.391L76.7496 173.616H76.7154C76.6255 174.026 76.6663 174.455 76.8317 174.839C76.9972 175.223 77.2786 175.541 77.6338 175.747C77.989 175.953 78.3992 176.035 78.8032 175.981C79.2072 175.926 79.5833 175.739 79.8758 175.447L128.497 125.371C128.676 125.19 128.818 124.974 128.915 124.736C129.012 124.498 129.062 124.242 129.062 123.984C129.062 123.726 129.012 123.47 128.915 123.232C128.818 122.994 128.676 122.778 128.497 122.597L103.692 97.633C103.457 97.3991 103.285 97.1057 103.194 96.7821C103.103 96.4584 103.096 96.1158 103.173 95.7884L113.48 50.4505C113.576 50.0385 113.538 49.6054 113.373 49.2175C113.208 48.8295 112.925 48.5078 112.566 48.3014C112.208 48.0949 111.793 48.015 111.386 48.0738C110.98 48.1326 110.603 48.3269 110.313 48.6271L61.5276 98.6679C61.3487 98.8494 61.2065 99.0658 61.1095 99.3045C61.0125 99.5432 60.9625 99.7994 60.9625 100.058C60.9625 100.317 61.0125 100.573 61.1095 100.812C61.2065 101.051 61.3487 101.267 61.5276 101.449L86.5245 126.546C86.7568 126.782 86.9264 127.076 87.0172 127.399C87.1081 127.722 87.1169 128.063 87.0431 128.391Z" fill="url(#paint0_linear_1112_9081)" style=""/>
    <defs>
        <linearGradient id="paint0_linear_1112_9081" x1="135.98" y1="68.835" x2="-95.3662" y2="278.015" gradientUnits="userSpaceOnUse">
            <stop stop-color="#792EE5" style="stop-color:#792EE5;stop-color:color(display-p3 0.4745 0.1804 0.8980);stop-opacity:1;"/>
            <stop offset="1" stop-color="#428FF4" style="stop-color:#428FF4;stop-color:color(display-p3 0.2588 0.5608 0.9569);stop-opacity:1;"/>
            <stop offset="1" stop-color="#428FF4" style="stop-color:#428FF4;stop-color:color(display-p3 0.2588 0.5608 0.9569);stop-opacity:1;"/>
            <stop offset="1.0001" stop-color="#3EABB3" style="stop-color:#3EABB3;stop-color:color(display-p3 0.2431 0.6706 0.7020);stop-opacity:1;"/>
        </linearGradient>
    </defs>
</svg>
