<svg width="220" height="32" viewBox="0 0 220 32" fill="none" xmlns="http://www.w3.org/2000/svg">
<g clip-path="url(#clip0_55_54)">
<path d="M13.2241 0.189648L0.562339 7.57426C0.374757 7.66894 0.280967 7.85829 0.0933852 8.04764C0.0169982 8.22652 -0.0151889 8.42146 -0.000405859 8.61568V23.3849C0.0190215 23.5861 0.0831395 23.7803 0.187176 23.953C0.293313 24.1544 0.456605 24.3192 0.65613 24.4263L13.2241 31.8109C13.3864 31.9339 13.5839 32.0003 13.7868 32.0003C13.9898 32.0003 14.1872 31.9339 14.3496 31.8109L26.9175 24.4263C27.117 24.3192 27.2803 24.1544 27.3865 23.953C27.4905 23.7803 27.5546 23.5861 27.5741 23.3849V8.62515C27.5546 8.42397 27.4905 8.22981 27.3865 8.0571C27.2803 7.8557 27.117 7.69087 26.9175 7.58373L14.3496 0.199115C14.1785 0.0940982 13.9861 0.029376 13.7868 0.00976562C13.5883 0.026482 13.396 0.0879527 13.2241 0.189648Z" fill="url(#paint0_linear_55_54)"/>
<g clip-path="url(#clip1_55_54)">
<path d="M15.9818 18.5514C15.9802 18.5514 15.9792 18.5498 15.9799 18.5485C16.1727 18.152 16.3881 17.7663 16.6193 17.3584C16.8076 17.0261 16.9898 16.7 17.1736 16.3527C17.2102 16.2833 17.2684 16.228 17.3393 16.1951C17.4102 16.1622 17.4898 16.1536 17.566 16.1706C18.2942 16.334 19.0368 16.4236 19.7827 16.4384C19.8302 16.4394 19.8774 16.4309 19.9217 16.4133C19.9659 16.3958 20.0062 16.3695 20.0402 16.3361C20.0742 16.3027 20.1012 16.2628 20.1197 16.2188C20.1382 16.1747 20.1478 16.1274 20.1479 16.0796V14.9674C20.1477 14.8733 20.1108 14.7831 20.0452 14.716C19.9795 14.649 19.8904 14.6106 19.7969 14.609C19.3429 14.5981 18.8903 14.5554 18.4422 14.4812C18.3919 14.4726 18.344 14.4532 18.3018 14.4244C18.2595 14.3956 18.2239 14.358 18.1973 14.3142C18.1707 14.2704 18.1537 14.2214 18.1475 14.1704C18.1413 14.1195 18.1461 14.0678 18.1614 14.0188C18.5666 12.7038 18.7779 11.3362 18.7888 9.95961C18.789 9.91236 18.7798 9.86554 18.762 9.82184C18.7441 9.77814 18.7178 9.73843 18.6846 9.70498C18.6514 9.67153 18.612 9.645 18.5686 9.62692C18.5252 9.60884 18.4787 9.59956 18.4317 9.59961H17.3254C17.2315 9.59993 17.1415 9.63756 17.0751 9.70431C17.0086 9.77105 16.9711 9.86149 16.9707 9.95594C16.9601 11.1176 16.7859 12.272 16.4533 13.3845C16.4382 13.4353 16.412 13.4821 16.3768 13.5215C16.3415 13.561 16.298 13.592 16.2494 13.6125C16.2008 13.633 16.1482 13.6424 16.0955 13.64C16.0429 13.6377 15.9914 13.6236 15.9448 13.5988C15.679 13.4576 15.4131 13.3065 15.1372 13.1498C14.8068 12.9604 14.4822 12.7772 14.1372 12.5927C14.0682 12.5558 14.0132 12.4972 13.9805 12.4258C13.9478 12.3544 13.9393 12.2743 13.9562 12.1976C14.1186 11.4654 14.2078 10.7186 14.2225 9.96859C14.2234 9.9208 14.2149 9.8733 14.1974 9.82885C14.18 9.7844 14.1539 9.7439 14.1207 9.7097C14.0875 9.67551 14.0478 9.64831 14.004 9.62969C13.9603 9.61106 13.9133 9.60139 13.8657 9.60124H12.7599C12.6663 9.60155 12.5766 9.63873 12.51 9.70482C12.4433 9.7709 12.4051 9.86062 12.4035 9.95471C12.3925 10.4111 12.3501 10.8662 12.2765 11.3168C12.2679 11.3674 12.2487 11.4155 12.22 11.458C12.1914 11.5005 12.154 11.5363 12.1105 11.5631C12.0669 11.5898 12.0181 11.6069 11.9675 11.6131C11.9168 11.6194 11.8654 11.6146 11.8167 11.5992C10.5092 11.1924 9.14943 10.9805 7.78079 10.9702C7.73383 10.97 7.68729 10.9791 7.64384 10.9971C7.6004 11.015 7.56091 11.0414 7.52764 11.0748C7.49438 11.1081 7.468 11.1477 7.45001 11.1914C7.43203 11.235 7.4228 11.2818 7.42285 11.329V12.4421C7.42317 12.5365 7.46059 12.627 7.52695 12.6938C7.59331 12.7606 7.68324 12.7984 7.77714 12.7988C8.93217 12.8093 10.0799 12.9843 11.1861 13.3188C11.2366 13.334 11.2831 13.3603 11.3223 13.3957C11.3615 13.4312 11.3924 13.4749 11.4128 13.5238C11.4332 13.5727 11.4426 13.6256 11.4403 13.6785C11.438 13.7315 11.4241 13.7833 11.3995 13.8302C11.2591 14.0976 11.109 14.3649 10.9531 14.6429C10.7648 14.9751 10.5826 15.3012 10.3992 15.6482C10.3626 15.7176 10.3043 15.773 10.2333 15.8059C10.1623 15.8388 10.0826 15.8473 10.0063 15.8302C9.2783 15.6671 8.53587 15.5775 7.79012 15.5629C7.74263 15.5618 7.69541 15.5703 7.65122 15.5879C7.60702 15.6054 7.56675 15.6316 7.53275 15.665C7.49874 15.6984 7.47169 15.7382 7.45317 15.7822C7.43465 15.8262 7.42503 15.8735 7.42488 15.9212V17.0335C7.42529 17.1276 7.46228 17.2178 7.52795 17.2849C7.59363 17.3519 7.68277 17.3905 7.77633 17.3923C8.23015 17.403 8.68267 17.4457 9.13056 17.52C9.18086 17.5286 9.22875 17.5479 9.27099 17.5767C9.31324 17.6055 9.34887 17.643 9.37548 17.6868C9.40209 17.7306 9.41906 17.7796 9.42526 17.8305C9.43145 17.8814 9.42673 17.9331 9.4114 17.9821C9.00665 19.2971 8.79568 20.6647 8.78521 22.0412C8.78505 22.0885 8.79417 22.1353 8.81205 22.179C8.82993 22.2227 8.85622 22.2624 8.8894 22.2959C8.92258 22.3293 8.96201 22.3559 9.00542 22.3739C9.04882 22.392 9.09535 22.4013 9.14233 22.4012H10.2486C10.3425 22.401 10.4324 22.3635 10.4989 22.2968C10.5653 22.2301 10.6029 22.1397 10.6033 22.0453C10.6139 20.8836 10.7881 19.7293 11.1207 18.6168C11.1359 18.566 11.1621 18.5193 11.1974 18.4799C11.2326 18.4405 11.2761 18.4094 11.3247 18.3889C11.3733 18.3684 11.4258 18.3589 11.4784 18.3612C11.5311 18.3635 11.5826 18.3774 11.6292 18.4021C11.895 18.5437 12.1609 18.6943 12.4368 18.851C12.7672 19.0404 13.0918 19.2237 13.4368 19.4086C13.5058 19.4453 13.5609 19.5039 13.5936 19.5752C13.6263 19.6465 13.6348 19.7266 13.6178 19.8033C13.4555 20.5357 13.3665 21.2825 13.352 22.0327C13.3509 22.0804 13.3594 22.1279 13.3768 22.1724C13.3942 22.2168 13.4203 22.2573 13.4535 22.2915C13.4867 22.3257 13.5263 22.3529 13.57 22.3716C13.6138 22.3902 13.6608 22.3999 13.7083 22.4H14.8141C14.9077 22.3997 14.9974 22.3626 15.0641 22.2966C15.1307 22.2306 15.1691 22.141 15.1709 22.047C15.1815 21.5904 15.2239 21.1351 15.2979 20.6845C15.3064 20.6339 15.3256 20.5858 15.3542 20.5433C15.3829 20.5008 15.4202 20.465 15.4637 20.4383C15.5073 20.4115 15.556 20.3945 15.6066 20.3883C15.6573 20.3822 15.7087 20.387 15.7573 20.4025C17.0649 20.8089 18.4246 21.0207 19.7932 21.031C19.8402 21.0313 19.8867 21.0221 19.9302 21.0042C19.9736 20.9863 20.0131 20.9599 20.0464 20.9265C20.0796 20.8932 20.106 20.8535 20.124 20.8099C20.142 20.7663 20.1512 20.7195 20.1512 20.6723V19.5592C20.1509 19.4647 20.1136 19.3742 20.0472 19.3073C19.9808 19.2405 19.8908 19.2028 19.7969 19.2025C18.4991 19.1904 17.2115 18.9707 15.9824 18.5516C15.9822 18.5515 15.982 18.5514 15.9818 18.5514V18.5514ZM15.0406 16.4576C15.0401 16.4576 15.0396 16.4578 15.0394 16.4583C14.8468 16.7993 14.6578 17.1362 14.4789 17.4849C14.4571 17.5272 14.4271 17.5648 14.3906 17.5953C14.3542 17.6258 14.312 17.6486 14.2667 17.6626C14.2213 17.6765 14.1736 17.6811 14.1265 17.6763C14.0793 17.6714 14.0336 17.6572 13.9919 17.6343C13.77 17.5119 13.552 17.3894 13.3361 17.2645C12.9969 17.0706 12.6621 16.8804 12.3147 16.7004C12.2726 16.6784 12.2353 16.6482 12.205 16.6116C12.1746 16.5749 12.1519 16.5325 12.1381 16.4869C12.1242 16.4413 12.1196 16.3934 12.1244 16.3459C12.1292 16.2985 12.1434 16.2525 12.1661 16.2106C12.2879 15.9874 12.4096 15.7682 12.5338 15.551C12.727 15.2102 12.9161 14.8731 13.0951 14.5237C13.1169 14.4813 13.1469 14.4438 13.1833 14.4132C13.2198 14.3827 13.2619 14.3598 13.3073 14.3459C13.3527 14.332 13.4003 14.3273 13.4475 14.3322C13.4947 14.3371 13.5405 14.3514 13.5821 14.3743C13.804 14.4968 14.022 14.6192 14.2379 14.7441C14.5767 14.938 14.9115 15.1282 15.2585 15.3082C15.3006 15.3302 15.3379 15.3604 15.3682 15.397C15.3985 15.4337 15.4213 15.4761 15.4351 15.5217C15.4489 15.5674 15.4535 15.6153 15.4486 15.6627C15.4437 15.7102 15.4294 15.7562 15.4067 15.798C15.2887 16.0194 15.1638 16.2379 15.0418 16.4569C15.0416 16.4573 15.0411 16.4576 15.0406 16.4576V16.4576Z" fill="white"/>
</g>
</g>
<path d="M37.0915 24.5V7.04545H40.7818V21.4574H48.2648V24.5H37.0915ZM50.1605 24.5V11.4091H53.7912V24.5H50.1605ZM51.9844 9.72159C51.4446 9.72159 50.9815 9.54261 50.5952 9.18466C50.2145 8.82102 50.0242 8.38636 50.0242 7.88068C50.0242 7.38068 50.2145 6.9517 50.5952 6.59375C50.9815 6.23011 51.4446 6.04829 51.9844 6.04829C52.5242 6.04829 52.9844 6.23011 53.3651 6.59375C53.7514 6.9517 53.9446 7.38068 53.9446 7.88068C53.9446 8.38636 53.7514 8.82102 53.3651 9.18466C52.9844 9.54261 52.5242 9.72159 51.9844 9.72159ZM62.1173 29.6818C60.9412 29.6818 59.9326 29.5199 59.0917 29.196C58.2565 28.8778 57.5917 28.4432 57.0974 27.892C56.6031 27.3409 56.2821 26.7216 56.1344 26.0341L59.4923 25.5824C59.5946 25.8438 59.7565 26.0881 59.9781 26.3153C60.1997 26.5426 60.4923 26.7244 60.8559 26.8608C61.2253 27.0028 61.6741 27.0739 62.2025 27.0739C62.9923 27.0739 63.6429 26.8807 64.1542 26.4943C64.6713 26.1136 64.9298 25.4744 64.9298 24.5767V22.1818H64.7764C64.6173 22.5455 64.3787 22.8892 64.0605 23.2131C63.7423 23.5369 63.3332 23.8011 62.8332 24.0057C62.3332 24.2102 61.7366 24.3125 61.0434 24.3125C60.0605 24.3125 59.1656 24.0852 58.3588 23.6307C57.5576 23.1705 56.9184 22.4687 56.4412 21.5256C55.9696 20.5767 55.7338 19.3778 55.7338 17.929C55.7338 16.446 55.9753 15.2074 56.4582 14.2131C56.9412 13.2187 57.5832 12.4744 58.3844 11.9801C59.1912 11.4858 60.0747 11.2386 61.0349 11.2386C61.7679 11.2386 62.3815 11.3636 62.8758 11.6136C63.3701 11.858 63.7679 12.1648 64.069 12.5341C64.3758 12.8977 64.6116 13.2557 64.7764 13.608H64.9128V11.4091H68.5179V24.6278C68.5179 25.7415 68.2451 26.6733 67.6997 27.4233C67.1542 28.1733 66.3986 28.7358 65.4326 29.1108C64.4724 29.4915 63.3673 29.6818 62.1173 29.6818ZM62.194 21.5852C62.7792 21.5852 63.2736 21.4403 63.677 21.1506C64.0861 20.8551 64.3986 20.4347 64.6145 19.8892C64.8361 19.3381 64.9469 18.679 64.9469 17.9119C64.9469 17.1449 64.8389 16.4801 64.623 15.9176C64.4071 15.3494 64.0946 14.9091 63.6855 14.5966C63.2764 14.2841 62.7792 14.1278 62.194 14.1278C61.5974 14.1278 61.0946 14.2898 60.6855 14.6136C60.2764 14.9318 59.9667 15.375 59.7565 15.9432C59.5463 16.5114 59.4412 17.1676 59.4412 17.9119C59.4412 18.6676 59.5463 19.321 59.7565 19.8722C59.9724 20.4176 60.2821 20.8409 60.6855 21.142C61.0946 21.4375 61.5974 21.5852 62.194 21.5852ZM74.5578 16.9318V24.5H70.9271V7.04545H74.4555V13.7188H74.6089C74.9044 12.946 75.3816 12.3409 76.0407 11.9034C76.6998 11.4602 77.5265 11.2386 78.5208 11.2386C79.4299 11.2386 80.2225 11.4375 80.8987 11.8352C81.5805 12.2273 82.1089 12.7926 82.4839 13.5312C82.8646 14.2642 83.0521 15.142 83.0464 16.1648V24.5H79.4157V16.8125C79.4214 16.0057 79.2169 15.3778 78.8021 14.929C78.393 14.4801 77.8191 14.2557 77.0805 14.2557C76.5862 14.2557 76.1487 14.3608 75.768 14.571C75.393 14.7812 75.0975 15.0881 74.8816 15.4915C74.6714 15.8892 74.5634 16.3693 74.5578 16.9318ZM92.3867 11.4091V14.1364H84.5032V11.4091H92.3867ZM86.293 8.27273H89.9236V20.4773C89.9236 20.8125 89.9748 21.0739 90.0771 21.2614C90.1793 21.4432 90.3214 21.571 90.5032 21.6449C90.6907 21.7187 90.9066 21.7557 91.1509 21.7557C91.3214 21.7557 91.4918 21.7415 91.6623 21.7131C91.8327 21.679 91.9634 21.6534 92.0543 21.6364L92.6253 24.3381C92.4435 24.3949 92.1878 24.4602 91.8583 24.5341C91.5288 24.6136 91.1282 24.6619 90.6566 24.679C89.7816 24.7131 89.0146 24.5966 88.3555 24.3295C87.7021 24.0625 87.1935 23.6477 86.8299 23.0852C86.4663 22.5227 86.2873 21.8125 86.293 20.9545V8.27273ZM97.9024 16.9318V24.5H94.2718V11.4091H97.732V13.7188H97.8854C98.1752 12.9574 98.661 12.3551 99.3428 11.9119C100.025 11.4631 100.851 11.2386 101.823 11.2386C102.732 11.2386 103.525 11.4375 104.201 11.8352C104.877 12.233 105.402 12.8011 105.777 13.5398C106.152 14.2727 106.34 15.1477 106.34 16.1648V24.5H102.709V16.8125C102.715 16.0114 102.51 15.3864 102.096 14.9375C101.681 14.483 101.11 14.2557 100.383 14.2557C99.8939 14.2557 99.4621 14.3608 99.0871 14.571C98.7178 14.7812 98.428 15.0881 98.2178 15.4915C98.0132 15.8892 97.9081 16.3693 97.9024 16.9318ZM108.721 24.5V11.4091H112.352V24.5H108.721ZM110.545 9.72159C110.006 9.72159 109.542 9.54261 109.156 9.18466C108.775 8.82102 108.585 8.38636 108.585 7.88068C108.585 7.38068 108.775 6.9517 109.156 6.59375C109.542 6.23011 110.006 6.04829 110.545 6.04829C111.085 6.04829 111.545 6.23011 111.926 6.59375C112.312 6.9517 112.506 7.38068 112.506 7.88068C112.506 8.38636 112.312 8.82102 111.926 9.18466C111.545 9.54261 111.085 9.72159 110.545 9.72159ZM118.411 16.9318V24.5H114.781V11.4091H118.241V13.7188H118.394C118.684 12.9574 119.17 12.3551 119.852 11.9119C120.533 11.4631 121.36 11.2386 122.332 11.2386C123.241 11.2386 124.033 11.4375 124.709 11.8352C125.386 12.233 125.911 12.8011 126.286 13.5398C126.661 14.2727 126.849 15.1477 126.849 16.1648V24.5H123.218V16.8125C123.224 16.0114 123.019 15.3864 122.604 14.9375C122.19 14.483 121.619 14.2557 120.891 14.2557C120.403 14.2557 119.971 14.3608 119.596 14.571C119.227 14.7812 118.937 15.0881 118.727 15.4915C118.522 15.8892 118.417 16.3693 118.411 16.9318ZM135.128 29.6818C133.952 29.6818 132.943 29.5199 132.102 29.196C131.267 28.8778 130.602 28.4432 130.108 27.892C129.614 27.3409 129.293 26.7216 129.145 26.0341L132.503 25.5824C132.605 25.8438 132.767 26.0881 132.989 26.3153C133.21 26.5426 133.503 26.7244 133.867 26.8608C134.236 27.0028 134.685 27.0739 135.213 27.0739C136.003 27.0739 136.654 26.8807 137.165 26.4943C137.682 26.1136 137.94 25.4744 137.94 24.5767V22.1818H137.787C137.628 22.5455 137.389 22.8892 137.071 23.2131C136.753 23.5369 136.344 23.8011 135.844 24.0057C135.344 24.2102 134.747 24.3125 134.054 24.3125C133.071 24.3125 132.176 24.0852 131.369 23.6307C130.568 23.1705 129.929 22.4687 129.452 21.5256C128.98 20.5767 128.744 19.3778 128.744 17.929C128.744 16.446 128.986 15.2074 129.469 14.2131C129.952 13.2187 130.594 12.4744 131.395 11.9801C132.202 11.4858 133.085 11.2386 134.046 11.2386C134.779 11.2386 135.392 11.3636 135.886 11.6136C136.381 11.858 136.779 12.1648 137.08 12.5341C137.386 12.8977 137.622 13.2557 137.787 13.608H137.923V11.4091H141.529V24.6278C141.529 25.7415 141.256 26.6733 140.71 27.4233C140.165 28.1733 139.409 28.7358 138.443 29.1108C137.483 29.4915 136.378 29.6818 135.128 29.6818ZM135.205 21.5852C135.79 21.5852 136.284 21.4403 136.688 21.1506C137.097 20.8551 137.409 20.4347 137.625 19.8892C137.847 19.3381 137.957 18.679 137.957 17.9119C137.957 17.1449 137.85 16.4801 137.634 15.9176C137.418 15.3494 137.105 14.9091 136.696 14.5966C136.287 14.2841 135.79 14.1278 135.205 14.1278C134.608 14.1278 134.105 14.2898 133.696 14.6136C133.287 14.9318 132.977 15.375 132.767 15.9432C132.557 16.5114 132.452 17.1676 132.452 17.9119C132.452 18.6676 132.557 19.321 132.767 19.8722C132.983 20.4176 133.293 20.8409 133.696 21.142C134.105 21.4375 134.608 21.5852 135.205 21.5852ZM149.081 24.5V7.04545H160.637V10.0881H152.771V14.2472H159.87V17.2898H152.771V24.5H149.081ZM166.14 24.7472C165.305 24.7472 164.561 24.6023 163.907 24.3125C163.254 24.017 162.737 23.5824 162.356 23.0085C161.981 22.429 161.794 21.7074 161.794 20.8438C161.794 20.1165 161.927 19.5057 162.194 19.0114C162.461 18.517 162.825 18.1193 163.285 17.8182C163.745 17.517 164.268 17.2898 164.853 17.1364C165.444 16.983 166.064 16.875 166.711 16.8125C167.473 16.733 168.086 16.6591 168.552 16.5909C169.018 16.517 169.356 16.4091 169.566 16.267C169.777 16.125 169.882 15.9148 169.882 15.6364V15.5852C169.882 15.0455 169.711 14.6278 169.37 14.3324C169.035 14.0369 168.558 13.8892 167.939 13.8892C167.285 13.8892 166.765 14.0341 166.379 14.3239C165.993 14.608 165.737 14.9659 165.612 15.3977L162.254 15.125C162.424 14.3295 162.76 13.642 163.26 13.0625C163.76 12.4773 164.405 12.0284 165.194 11.7159C165.99 11.3977 166.91 11.2386 167.956 11.2386C168.683 11.2386 169.379 11.3239 170.044 11.4943C170.714 11.6648 171.308 11.929 171.825 12.2869C172.348 12.6449 172.76 13.1051 173.061 13.6676C173.362 14.2244 173.513 14.892 173.513 15.6705V24.5H170.069V22.6847H169.967C169.757 23.0938 169.476 23.4545 169.123 23.767C168.771 24.0739 168.348 24.3153 167.853 24.4915C167.359 24.6619 166.788 24.7472 166.14 24.7472ZM167.18 22.2415C167.714 22.2415 168.186 22.1364 168.595 21.9261C169.004 21.7102 169.325 21.4205 169.558 21.0568C169.791 20.6932 169.907 20.2812 169.907 19.821V18.4318C169.794 18.5057 169.638 18.5739 169.439 18.6364C169.245 18.6932 169.027 18.7472 168.782 18.7983C168.538 18.8437 168.294 18.8864 168.049 18.9261C167.805 18.9602 167.584 18.9915 167.385 19.0199C166.959 19.0824 166.586 19.1818 166.268 19.3182C165.95 19.4545 165.703 19.6392 165.527 19.8722C165.351 20.0994 165.263 20.3835 165.263 20.7244C165.263 21.2188 165.441 21.5966 165.799 21.858C166.163 22.1136 166.623 22.2415 167.18 22.2415ZM175.917 24.5V7.04545H179.548V13.608H179.659C179.818 13.2557 180.048 12.8977 180.349 12.5341C180.656 12.1648 181.054 11.858 181.542 11.6136C182.037 11.3636 182.65 11.2386 183.383 11.2386C184.338 11.2386 185.219 11.4886 186.025 11.9886C186.832 12.483 187.477 13.2301 187.96 14.2301C188.443 15.2244 188.684 16.4716 188.684 17.9716C188.684 19.4318 188.449 20.6648 187.977 21.6705C187.511 22.6705 186.875 23.429 186.068 23.946C185.267 24.4574 184.369 24.7131 183.375 24.7131C182.67 24.7131 182.071 24.5966 181.577 24.3636C181.088 24.1307 180.687 23.8381 180.375 23.4858C180.062 23.1278 179.824 22.767 179.659 22.4034H179.497V24.5H175.917ZM179.471 17.9545C179.471 18.733 179.579 19.4119 179.795 19.9915C180.011 20.571 180.324 21.0227 180.733 21.3466C181.142 21.6648 181.639 21.8239 182.224 21.8239C182.815 21.8239 183.315 21.6619 183.724 21.3381C184.133 21.0085 184.443 20.554 184.653 19.9744C184.869 19.3892 184.977 18.7159 184.977 17.9545C184.977 17.1989 184.872 16.5341 184.662 15.9602C184.452 15.3864 184.142 14.9375 183.733 14.6136C183.324 14.2898 182.821 14.1278 182.224 14.1278C181.633 14.1278 181.133 14.2841 180.724 14.5966C180.321 14.9091 180.011 15.3523 179.795 15.9261C179.579 16.5 179.471 17.1761 179.471 17.9545ZM190.627 24.5V11.4091H194.147V13.6932H194.283C194.522 12.8807 194.923 12.267 195.485 11.8523C196.048 11.4318 196.695 11.2216 197.428 11.2216C197.61 11.2216 197.806 11.233 198.016 11.2557C198.227 11.2784 198.411 11.3097 198.57 11.3494V14.571C198.4 14.5199 198.164 14.4744 197.863 14.4347C197.562 14.3949 197.286 14.375 197.036 14.375C196.502 14.375 196.025 14.4915 195.604 14.7244C195.19 14.9517 194.86 15.2699 194.616 15.679C194.377 16.0881 194.258 16.5597 194.258 17.0938V24.5H190.627ZM199.967 24.5V11.4091H203.598V24.5H199.967ZM201.791 9.72159C201.251 9.72159 200.788 9.54261 200.402 9.18466C200.021 8.82102 199.831 8.38636 199.831 7.88068C199.831 7.38068 200.021 6.9517 200.402 6.59375C200.788 6.23011 201.251 6.04829 201.791 6.04829C202.331 6.04829 202.791 6.23011 203.172 6.59375C203.558 6.9517 203.751 7.38068 203.751 7.88068C203.751 8.38636 203.558 8.82102 203.172 9.18466C202.791 9.54261 202.331 9.72159 201.791 9.72159ZM211.941 24.7557C210.6 24.7557 209.447 24.4716 208.481 23.9034C207.521 23.3295 206.782 22.5341 206.265 21.517C205.754 20.5 205.498 19.3295 205.498 18.0057C205.498 16.6648 205.757 15.4886 206.274 14.4773C206.796 13.4602 207.538 12.6676 208.498 12.0994C209.458 11.5256 210.6 11.2386 211.924 11.2386C213.066 11.2386 214.066 11.446 214.924 11.8608C215.782 12.2756 216.461 12.858 216.961 13.608C217.461 14.358 217.737 15.2386 217.788 16.25H214.362C214.265 15.5966 214.009 15.071 213.595 14.6733C213.186 14.2699 212.649 14.0682 211.984 14.0682C211.421 14.0682 210.93 14.2216 210.509 14.5284C210.095 14.8295 209.771 15.2699 209.538 15.8494C209.305 16.429 209.188 17.1307 209.188 17.9545C209.188 18.7898 209.302 19.5 209.529 20.0852C209.762 20.6705 210.089 21.1165 210.509 21.4233C210.93 21.7301 211.421 21.8835 211.984 21.8835C212.399 21.8835 212.771 21.7983 213.1 21.6278C213.436 21.4574 213.711 21.2102 213.927 20.8864C214.149 20.5568 214.294 20.1619 214.362 19.7017H217.788C217.731 20.7017 217.458 21.5824 216.97 22.3438C216.487 23.0994 215.819 23.6903 214.967 24.1165C214.115 24.5426 213.106 24.7557 211.941 24.7557Z" fill="#1C1C1C"/>
<defs>
<linearGradient id="paint0_linear_55_54" x1="20.7925" y1="4.13201" x2="-6.14578" y2="49.8864" gradientUnits="userSpaceOnUse">
<stop stop-color="#792EE5"/>
<stop offset="1" stop-color="#3EABB3"/>
</linearGradient>
<clipPath id="clip0_55_54">
<rect width="27.5745" height="32" fill="white"/>
</clipPath>
<clipPath id="clip1_55_54">
<rect width="12.7267" height="12.8" fill="white" transform="translate(7.42383 9.59961)"/>
</clipPath>
</defs>
</svg>
