<svg width="224" height="224" viewBox="0 0 224 224" fill="none" xmlns="http://www.w3.org/2000/svg">
<path d="M107.705 1.15054L18.281 52.8599C16.9789 53.614 15.8979 54.6972 15.1465 56.0008C14.3951 57.3044 13.9998 58.7825 14 60.287V163.72C14.0005 165.224 14.3961 166.702 15.1475 168.005C15.8988 169.309 16.9794 170.392 18.281 171.147L107.705 222.849C109.011 223.603 110.492 224 112 224C113.508 224 114.989 223.603 116.295 222.849L205.719 171.147C207.021 170.392 208.101 169.309 208.853 168.005C209.604 166.702 210 165.224 210 163.72V60.287C210 58.7825 209.605 57.3044 208.853 56.0008C208.102 54.6972 207.021 53.614 205.719 52.8599L116.295 1.15054C114.989 0.39671 113.508 0 112 0C110.492 0 109.011 0.39671 107.705 1.15054ZM93.1295 173.569L103.748 128.336C103.824 128.009 103.814 127.668 103.719 127.346C103.624 127.024 103.447 126.732 103.206 126.499L77.4698 101.401C77.2798 101.219 77.1285 101 77.0252 100.758C76.9219 100.516 76.8688 100.256 76.8688 99.9932C76.8688 99.7301 76.9219 99.4697 77.0252 99.2277C77.1285 98.9857 77.2798 98.7672 77.4698 98.5852L127.794 48.5795C128.092 48.2793 128.481 48.0852 128.901 48.0264C129.321 47.9676 129.748 48.0475 130.118 48.254C130.488 48.4604 130.78 48.7821 130.95 49.1701C131.121 49.558 131.159 49.9911 131.061 50.4031L120.428 95.741C120.349 96.0684 120.356 96.4108 120.45 96.7345C120.544 97.0581 120.721 97.3513 120.964 97.5852L146.551 122.542C146.735 122.724 146.881 122.941 146.981 123.18C147.08 123.418 147.131 123.674 147.131 123.933C147.131 124.191 147.08 124.447 146.981 124.686C146.881 124.925 146.735 125.141 146.551 125.323L96.4036 175.371C96.1043 175.665 95.7181 175.855 95.3022 175.913C94.8863 175.97 94.463 175.891 94.0952 175.689C93.7275 175.487 93.4348 175.171 93.2608 174.789C93.0868 174.407 93.0408 173.979 93.1295 173.569Z" fill="url(#paint0_linear_1878_170388)"/>
<defs>
<linearGradient id="paint0_linear_1878_170388" x1="161.803" y1="28.8643" x2="-25.4475" y2="351.678" gradientUnits="userSpaceOnUse">
<stop stop-color="#792EE5"/>
<stop offset="1" stop-color="#3EABB3"/>
</linearGradient>
</defs>
</svg>
