<?xml version="1.0" encoding="UTF-8" standalone="no"?>
<svg
   xmlns:dc="http://purl.org/dc/elements/1.1/"
   xmlns:cc="http://creativecommons.org/ns#"
   xmlns:rdf="http://www.w3.org/1999/02/22-rdf-syntax-ns#"
   xmlns:svg="http://www.w3.org/2000/svg"
   xmlns="http://www.w3.org/2000/svg"
   xmlns:sodipodi="http://sodipodi.sourceforge.net/DTD/sodipodi-0.dtd"
   xmlns:inkscape="http://www.inkscape.org/namespaces/inkscape"
   width="230"
   height="40"
   viewBox="0 0 644.18524 111.87158"
   version="1.1"
   id="svg8"
   inkscape:version="1.0.1 (c497b03c, 2020-09-10)"
   sodipodi:docname="lightning_logo-name.svg">
  <defs
     id="defs2" />
  <sodipodi:namedview
     id="base"
     pagecolor="#ffffff"
     bordercolor="#666666"
     borderopacity="1.0"
     inkscape:pageopacity="0.0"
     inkscape:pageshadow="2"
     inkscape:zoom="0.49497475"
     inkscape:cx="864.07689"
     inkscape:cy="99.209138"
     inkscape:document-units="mm"
     inkscape:current-layer="layer1"
     inkscape:document-rotation="0"
     showgrid="false"
     fit-margin-top="0"
     fit-margin-left="0"
     fit-margin-right="0"
     fit-margin-bottom="0"
     inkscape:window-width="1252"
     inkscape:window-height="855"
     inkscape:window-x="2122"
     inkscape:window-y="375"
     inkscape:window-maximized="0" />
  <metadata
     id="metadata5">
    <rdf:RDF>
      <cc:Work
         rdf:about="">
        <dc:format>image/svg+xml</dc:format>
        <dc:type
           rdf:resource="http://purl.org/dc/dcmitype/StillImage" />
        <dc:title></dc:title>
      </cc:Work>
    </rdf:RDF>
  </metadata>
  <g
     inkscape:label="Layer 1"
     inkscape:groupmode="layer"
     id="layer1"
     transform="translate(249.78138,97.327999)">
    <path
       style="fill:#000000;stroke-width:0.352778"
       d="m -225.43199,0.55895061 -24.34939,-13.98462961 0.006,-28.04583 0.006,-28.04584 24.22089,-13.905326 c 13.32149,-7.647927 24.38793,-13.905324 24.5921,-13.905324 0.20418,0 11.20521,6.255432 24.44675,13.900963 l 24.0755,13.900967 -0.006,28.05019 -0.006,28.0502 -17.0154,9.7788296 c -9.35847,5.37836 -20.30146,11.67145 -24.31777,13.9846404 l -7.30236,4.20579 -24.34941,-13.98463039 z m 33.57732,-42.70861961 -5.7296,-5.56486 2.47977,-10.50854 c 1.36388,-5.77969 2.43384,-10.64633 2.3777,-10.81474 -0.0561,-0.16841 -5.26121,4.86201 -11.56683,11.17873 l -11.46477,11.48493 5.74064,5.53813 5.74065,5.53812 -2.47298,10.40694 c -1.36013,5.72382 -2.47498,10.64477 -2.47745,10.93544 -0.002,0.29067 5.19459,-4.68201 11.549,-11.05039 l 11.55347,-11.57889 z m 379.06783,39.6414296 c -2.39617,-0.58092 -5.64642,-2.18202 -7.24694,-3.5699 -0.77226,-0.66965 -1.54428,-1.98316 -2.34879,-3.9961496 l -1.19842,-2.99861 3.83596,-0.0996 3.83593,-0.0996 1.68783,1.7401 c 1.88334,1.9416496 3.36046,2.5155996 6.45037,2.5063996 4.51852,-0.0135 7.4,-2.9698096 7.40635,-7.5987396 l 0.004,-1.43485 -2.53651,1.25846 c -2.41674,1.19904 -2.70404,1.25737 -6.08541,1.23546 -2.78247,-0.018 -3.97493,-0.19042 -5.52157,-0.79821 -9.7517,-3.83226 -13.22854,-15.84776 -7.14266,-24.68418 1.61699,-2.34779 5.09965,-4.87714 7.92702,-5.75711 4.02414,-1.25246 8.97488,-0.73303 11.98228,1.25716 l 1.37685,0.91118 v -1.23973 -1.23973 h 3.88056 3.88055 l -0.004,16.66875 c -0.005,17.56909 -0.076,18.49393 -1.67248,21.6163296 -0.81337,1.59074 -3.63732,4.38238 -5.30592,5.24526 -2.98249,1.5423 -9.19417,2.04919 -13.20278,1.07738 z m 7.5849,-20.7417596 c 3.27304,-1.37157 5.19215,-4.45644 5.19215,-8.34606 0,-2.82891 -0.64929,-4.46079 -2.49139,-6.26179 -3.57523,-3.49546 -9.53481,-3.07026 -12.56005,0.89614 -3.35735,4.40179 -1.59128,11.45878 3.40977,13.62498 1.54527,0.66933 4.95,0.71511 6.44952,0.0867 z m 179.33843,20.7306496 c -2.42708,-0.58753 -5.0938,-1.86762 -6.94496,-3.33376 -1.01639,-0.80499 -1.60825,-1.76137 -2.55803,-4.13355 l -1.23571,-3.0862396 3.83268,-0.0996 3.83265,-0.0996 1.68783,1.7401 c 1.88334,1.9416496 3.36046,2.5155996 6.45037,2.5063996 4.51852,-0.0135 7.40001,-2.9698096 7.40636,-7.5987396 l 0.004,-1.43485 -2.4759,1.22897 c -7.88296,3.91294 -17.69935,-0.33304 -20.9061,-9.04272 -1.00288,-2.72379 -1.0716,-8.24499 -0.13607,-10.92869 3.21564,-9.22446 14.38547,-13.60113 22.17007,-8.68692 l 1.348,0.85096 v -1.23915 -1.23915 h 3.89612 3.89607 l -0.10371,17.37431 c -0.10273,17.20251 -0.1118,17.39419 -0.91648,19.38571 -0.94502,2.3388896 -3.40198,5.2225496 -5.49469,6.4489596 -3.11754,1.82699 -9.341,2.45503 -13.75047,1.38763 z m 7.63379,-20.7306496 c 3.27304,-1.37157 5.19215,-4.45644 5.19215,-8.34606 0,-3.04896 -0.70873,-4.61112 -3.01166,-6.63825 -3.6339,-3.19869 -9.28289,-2.56379 -12.12745,1.36303 -3.23529,4.46619 -1.44519,11.39366 3.49744,13.53455 1.54527,0.66933 4.95,0.71511 6.44952,0.0867 z M -76.23479,-2.6096094 c 0,-0.17576 1.273782,-3.32683 2.830622,-7.00239 l 2.830625,-6.6828496 -6.534792,-15.11732 c -3.594131,-8.31452 -6.534788,-15.24927 -6.534788,-15.41055 0,-0.16128 1.833386,-0.29324 4.074192,-0.29324 h 4.074191 l 0.674709,1.49931 c 0.371087,0.82461 2.308013,5.5846 4.304277,10.57775 1.996267,4.99314 3.70906,9.08095 3.806204,9.08402 0.09715,0.003 2.162362,-4.71722 4.589364,-10.48955 l 4.412731,-10.49514 3.965498,-0.0998 c 2.181027,-0.0549 3.9655,0.0322 3.9655,0.19339 0,0.16122 -4.19203,10.20736 -9.315622,22.32475 l -9.315623,22.0316096 -3.913544,0.0998 c -2.175916,0.0555 -3.913544,-0.0421 -3.913544,-0.21979 z M -9.2070124,-15.325649 c -3.0503706,-0.98621 -4.9152956,-2.08737 -6.9050886,-4.07716 -3.107084,-3.10709 -4.724746,-7.11084 -4.732391,-11.71279 -0.01143,-6.87992 4.277939,-12.95738 10.8727096,-15.40518 2.850254,-1.05793 8.909841,-1.05793 11.760095,0 10.0947534,3.7469 13.9865204,15.58431 8.111874,24.67353 -2.099458,3.24827 -5.470006,5.66087 -9.35296101,6.69475 -2.55505999,0.68031 -7.37933499,0.59467 -9.75423799,-0.17315 z m 9.24145799,-7.67207 c 4.67402701,-2.33478 6.25653201,-8.96772 3.18511801,-13.35017 -1.584484,-2.26082 -3.94367101,-3.50454 -6.924164,-3.65029 -2.208865,-0.10801 -2.731597,-0.003 -4.43763,0.89289 -6.1231006,3.21482 -6.5573236,11.72512 -0.800354,15.68601 2.615568,1.79956 5.908788,1.95421 8.97702999,0.42156 z m 49.49143441,7.72171 c -7.001845,-2.49625 -11.107892,-8.35037 -11.107892,-15.83685 0,-10.89041 9.782164,-18.54746 20.221363,-15.82839 2.85575,0.74383 4.663299,1.74827 6.824733,3.79246 1.72145,1.62807 3.998348,5.32736 3.998348,6.49612 0,0.36723 -0.886354,0.47282 -3.96875,0.47281 l -3.96875,-10e-6 -0.985855,-1.23556 c -1.432581,-1.79543 -3.325456,-2.64497 -5.893312,-2.64497 -7.034702,0 -10.780049,8.15427 -6.700206,14.58751 1.502294,2.36888 3.678474,3.50595 6.673956,3.48719 2.851605,-0.0178 4.810608,-0.87611 6.221296,-2.72561 l 0.944252,-1.23798 h 3.838688 c 2.839791,0 3.836705,0.11475 3.831096,0.44097 -0.0042,0.24254 -0.75826,1.85512 -1.675694,3.58353 -1.852366,3.48969 -3.319103,4.78775 -7.051777,6.24083 -2.818025,1.09701 -8.67083,1.31017 -11.201496,0.40795 z m -169.06671,-22.57953 0.0908,-22.84237 10.23055,0.0186 c 9.687773,0.0176 10.352216,0.0609 12.523612,0.81638 4.507844,1.56843 7.50866,4.23434 9.412401,8.36195 1.392787,3.01977 1.599233,8.05199 0.459126,11.19146 -1.867496,5.14243 -5.654615,8.51576 -11.174441,9.95349 -1.390706,0.36223 -3.811238,0.52622 -7.767038,0.52622 h -5.74671 v 7.40834 7.40833 h -4.05952 -4.05952 z m 21.08104,-0.21966 c 2.968336,-1.57856 4.237172,-3.67996 4.225587,-6.99823 -0.0093,-2.67838 -0.828323,-4.67014 -2.499692,-6.07933 -2.094657,-1.76608 -2.999017,-1.96042 -9.122895,-1.96042 h -5.65578 v 7.96723 7.96724 l 5.90903,-0.11993 c 4.92932,-0.10004 6.113741,-0.22879 7.14375,-0.77656 z m 58.561111,4.01202 v -19.05 h -7.761111 -7.761111 v -3.88056 -3.88055 h 19.402778 19.402777 v 3.88055 3.88056 h -7.761111 -7.761111 v 19.05 19.05 h -3.880555 -3.880556 z m 113.947222,-3.89249 v -22.94249 l 3.792359,0.10013 3.79236,0.10012 0.0947,8.20346 0.0947,8.20346 1.73962,-1.19665 c 3.35266,-2.30622 8.16606,-2.59942 12.29021,-0.74862 2.56755,1.15225 4.345448,2.96645 5.665008,5.78074 l 0.92964,1.98262 0.10979,11.72986 0.10978,11.72986 h -3.902138 -3.90215 v -10.11918 c 0,-9.53695 -0.0423,-10.20663 -0.73582,-11.6392 -0.94732,-1.95687 -2.44415,-3.00622 -4.58111,-3.21155 -3.52305,-0.33852 -5.80831,0.82862 -7.07273,3.61228 -0.5787,1.27399 -0.64844,2.48621 -0.65536,11.39168 l -0.008,9.96597 h -3.88055 -3.880559 z m 186.266667,22.37641 c -3.43842,-0.92089 -6.13498,-3.37284 -7.09334,-6.44982 -0.2214,-0.71093 -0.47466,-4.9788 -0.57281,-9.65285 l -0.17593,-8.37847 h -2.95811 -2.95815 v -3.52778 -3.52778 h 3.33982 3.33985 l 0.0997,-3.95954 0.0998,-3.95953 2.99861,-1.13801 c 4.5568,-1.72933 4.23333,-2.03051 4.23333,3.9418 v 5.11528 h 4.24611 4.2461 l -0.10096,3.43958 -0.10097,3.43959 -4.14514,0.0994 -4.14514,0.0994 v 7.78519 7.78519 l 1.19945,1.19945 c 1.13884,1.13883 1.32602,1.19944 3.70417,1.19944 h 2.50472 v 3.31365 c 0,2.69618 -0.104,3.35355 -0.55803,3.52778 -1.00361,0.38513 -5.22022,0.1791 -7.20308,-0.35195 z m 15.25301,-11.51656 0.0928,-12.08264 3.79236,-0.10013 3.79236,-0.10013 v -3.90028 -3.90028 l 5.37986,0.13839 c 4.549,0.11702 5.69296,0.26197 7.40717,0.93851 2.82247,1.11396 5.60698,3.75229 7.04822,6.67823 l 1.15503,2.34489 0.11088,11.03304 0.11088,11.03304 h -3.90324 -3.90324 l -0.004,-8.90764 c 0,-5.43607 -0.15452,-9.45714 -0.39338,-10.31759 -0.511,-1.84065 -2.88043,-4.21009 -4.72109,-4.72108 -0.77547,-0.21528 -2.95776,-0.39231 -4.84953,-0.39339 l -3.43803,-0.002 v 12.17084 12.17083 h -3.88517 -3.88522 z m 52.48032,-0.0882 v -12.17084 h 3.88056 3.88055 v -3.91825 -3.91825 l 5.37986,0.15298 c 6.74568,0.19183 8.61155,0.80013 11.57034,3.77214 2.2032,2.21307 3.33064,4.27563 3.85843,7.05867 0.19692,1.03834 0.35804,6.23186 0.35804,11.54114 v 9.65324 h -3.85953 -3.8595 l -0.10925,-9.43681 c -0.10781,-9.31504 -0.12062,-9.45708 -0.99117,-11.00864 -0.48507,-0.86451 -1.57025,-2.05513 -2.41151,-2.64583 -1.46252,-1.02691 -1.71387,-1.0795 -5.73264,-1.19935 l -4.20307,-0.12535 v 12.20799 12.20799 h -3.88055 -3.88056 z m -310.091663,-4.05694 v -15.875 h 3.86027 3.860271 l 0.108479,1.46562 0.10848,1.46561 1.152383,-0.97273 c 1.56977,-1.32506 3.896526,-1.9585 7.193961,-1.9585 h 2.766156 v 3.49472 3.49472 l -3.502939,0.12125 c -3.867401,0.13387 -4.765097,0.52793 -6.282955,2.75803 -1.330924,1.95544 -1.498991,3.38832 -1.501027,12.79725 l -0.002,9.08403 h -3.880524 -3.880555 z m 109.008333,-6.87917 v -22.75416 h 4.05694 4.05695 v 19.05 19.05 h 10.23055 10.23056 v 3.70417 3.70416 h -14.2875 -14.2875 z m 34.57222,6.87917 v -15.875 h 3.88056 3.88055 v 15.875 15.875 h -3.88055 -3.88056 z m 52.91667,-6.87917 v -22.75416 h 3.88055 3.88056 v 8.26642 8.26642 l 1.78985,-1.20449 c 2.4469,-1.64664 3.94092,-2.02269 7.41292,-1.86589 4.97452,0.22466 8.38884,2.38411 10.47013,6.62199 l 0.9646,1.96416 0.10978,11.72986 0.10979,11.72986 h -3.90215 -3.90214 v -10.06822 c 0,-9.32456 -0.0514,-10.16895 -0.69572,-11.43193 -2.55887,-5.01584 -10.34111,-4.37298 -11.94699,0.98689 -0.26787,0.89412 -0.41007,4.6879 -0.41007,10.941 v 9.57226 h -3.88056 -3.88055 z m 97.71944,6.87917 v -15.875 h 3.88056 3.88055 v 15.875 15.875 h -3.88055 -3.88056 z m -150.63611,-25.75278 v -3.88055 h 3.88056 3.88055 v 3.88055 3.88056 h -3.88055 -3.88056 z m 150.63611,0 v -3.88055 h 3.88056 3.88055 v 3.88055 3.88056 h -3.88055 -3.88056 z"
       id="path24" />

    <path
       style="fill:#792EE5;stroke-width:0.352778"
       d="m -225.43199,0.55895061 -24.34939,-13.98462961 0.006,-28.04583 0.006,-28.04584 24.22089,-13.905326 c 13.32149,-7.647927 24.38793,-13.905324 24.5921,-13.905324 0.20418,0 11.20521,6.255432 24.44675,13.900963 l 24.0755,13.900967 -0.006,28.05019 -0.006,28.0502 -17.0154,9.7788296 c -9.35847,5.37836 -20.30146,11.67145 -24.31777,13.9846404 l -7.30236,4.20579 -24.34941,-13.98463039 z m 33.57732,-42.70861961 -5.7296,-5.56486 2.47977,-10.50854 c 1.36388,-5.77969 2.43384,-10.64633 2.3777,-10.81474 -0.0561,-0.16841 -5.26121,4.86201 -11.56683,11.17873 l -11.46477,11.48493 5.74064,5.53813 5.74065,5.53812 -2.47298,10.40694 c -1.36013,5.72382 -2.47498,10.64477 -2.47745,10.93544 -0.002,0.29067 5.19459,-4.68201 11.549,-11.05039 l 11.55347,-11.57889 z"
       id="path25" />

  </g>
</svg>
