<svg id="Layer_1" data-name="Layer 1" xmlns="http://www.w3.org/2000/svg" xmlns:xlink="http://www.w3.org/1999/xlink" viewBox="0 0 679.84 150"><defs><clipPath id="clip-path" transform="translate(0 0)"><rect x="619.7" y="36.55" width="58.71" height="29.36" style="fill:none"/></clipPath><linearGradient id="linear-gradient" x1="97.55" y1="132.75" x2="-28.65" y2="-81.98" gradientTransform="matrix(1, 0, 0, -1, 0, 152)" gradientUnits="userSpaceOnUse"><stop offset="0" stop-color="#792ee5"/><stop offset="1" stop-color="#3eabb3"/></linearGradient></defs><path d="M237.63,36.57H224.89V49.48h12.74Zm-56.52,0H167.9v75.84h46.9V99.83H181.1Zm43.8,22.88h12.74v52.93H224.91Zm62.32,4.22a23.24,23.24,0,0,0-5.45-3.42,20.36,20.36,0,0,0-8.45-1.72,24.94,24.94,0,0,0-10.24,2.13,26,26,0,0,0-13.78,14.23,26.94,26.94,0,0,0-2,10.3,28.44,28.44,0,0,0,1.93,10.45,27.07,27.07,0,0,0,5.34,8.6,24.8,24.8,0,0,0,8.25,5.8,25.74,25.74,0,0,0,10.49,2.13,21.57,21.57,0,0,0,8.43-1.6,22.8,22.8,0,0,0,5.47-3.27v3.07c0,4.11-1.15,7.22-3.37,9.29a12.35,12.35,0,0,1-8.68,3.16,16.54,16.54,0,0,1-8-1.72,11,11,0,0,1-4.66-5.17l-.21-.44H249l4,10.13.17.25a26.5,26.5,0,0,0,10,6.58A33.82,33.82,0,0,0,275,134.56c7.84,0,14-2.16,18.4-6.41s6.6-9.92,6.6-16.85V59.48H287.23v4.19ZM284,74.82a14.05,14.05,0,0,1,3.12,4.76,14.23,14.23,0,0,1,1,5.63,15,15,0,0,1-4,10.46A13,13,0,0,1,279.61,99a12.72,12.72,0,0,1-5.47,1.06,12.68,12.68,0,0,1-9.93-4.34,15.06,15.06,0,0,1-4-10.46,14.49,14.49,0,0,1,4-10.41,13.51,13.51,0,0,1,4.55-3.11,14.79,14.79,0,0,1,10.77,0A13.52,13.52,0,0,1,284,74.83Zm45.09-14.18a18.18,18.18,0,0,1,8.75-2.11c6.16,0,11.2,2,15,5.81s5.72,9.3,5.72,16.22v31.83H345.86V82A12.14,12.14,0,0,0,343.1,74c-1.84-2.18-4.42-3.24-7.88-3.24A10.24,10.24,0,0,0,327.11,74c-2,2.22-3,5.21-3,8.93v29.44H311.42V36.57h12.73v27.7a21.77,21.77,0,0,1,5-3.61Zm58-18.74L375.4,46.25l.15,13.21h-11.4V70.8H374.4v24c0,5.78,1.77,10.24,5.25,13.27a18.84,18.84,0,0,0,12.81,4.52c1.3,0,2.5,0,3.6,0s2-.09,2.69-.16l.69-.07V101.17H394.2a7,7,0,0,1-5.13-1.91c-1.3-1.25-1.95-3.16-1.95-5.69V70.82h13.95V59.48H387.12V41.9Zm84.74-5.35h12.74V49.46H471.85Zm12.74,22.89H471.85v52.92h12.74Zm109.48,4.22V59.44h12.74v51.91c0,6.92-2.23,12.6-6.6,16.86s-10.56,6.4-18.4,6.4A34.05,34.05,0,0,1,570,132.5,26.61,26.61,0,0,1,560,125.92l-.16-.25-4-10.14h13.32l.21.44a11,11,0,0,0,4.67,5.18,16.42,16.42,0,0,0,8,1.71,12.29,12.29,0,0,0,8.69-3.15c2.23-2.09,3.37-5.2,3.37-9.29v-3.07a22.8,22.8,0,0,1-5.47,3.27,21.8,21.8,0,0,1-8.44,1.6,26,26,0,0,1-10.49-2.12,25,25,0,0,1-8.24-5.81,27.07,27.07,0,0,1-5.34-8.6,28.23,28.23,0,0,1-1.94-10.44,27.34,27.34,0,0,1,2-10.31A26.1,26.1,0,0,1,569.94,60.7a25.22,25.22,0,0,1,10.23-2.13,20.61,20.61,0,0,1,8.45,1.72A23.14,23.14,0,0,1,594,63.7Zm-3.11,32a15,15,0,0,0,4-10.46,14.08,14.08,0,0,0-4.1-10.39A13.56,13.56,0,0,0,581,70.68,13.3,13.3,0,0,0,571,74.79a14.41,14.41,0,0,0-4,10.4,15.12,15.12,0,0,0,4,10.47,12.91,12.91,0,0,0,4.5,3.28A12.69,12.69,0,0,0,581,100a12.83,12.83,0,0,0,10-4.32Zm-80.1-23.31H498.12v40.55h12.74Zm0,0V59.42H523.6a21.57,21.57,0,0,1,15.34,6.44,22.16,22.16,0,0,1,6.36,15.55v31.45H532.56V84.36a12.08,12.08,0,0,0-3.47-8.48,11.76,11.76,0,0,0-8.37-3.52Zm-86.15,0H412v40.55h12.74Zm0,0V59.42h12.74a21.58,21.58,0,0,1,15.35,6.44,22.13,22.13,0,0,1,6.35,15.55v31.45H446.42V84.36A12.08,12.08,0,0,0,443,75.88a11.79,11.79,0,0,0-8.38-3.52Z" transform="translate(0 0)" style="fill:#fff;fill-rule:evenodd"/><g style="clip-path:url(#clip-path)"><path d="M642.94,66.63h8.71l-9-30.08H628.7l-9,30.08h8.45l1.26-4.85h12.24ZM631.55,53.5l2.26-8.67h3.47l2.25,8.67Z" transform="translate(0 0)" style="fill:#fff"/><path d="M679.84,44.83V36.55H655.58v8.28h8.24V58.31h-8.24v8.32h24.26V58.31h-8.23V44.83Z" transform="translate(0 0)" style="fill:#fff"/></g><ellipse cx="64.78" cy="74.57" rx="50.28" ry="49.01" style="fill:#fff"/><path d="M61.94.76,2.83,35.41a5.71,5.71,0,0,0-2.07,2.1A5.81,5.81,0,0,0,0,40.38v69.25a5.76,5.76,0,0,0,2.83,5l59.11,34.63a5.64,5.64,0,0,0,5.69,0l59.09-34.61a5.76,5.76,0,0,0,2.82-5V40.4a5.79,5.79,0,0,0-2.82-5L67.61.77A5.69,5.69,0,0,0,64.76,0,5.6,5.6,0,0,0,61.94.76ZM52.31,116.24l7-30.29a1.23,1.23,0,0,0,0-.66,1.47,1.47,0,0,0-.33-.57L41.93,67.89a1.15,1.15,0,0,1-.28-.43,1.19,1.19,0,0,1,0-1,1.15,1.15,0,0,1,.28-.43L75.2,32.51a1.28,1.28,0,0,1,.73-.37,1.3,1.3,0,0,1,.8.16,1.25,1.25,0,0,1,.55.61,1.27,1.27,0,0,1,.07.86l-7,30.36a1.27,1.27,0,0,0,0,.67,1.21,1.21,0,0,0,.34.53L87.59,82.05a1.23,1.23,0,0,1,.28.43A1.22,1.22,0,0,1,88,83a1.25,1.25,0,0,1-.11.5,1.19,1.19,0,0,1-.28.42L54.44,117.47a1.2,1.2,0,0,1-.73.35,1.22,1.22,0,0,1-.79-.15,1.33,1.33,0,0,1-.56-.61,1.38,1.38,0,0,1-.07-.85Z" transform="translate(0 0)" style="fill:url(#linear-gradient)"/><path d="M52.31,116.24l7-30.29a1.23,1.23,0,0,0,0-.66,1.47,1.47,0,0,0-.33-.57L41.93,67.89a1.15,1.15,0,0,1-.28-.43,1.19,1.19,0,0,1,0-1,1.15,1.15,0,0,1,.28-.43L75.2,32.51a1.28,1.28,0,0,1,.73-.37,1.3,1.3,0,0,1,.8.16,1.25,1.25,0,0,1,.55.61,1.27,1.27,0,0,1,.07.86l-7,30.36a1.27,1.27,0,0,0,0,.67,1.21,1.21,0,0,0,.34.53L87.59,82.05a1.23,1.23,0,0,1,.28.43A1.22,1.22,0,0,1,88,83a1.25,1.25,0,0,1-.11.5,1.19,1.19,0,0,1-.28.42L54.44,117.47a1.2,1.2,0,0,1-.73.35,1.22,1.22,0,0,1-.79-.15,1.33,1.33,0,0,1-.56-.61,1.38,1.38,0,0,1-.07-.85Z" transform="translate(0 0)" style="fill:#fff"/></svg>