<svg width="679" height="150" viewBox="0 0 679 150" fill="none" xmlns="http://www.w3.org/2000/svg">
<path fill-rule="evenodd" clip-rule="evenodd" d="M237.628 36.5722H224.888V49.4802H237.628V36.5722ZM181.112 36.5722H167.898V112.407H214.801V99.8272H181.095L181.112 36.5722ZM224.912 59.4545H237.651V112.377H224.912V59.4545ZM287.229 63.6673C285.575 62.2803 283.742 61.1294 281.78 60.2467C279.113 59.0765 276.232 58.4908 273.326 58.5277C269.806 58.5063 266.321 59.2318 263.094 60.6575C259.998 62.0145 257.187 63.9604 254.814 66.3898C252.452 68.8354 250.582 71.7227 249.307 74.8913C247.979 78.1589 247.302 81.6605 247.315 85.1943C247.298 88.7704 247.955 92.317 249.249 95.644C250.478 98.8257 252.292 101.742 254.594 104.239C256.923 106.723 259.729 108.698 262.839 110.042C266.152 111.479 269.723 112.204 273.326 112.172C276.216 112.208 279.083 111.662 281.763 110.565C283.727 109.74 285.569 108.642 287.235 107.302V110.371C287.235 114.478 286.077 117.588 283.865 119.659C281.653 121.73 278.682 122.815 275.179 122.815C271.93 122.815 269.244 122.229 267.194 121.102C265.127 119.933 263.49 118.118 262.527 115.927L262.324 115.487H249.006L252.984 125.62L253.146 125.872C255.963 128.809 259.402 131.059 263.204 132.449C266.974 133.845 270.957 134.56 274.97 134.562C282.811 134.562 289.001 132.402 293.367 128.155C297.733 123.907 299.968 118.227 299.968 111.298V59.484H287.229V63.6908V63.6673ZM284.044 74.8151C285.394 76.17 286.454 77.7916 287.159 79.5791C287.865 81.3666 288.2 83.2818 288.144 85.2061C288.203 89.091 286.761 92.8454 284.125 95.6674C282.871 97.0805 281.328 98.2009 279.605 98.9515C277.881 99.702 276.018 100.065 274.142 100.015C272.274 100.07 270.416 99.7092 268.7 98.9592C266.983 98.2091 265.449 97.0874 264.206 95.6732C261.594 92.8369 260.17 89.0847 260.234 85.2061C260.234 81.0286 261.566 77.5317 264.194 74.8034C265.482 73.459 267.031 72.3999 268.743 71.693C270.456 70.9861 272.294 70.6467 274.142 70.6963C275.983 70.6733 277.809 71.028 279.511 71.7388C281.212 72.4497 282.755 73.502 284.044 74.8326V74.8151ZM329.129 60.6397C331.83 59.212 334.839 58.4881 337.884 58.5335C344.04 58.5335 349.083 60.4873 352.882 64.3363C356.68 68.1852 358.603 73.6417 358.603 80.5592V112.389H345.864V82.0143C345.941 79.0733 344.957 76.2048 343.096 73.9468C341.26 71.77 338.683 70.708 335.221 70.708C331.758 70.708 329.1 71.7936 327.114 74.0173C325.128 76.241 324.155 79.2331 324.155 82.9471V112.395H311.416V36.5722H324.155V64.2658C325.636 62.8302 327.311 61.6153 329.129 60.6575V60.6397ZM387.115 41.8997L375.401 46.2474L375.546 59.4605H364.15V70.802H374.399V94.7991C374.399 100.578 376.165 105.043 379.651 108.071C383.137 111.098 387.41 112.589 392.465 112.589C393.763 112.589 394.959 112.571 396.056 112.536C397.162 112.507 398.059 112.448 398.754 112.377L399.437 112.313V101.165H394.197C393.261 101.209 392.326 101.064 391.446 100.737C390.566 100.411 389.759 99.9099 389.072 99.264C387.775 98.0084 387.121 96.0959 387.121 93.5729V70.8195H401.07V59.478H387.121V41.9175L387.115 41.8997ZM471.847 36.5547H484.586V49.4627H471.847V36.5547ZM484.586 59.437H471.847V112.36H484.586V59.437ZM594.067 63.6556V59.4428H606.806V111.351C606.806 118.274 604.583 123.948 600.205 128.207C595.828 132.467 589.649 134.609 581.809 134.609C577.796 134.607 573.813 133.894 570.043 132.502C566.24 131.106 562.799 128.856 559.979 125.919L559.817 125.667L555.844 115.534H569.162L569.371 115.974C570.332 118.166 571.97 119.982 574.038 121.149C576.088 122.287 578.775 122.862 582.023 122.862C585.544 122.862 588.474 121.8 590.709 119.712C592.944 117.623 594.079 114.513 594.079 110.424V107.349C592.416 108.691 590.576 109.79 588.613 110.617C585.93 111.71 583.061 112.254 580.17 112.219C576.567 112.253 572.997 111.53 569.684 110.095C566.577 108.746 563.774 106.772 561.444 104.292C559.141 101.794 557.327 98.8752 556.099 95.6909C554.803 92.3664 554.144 88.8216 554.159 85.247C554.148 81.7134 554.825 78.2124 556.151 74.9443C557.425 71.7736 559.297 68.8855 561.664 66.4425C564.036 64.0127 566.844 62.0651 569.938 60.7045C573.166 59.2827 576.651 58.5572 580.17 58.5744C583.076 58.5398 585.957 59.1257 588.624 60.2936C590.575 61.1739 592.398 62.3186 594.044 63.6965L594.067 63.6556ZM590.958 95.644C593.598 92.8242 595.042 89.0687 594.982 85.1826C595.037 83.2576 594.701 81.3419 593.996 79.5536C593.291 77.7654 592.231 76.1428 590.883 74.7859C589.59 73.4599 588.046 72.4123 586.343 71.7065C584.64 71.0007 582.815 70.6512 580.975 70.6788C579.127 70.6306 577.289 70.9707 575.577 71.6775C573.865 72.3844 572.316 73.4427 571.027 74.7859C568.404 77.5142 567.072 81.0111 567.072 85.1886C567.009 89.0671 568.433 92.8191 571.044 95.6557C572.288 97.0686 573.821 98.1892 575.536 98.9391C577.251 99.6891 579.108 100.05 580.975 99.9974C582.844 100.049 584.702 99.6904 586.421 98.946C588.14 98.2016 589.68 97.0891 590.935 95.6849L590.958 95.644ZM510.858 72.3276H498.119V112.876H510.858V72.3276ZM510.858 72.3276V59.4196H523.597C529.353 59.4211 534.872 61.7384 538.942 65.8621C543.011 69.9858 545.298 75.5783 545.3 81.4101V112.858H532.561V84.3612C532.561 81.179 531.313 78.127 529.092 75.8769C526.872 73.6267 523.86 72.3625 520.719 72.3625L510.858 72.3276ZM424.713 72.3276H411.974V112.876H424.713V72.3276ZM424.713 72.3276V59.4196H437.452C443.208 59.4196 448.728 61.7364 452.798 65.8604C456.868 69.9844 459.155 75.5778 459.155 81.4101V112.858H446.416V84.3612C446.416 81.179 445.168 78.127 442.947 75.8769C440.726 73.6267 437.715 72.3625 434.574 72.3625L424.713 72.3276Z" fill="black"/>
<g clip-path="url(#clip0_22_437)">
<path d="M642.941 66.6269H651.648L642.653 36.5547H628.701L619.695 66.6269H628.145L629.406 61.778H641.649L642.941 66.6269ZM631.553 53.503L633.807 44.8297H637.279L639.533 53.503H631.553Z" fill="black"/>
<path d="M679.839 44.8297V36.5547H655.578V44.8297H663.815V58.3064H655.578V66.6269H679.839V58.3064H671.613V44.8297H679.839Z" fill="black"/>
</g>
<path d="M61.9445 0.760827L2.82821 35.4078C1.9667 35.9197 1.25371 36.6442 0.75879 37.5107C0.262958 38.3883 0.00175018 39.3771 0 40.383V109.626C0.00175018 110.632 0.262958 111.62 0.75879 112.498C1.25371 113.364 1.9667 114.089 2.82821 114.601L61.9445 149.231C62.804 149.733 63.7835 149.999 64.7813 150C65.7822 150 66.7648 149.735 67.6268 149.231L126.717 114.618C127.583 114.111 128.297 113.385 128.787 112.515C129.286 111.639 129.548 110.649 129.545 109.643V40.4001C129.548 39.3937 129.286 38.404 128.787 37.5278C128.299 36.6514 127.585 35.9197 126.717 35.4078L67.6096 0.769384C66.7475 0.265286 65.7649 -0.000416488 64.7641 4.90029e-07C63.7729 0.00155604 62.7998 0.264125 61.9445 0.760827ZM52.3131 116.242L59.3319 85.9549C59.3881 85.7361 59.3881 85.5068 59.3319 85.2881C59.2647 85.0745 59.1497 84.8788 58.9956 84.7153L41.9315 67.892C41.8069 67.7713 41.7099 67.6256 41.647 67.4645C41.5789 67.3049 41.5438 67.1335 41.5435 66.9602C41.5438 66.7869 41.5789 66.6154 41.647 66.4558C41.7099 66.2948 41.8069 66.149 41.9315 66.0284L75.1974 32.5098C75.3964 32.3136 75.653 32.1849 75.9303 32.1423C76.2074 32.1063 76.4887 32.1603 76.7322 32.2961C76.9794 32.4355 77.1734 32.6519 77.2841 32.9116C77.4047 33.1804 77.429 33.482 77.3531 33.7665L70.3257 64.1306C70.2695 64.3494 70.2695 64.5787 70.3257 64.7974C70.3947 64.9996 70.5132 65.1817 70.6706 65.3274L87.588 82.0482C87.7098 82.1711 87.8065 82.3163 87.8726 82.4756C87.9423 82.6347 87.9775 82.8066 87.9761 82.98C87.9768 83.1507 87.9416 83.3195 87.8726 83.4758C87.8065 83.6352 87.7098 83.7803 87.588 83.9032L54.4429 117.473C54.2426 117.665 53.9858 117.787 53.71 117.824C53.4356 117.863 53.1557 117.809 52.9167 117.67C52.6717 117.531 52.4782 117.319 52.3648 117.063C52.2459 116.794 52.2187 116.494 52.2873 116.208L52.3131 116.242Z" fill="url(#paint0_linear_22_437)"/>
<defs>
<linearGradient id="paint0_linear_22_437" x1="97.6896" y1="19.3287" x2="-28.5094" y2="234.067" gradientUnits="userSpaceOnUse">
<stop stop-color="#792EE5"/>
<stop offset="1" stop-color="#3EABB3"/>
</linearGradient>
<clipPath id="clip0_22_437">
<rect width="58.7124" height="29.3562" fill="white" transform="translate(619.695 36.5547)"/>
</clipPath>
</defs>
</svg>
