<svg width="441" height="101" viewBox="0 0 441 101" fill="none" xmlns="http://www.w3.org/2000/svg">
<path d="M41.826 1.4894L3.12509 24.574C2.56176 24.9109 2.0941 25.3945 1.76894 25.9764C1.44378 26.5583 1.27255 27.218 1.27234 27.8896V74.065C1.27255 74.7366 1.44378 75.3964 1.76894 75.9783C2.0941 76.5602 2.56176 77.0437 3.12509 77.3806L41.826 100.462C42.3912 100.799 43.0323 100.976 43.6849 100.976C44.3375 100.976 44.9786 100.799 45.5437 100.462L84.2447 77.3806C84.808 77.0437 85.2757 76.5602 85.6009 75.9783C85.926 75.3964 86.0973 74.7366 86.0975 74.065V27.8896C86.0973 27.218 85.926 26.5583 85.6009 25.9764C85.2757 25.3945 84.808 24.9109 84.2447 24.574L45.5437 1.4894C44.9786 1.15287 44.3375 0.975769 43.6849 0.975769C43.0323 0.975769 42.3912 1.15287 41.826 1.4894ZM35.5181 78.4618L40.1134 58.272C40.1464 58.1257 40.1424 57.9733 40.1019 57.8291C40.0613 57.6849 39.9856 57.5538 39.8819 57.4485L28.7226 46.2441C28.6427 46.1631 28.5792 46.0665 28.5359 45.9599C28.4926 45.8534 28.4703 45.7389 28.4703 45.6234C28.4703 45.5078 28.4926 45.3935 28.5359 45.2869C28.5792 45.1804 28.6427 45.0837 28.7226 45.0027L50.5017 22.6631C50.6311 22.529 50.7994 22.4423 50.981 22.4161C51.1626 22.3898 51.3475 22.4255 51.5077 22.5177C51.6678 22.6098 51.7943 22.7534 51.868 22.9266C51.9416 23.0998 51.9584 23.2932 51.9157 23.4771L47.3143 43.7172C47.2798 43.8634 47.283 44.0164 47.3236 44.1608C47.3643 44.3053 47.4409 44.4363 47.5459 44.5407L58.6198 55.6854C58.6996 55.7661 58.763 55.8625 58.8063 55.9688C58.8495 56.0751 58.8718 56.1891 58.8718 56.3044C58.8718 56.4197 58.8495 56.5339 58.8063 56.6402C58.763 56.7465 58.6996 56.8429 58.6198 56.9237L36.9137 79.279C36.7832 79.4095 36.6153 79.4931 36.4349 79.5173C36.2545 79.5415 36.0714 79.5049 35.9128 79.4131C35.7543 79.3212 35.6287 79.179 35.5548 79.0076C35.4809 78.8362 35.4627 78.6447 35.5028 78.4618H35.5181Z" fill="url(#paint0_linear_402_115)"/>
<path d="M35.5181 78.4618L40.1134 58.272C40.1464 58.1257 40.1424 57.9733 40.1019 57.8291C40.0613 57.6849 39.9856 57.5538 39.8819 57.4485L28.7226 46.2441C28.6427 46.1631 28.5792 46.0665 28.5359 45.9599C28.4926 45.8534 28.4703 45.7389 28.4703 45.6234C28.4703 45.5078 28.4926 45.3935 28.5359 45.2869C28.5792 45.1804 28.6427 45.0837 28.7226 45.0027L50.5017 22.6631C50.6311 22.529 50.7994 22.4423 50.981 22.4161C51.1626 22.3898 51.3475 22.4255 51.5077 22.5177C51.6678 22.6098 51.7943 22.7534 51.868 22.9266C51.9416 23.0998 51.9584 23.2932 51.9157 23.4771L47.3143 43.7172C47.2798 43.8634 47.283 44.0164 47.3236 44.1608C47.3643 44.3053 47.4409 44.4363 47.5459 44.5407L58.6198 55.6854C58.6996 55.7661 58.763 55.8625 58.8063 55.9688C58.8495 56.0751 58.8718 56.1891 58.8718 56.3044C58.8718 56.4197 58.8495 56.5339 58.8063 56.6402C58.763 56.7465 58.6996 56.8429 58.6198 56.9237L36.9137 79.279C36.7832 79.4095 36.6153 79.4931 36.4349 79.5173C36.2545 79.5415 36.0714 79.5049 35.9128 79.4131C35.7543 79.3212 35.6287 79.179 35.5548 79.0076C35.4809 78.8362 35.4627 78.6447 35.5028 78.4618H35.5181Z" fill="white"/>
<path d="M109.869 47.4759V18.385H120.778C123.013 18.385 124.888 18.8016 126.403 19.635C127.928 20.4683 129.079 21.6141 129.855 23.0725C130.641 24.5213 131.034 26.169 131.034 28.0156C131.034 29.8812 130.641 31.5384 129.855 32.9872C129.069 34.4361 127.909 35.5772 126.375 36.4105C124.841 37.2344 122.952 37.6463 120.707 37.6463H113.477V33.3139H119.997C121.304 33.3139 122.374 33.0867 123.207 32.6321C124.041 32.1776 124.656 31.5526 125.054 30.7571C125.461 29.9617 125.665 29.0478 125.665 28.0156C125.665 26.9834 125.461 26.0743 125.054 25.2884C124.656 24.5024 124.036 23.8916 123.193 23.456C122.36 23.0109 121.285 22.7884 119.969 22.7884H115.139V47.4759H109.869ZM137.58 55.6577C136.879 55.6577 136.231 55.6009 135.634 55.4872C135.047 55.3831 134.578 55.26 134.228 55.1179L135.421 51.1122C136.169 51.33 136.837 51.4342 137.424 51.4247C138.011 51.4153 138.527 51.2306 138.972 50.8707C139.427 50.5204 139.81 49.9332 140.123 49.1094L140.563 47.9304L132.651 25.6577H138.106L143.134 42.135H143.362L148.404 25.6577H153.873L145.137 50.1179C144.73 51.2732 144.19 52.2628 143.518 53.0867C142.845 53.92 142.022 54.5545 141.046 54.9901C140.08 55.4351 138.925 55.6577 137.58 55.6577ZM154.013 22.8026V18.385H177.223V22.8026H168.232V47.4759H163.004V22.8026H154.013ZM186.823 47.902C184.692 47.902 182.846 47.4332 181.283 46.4957C179.721 45.5582 178.509 44.2467 177.647 42.5611C176.795 40.8755 176.369 38.9058 176.369 36.652C176.369 34.3982 176.795 32.4238 177.647 30.7287C178.509 29.0336 179.721 27.7173 181.283 26.7798C182.846 25.8423 184.692 25.3736 186.823 25.3736C188.954 25.3736 190.8 25.8423 192.363 26.7798C193.925 27.7173 195.133 29.0336 195.985 30.7287C196.847 32.4238 197.278 34.3982 197.278 36.652C197.278 38.9058 196.847 40.8755 195.985 42.5611C195.133 44.2467 193.925 45.5582 192.363 46.4957C190.8 47.4332 188.954 47.902 186.823 47.902ZM186.852 43.7827C188.007 43.7827 188.973 43.4654 189.749 42.831C190.526 42.187 191.103 41.3253 191.482 40.2457C191.871 39.1662 192.065 37.9635 192.065 36.6378C192.065 35.3026 191.871 34.0952 191.482 33.0156C191.103 31.9266 190.526 31.0601 189.749 30.4162C188.973 29.7723 188.007 29.4503 186.852 29.4503C185.668 29.4503 184.683 29.7723 183.897 30.4162C183.121 31.0601 182.538 31.9266 182.15 33.0156C181.771 34.0952 181.582 35.3026 181.582 36.6378C181.582 37.9635 181.771 39.1662 182.15 40.2457C182.538 41.3253 183.121 42.187 183.897 42.831C184.683 43.4654 185.668 43.7827 186.852 43.7827ZM200.642 47.4759V25.6577H205.628V29.294H205.855C206.253 28.0346 206.935 27.0639 207.901 26.3821C208.876 25.6908 209.989 25.3452 211.239 25.3452C211.523 25.3452 211.84 25.3594 212.19 25.3878C212.55 25.4067 212.848 25.4399 213.085 25.4872V30.2173C212.867 30.1416 212.522 30.0753 212.048 30.0185C211.584 29.9522 211.134 29.919 210.699 29.919C209.761 29.919 208.919 30.1226 208.17 30.5298C207.432 30.9276 206.849 31.4815 206.423 32.1918C205.997 32.902 205.784 33.7211 205.784 34.6492V47.4759H200.642ZM224.12 47.902C221.942 47.902 220.072 47.4238 218.509 46.4673C216.956 45.5109 215.758 44.1899 214.915 42.5043C214.082 40.8092 213.665 38.8584 213.665 36.652C213.665 34.4361 214.092 32.4806 214.944 30.7855C215.796 29.081 216.999 27.7552 218.552 26.8082C220.114 25.8518 221.961 25.3736 224.092 25.3736C225.862 25.3736 227.43 25.7003 228.793 26.3537C230.166 26.9976 231.26 27.9115 232.075 29.0952C232.889 30.2694 233.353 31.6425 233.467 33.2145H228.552C228.353 32.1634 227.879 31.2874 227.131 30.5867C226.393 29.8764 225.403 29.5213 224.163 29.5213C223.112 29.5213 222.188 29.8054 221.393 30.3736C220.597 30.9323 219.977 31.7372 219.532 32.7884C219.096 33.8395 218.879 35.099 218.879 36.5668C218.879 38.0535 219.096 39.3319 219.532 40.402C219.968 41.4626 220.578 42.2817 221.364 42.8594C222.16 43.4276 223.093 43.7117 224.163 43.7117C224.92 43.7117 225.597 43.5696 226.194 43.2855C226.8 42.992 227.307 42.5706 227.714 42.0213C228.121 41.4721 228.4 40.8045 228.552 40.0185H233.467C233.344 41.562 232.889 42.9304 232.103 44.1236C231.317 45.3073 230.247 46.2353 228.893 46.9077C227.539 47.5706 225.948 47.902 224.12 47.902ZM241.831 34.6918V47.4759H236.689V18.385H241.717V29.3651H241.973C242.484 28.134 243.275 27.1634 244.345 26.4531C245.425 25.7334 246.798 25.3736 248.464 25.3736C249.98 25.3736 251.301 25.6908 252.428 26.3253C253.554 26.9598 254.426 27.8878 255.041 29.1094C255.666 30.331 255.979 31.8225 255.979 33.5838V47.4759H250.837V34.3793C250.837 32.9115 250.458 31.7704 249.7 30.956C248.952 30.1321 247.901 29.7202 246.547 29.7202C245.638 29.7202 244.823 29.919 244.104 30.3168C243.393 30.705 242.835 31.2685 242.428 32.0071C242.03 32.7457 241.831 33.6406 241.831 34.6918ZM269.369 47.4759V18.385H274.639V43.0582H287.452V47.4759H269.369ZM290.798 47.4759V25.6577H295.94V47.4759H290.798ZM293.384 22.5611C292.569 22.5611 291.868 22.2912 291.281 21.7514C290.694 21.2022 290.401 20.544 290.401 19.777C290.401 19.0005 290.694 18.3423 291.281 17.8026C291.868 17.2533 292.569 16.9787 293.384 16.9787C294.207 16.9787 294.908 17.2533 295.486 17.8026C296.073 18.3423 296.366 19.0005 296.366 19.777C296.366 20.544 296.073 21.2022 295.486 21.7514C294.908 22.2912 294.207 22.5611 293.384 22.5611ZM309.717 56.1122C307.87 56.1122 306.284 55.8613 304.958 55.3594C303.632 54.867 302.567 54.2041 301.762 53.3707C300.957 52.5374 300.398 51.6141 300.086 50.6009L304.717 49.4787C304.925 49.9048 305.228 50.3262 305.626 50.7429C306.023 51.169 306.558 51.5194 307.231 51.794C307.913 52.0781 308.77 52.2202 309.802 52.2202C311.26 52.2202 312.468 51.8651 313.424 51.1548C314.38 50.4541 314.859 49.2988 314.859 47.6889V43.5554H314.603C314.338 44.0857 313.95 44.6302 313.438 45.1889C312.936 45.7476 312.269 46.2164 311.435 46.5952C310.612 46.974 309.575 47.1634 308.325 47.1634C306.648 47.1634 305.129 46.7704 303.765 45.9844C302.411 45.1889 301.331 44.0052 300.526 42.4332C299.731 40.8518 299.333 38.8726 299.333 36.4957C299.333 34.0999 299.731 32.0781 300.526 30.4304C301.331 28.7732 302.415 27.5185 303.779 26.6662C305.143 25.8045 306.663 25.3736 308.339 25.3736C309.617 25.3736 310.668 25.5914 311.492 26.027C312.326 26.4531 312.988 26.9692 313.481 27.5753C313.973 28.1719 314.347 28.7353 314.603 29.2656H314.887V25.6577H319.958V47.831C319.958 49.6965 319.513 51.2401 318.623 52.4617C317.733 53.6832 316.516 54.5971 314.972 55.2031C313.429 55.8092 311.677 56.1122 309.717 56.1122ZM309.759 43.1293C310.848 43.1293 311.776 42.8641 312.543 42.3338C313.31 41.8035 313.893 41.0412 314.29 40.0469C314.688 39.0526 314.887 37.8594 314.887 36.4673C314.887 35.0942 314.688 33.8916 314.29 32.8594C313.902 31.8272 313.325 31.027 312.558 30.4588C311.8 29.8812 310.867 29.5923 309.759 29.5923C308.613 29.5923 307.657 29.8906 306.89 30.4872C306.123 31.0838 305.545 31.9029 305.157 32.9446C304.769 33.9768 304.575 35.151 304.575 36.4673C304.575 37.8026 304.769 38.9721 305.157 39.9759C305.555 40.9702 306.137 41.7467 306.904 42.3054C307.681 42.8546 308.632 43.1293 309.759 43.1293ZM329.37 34.6918V47.4759H324.228V18.385H329.256V29.3651H329.512C330.023 28.134 330.814 27.1634 331.884 26.4531C332.964 25.7334 334.337 25.3736 336.004 25.3736C337.519 25.3736 338.84 25.6908 339.967 26.3253C341.094 26.9598 341.965 27.8878 342.58 29.1094C343.205 30.331 343.518 31.8225 343.518 33.5838V47.4759H338.376V34.3793C338.376 32.9115 337.997 31.7704 337.239 30.956C336.491 30.1321 335.44 29.7202 334.086 29.7202C333.177 29.7202 332.362 29.919 331.643 30.3168C330.933 30.705 330.374 31.2685 329.967 32.0071C329.569 32.7457 329.37 33.6406 329.37 34.6918ZM358.654 25.6577V29.635H346.112V25.6577H358.654ZM349.208 20.4304H354.35V40.9134C354.35 41.6046 354.454 42.135 354.663 42.5043C354.88 42.8641 355.165 43.1103 355.515 43.2429C355.865 43.3755 356.254 43.4418 356.68 43.4418C357.002 43.4418 357.295 43.4181 357.56 43.3707C357.835 43.3234 358.043 43.2808 358.185 43.2429L359.052 47.2628C358.777 47.3575 358.384 47.4617 357.873 47.5753C357.371 47.6889 356.755 47.7552 356.026 47.7742C354.738 47.812 353.578 47.6179 352.546 47.1918C351.514 46.7562 350.695 46.0838 350.089 45.1747C349.492 44.2656 349.199 43.1293 349.208 41.7656V20.4304ZM367.097 34.6918V47.4759H361.955V25.6577H366.869V29.3651H367.125C367.627 28.1435 368.427 27.1728 369.526 26.4531C370.634 25.7334 372.002 25.3736 373.631 25.3736C375.136 25.3736 376.448 25.6956 377.565 26.3395C378.692 26.9834 379.563 27.9162 380.179 29.1378C380.804 30.3594 381.112 31.8414 381.102 33.5838V47.4759H375.96V34.3793C375.96 32.9209 375.581 31.7798 374.824 30.956C374.076 30.1321 373.039 29.7202 371.713 29.7202C370.813 29.7202 370.013 29.919 369.312 30.3168C368.621 30.705 368.077 31.2685 367.679 32.0071C367.291 32.7457 367.097 33.6406 367.097 34.6918ZM385.33 47.4759V25.6577H390.472V47.4759H385.33ZM387.915 22.5611C387.1 22.5611 386.4 22.2912 385.812 21.7514C385.225 21.2022 384.932 20.544 384.932 19.777C384.932 19.0005 385.225 18.3423 385.812 17.8026C386.4 17.2533 387.1 16.9787 387.915 16.9787C388.739 16.9787 389.439 17.2533 390.017 17.8026C390.604 18.3423 390.898 19.0005 390.898 19.777C390.898 20.544 390.604 21.2022 390.017 21.7514C389.439 22.2912 388.739 22.5611 387.915 22.5611ZM399.901 34.6918V47.4759H394.759V25.6577H399.674V29.3651H399.93C400.432 28.1435 401.232 27.1728 402.33 26.4531C403.438 25.7334 404.807 25.3736 406.435 25.3736C407.941 25.3736 409.253 25.6956 410.37 26.3395C411.497 26.9834 412.368 27.9162 412.984 29.1378C413.609 30.3594 413.916 31.8414 413.907 33.5838V47.4759H408.765V34.3793C408.765 32.9209 408.386 31.7798 407.629 30.956C406.88 30.1321 405.844 29.7202 404.518 29.7202C403.618 29.7202 402.818 29.919 402.117 30.3168C401.426 30.705 400.881 31.2685 400.484 32.0071C400.095 32.7457 399.901 33.6406 399.901 34.6918ZM427.623 56.1122C425.776 56.1122 424.19 55.8613 422.864 55.3594C421.539 54.867 420.473 54.2041 419.668 53.3707C418.863 52.5374 418.305 51.6141 417.992 50.6009L422.623 49.4787C422.831 49.9048 423.134 50.3262 423.532 50.7429C423.93 51.169 424.465 51.5194 425.137 51.794C425.819 52.0781 426.676 52.2202 427.708 52.2202C429.166 52.2202 430.374 51.8651 431.33 51.1548C432.287 50.4541 432.765 49.2988 432.765 47.6889V43.5554H432.509C432.244 44.0857 431.856 44.6302 431.344 45.1889C430.843 45.7476 430.175 46.2164 429.342 46.5952C428.518 46.974 427.481 47.1634 426.231 47.1634C424.555 47.1634 423.035 46.7704 421.671 45.9844C420.317 45.1889 419.237 44.0052 418.433 42.4332C417.637 40.8518 417.239 38.8726 417.239 36.4957C417.239 34.0999 417.637 32.0781 418.433 30.4304C419.237 28.7732 420.322 27.5185 421.685 26.6662C423.049 25.8045 424.569 25.3736 426.245 25.3736C427.523 25.3736 428.575 25.5914 429.398 26.027C430.232 26.4531 430.895 26.9692 431.387 27.5753C431.879 28.1719 432.254 28.7353 432.509 29.2656H432.793V25.6577H437.864V47.831C437.864 49.6965 437.419 51.2401 436.529 52.4617C435.639 53.6832 434.422 54.5971 432.879 55.2031C431.335 55.8092 429.583 56.1122 427.623 56.1122ZM427.665 43.1293C428.754 43.1293 429.683 42.8641 430.45 42.3338C431.217 41.8035 431.799 41.0412 432.197 40.0469C432.594 39.0526 432.793 37.8594 432.793 36.4673C432.793 35.0942 432.594 33.8916 432.197 32.8594C431.808 31.8272 431.231 31.027 430.464 30.4588C429.706 29.8812 428.773 29.5923 427.665 29.5923C426.52 29.5923 425.563 29.8906 424.796 30.4872C424.029 31.0838 423.451 31.9029 423.063 32.9446C422.675 33.9768 422.481 35.151 422.481 36.4673C422.481 37.8026 422.675 38.9721 423.063 39.9759C423.461 40.9702 424.043 41.7467 424.81 42.3054C425.587 42.8546 426.539 43.1293 427.665 43.1293Z" fill="#1C1C1C"/>
<path d="M123.159 75.4757H121.045C120.92 74.8677 120.702 74.3336 120.389 73.8734C120.082 73.4132 119.707 73.0268 119.264 72.7143C118.827 72.3961 118.341 72.1575 117.807 71.9984C117.273 71.8393 116.716 71.7598 116.136 71.7598C115.08 71.7598 114.122 72.0268 113.264 72.5609C112.412 73.095 111.733 73.8819 111.227 74.9217C110.727 75.9615 110.477 77.237 110.477 78.7484C110.477 80.2598 110.727 81.5353 111.227 82.5751C111.733 83.6149 112.412 84.4018 113.264 84.9359C114.122 85.47 115.08 85.737 116.136 85.737C116.716 85.737 117.273 85.6575 117.807 85.4984C118.341 85.3393 118.827 85.1035 119.264 84.791C119.707 84.4728 120.082 84.0836 120.389 83.6234C120.702 83.1575 120.92 82.6234 121.045 82.0211H123.159C123 82.9132 122.71 83.7115 122.29 84.416C121.869 85.1206 121.347 85.72 120.722 86.2143C120.097 86.703 119.395 87.0751 118.616 87.3308C117.844 87.5865 117.017 87.7143 116.136 87.7143C114.648 87.7143 113.324 87.3507 112.165 86.6234C111.006 85.8961 110.094 84.862 109.429 83.5211C108.764 82.1802 108.432 80.5893 108.432 78.7484C108.432 76.9075 108.764 75.3166 109.429 73.9757C110.094 72.6348 111.006 71.6007 112.165 70.8734C113.324 70.1461 114.648 69.7825 116.136 69.7825C117.017 69.7825 117.844 69.9103 118.616 70.166C119.395 70.4217 120.097 70.7967 120.722 71.291C121.347 71.7797 121.869 72.3762 122.29 73.0808C122.71 73.7797 123 74.5779 123.159 75.4757ZM126.302 87.4757V74.3848H128.245V76.362H128.381C128.62 75.7143 129.052 75.1887 129.677 74.7853C130.302 74.3819 131.006 74.1802 131.79 74.1802C131.938 74.1802 132.123 74.1831 132.344 74.1887C132.566 74.1944 132.734 74.203 132.847 74.2143V76.2598C132.779 76.2427 132.623 76.2172 132.379 76.1831C132.14 76.1433 131.887 76.1234 131.62 76.1234C130.984 76.1234 130.415 76.2569 129.915 76.524C129.421 76.7853 129.029 77.149 128.739 77.6149C128.455 78.0751 128.313 78.6007 128.313 79.1916V87.4757H126.302ZM140.322 87.7484C139.06 87.7484 137.972 87.47 137.058 86.9132C136.148 86.3507 135.447 85.5666 134.952 84.5609C134.464 83.5495 134.219 82.3734 134.219 81.0325C134.219 79.6916 134.464 78.5098 134.952 77.487C135.447 76.4586 136.134 75.6575 137.015 75.0836C137.901 74.5041 138.935 74.2143 140.117 74.2143C140.799 74.2143 141.472 74.328 142.137 74.5552C142.802 74.7825 143.407 75.1518 143.952 75.6632C144.498 76.1689 144.933 76.8393 145.256 77.6745C145.58 78.5098 145.742 79.5382 145.742 80.7598V81.612H135.651V79.8734H143.697C143.697 79.1348 143.549 78.4757 143.254 77.8961C142.964 77.3166 142.549 76.8592 142.009 76.524C141.475 76.1887 140.844 76.0211 140.117 76.0211C139.316 76.0211 138.623 76.22 138.038 76.6177C137.458 77.0098 137.012 77.5211 136.7 78.1518C136.387 78.7825 136.231 79.4586 136.231 80.1802V81.3393C136.231 82.328 136.401 83.166 136.742 83.8535C137.089 84.5353 137.569 85.0552 138.183 85.4132C138.796 85.7655 139.509 85.9416 140.322 85.9416C140.85 85.9416 141.327 85.8677 141.754 85.72C142.185 85.5666 142.558 85.3393 142.87 85.0382C143.183 84.7314 143.424 84.3507 143.594 83.8961L145.538 84.4416C145.333 85.1007 144.989 85.6802 144.506 86.1802C144.023 86.6745 143.427 87.0609 142.717 87.3393C142.006 87.612 141.208 87.7484 140.322 87.7484ZM152.654 87.7825C151.825 87.7825 151.072 87.6262 150.396 87.3137C149.719 86.9956 149.183 86.5382 148.785 85.9416C148.387 85.3393 148.188 84.612 148.188 83.7598C148.188 83.0098 148.336 82.4018 148.631 81.9359C148.927 81.4643 149.322 81.095 149.816 80.8279C150.31 80.5609 150.856 80.362 151.452 80.2314C152.055 80.095 152.66 79.987 153.268 79.9075C154.063 79.8052 154.708 79.7285 155.202 79.6774C155.702 79.6206 156.066 79.5268 156.293 79.3961C156.526 79.2655 156.643 79.0382 156.643 78.7143V78.6461C156.643 77.8052 156.413 77.1518 155.952 76.6859C155.498 76.22 154.808 75.987 153.881 75.987C152.921 75.987 152.168 76.1973 151.623 76.6177C151.077 77.0382 150.694 77.487 150.472 77.9643L148.563 77.2825C148.904 76.487 149.359 75.8677 149.927 75.4245C150.501 74.9757 151.126 74.6632 151.802 74.487C152.484 74.3052 153.154 74.2143 153.813 74.2143C154.234 74.2143 154.717 74.2655 155.262 74.3677C155.813 74.4643 156.344 74.666 156.856 74.9728C157.373 75.2797 157.802 75.7427 158.143 76.362C158.484 76.9814 158.654 77.8109 158.654 78.8507V87.4757H156.643V85.703H156.54C156.404 85.987 156.177 86.291 155.859 86.6149C155.54 86.9387 155.117 87.2143 154.589 87.4416C154.06 87.6689 153.415 87.7825 152.654 87.7825ZM152.961 85.9757C153.756 85.9757 154.427 85.8194 154.972 85.5069C155.523 85.1944 155.938 84.791 156.217 84.2967C156.501 83.8024 156.643 83.2825 156.643 82.737V80.8961C156.558 80.9984 156.37 81.0922 156.08 81.1774C155.796 81.2569 155.467 81.3279 155.092 81.3904C154.722 81.4473 154.362 81.4984 154.009 81.5439C153.663 81.5836 153.381 81.6177 153.165 81.6461C152.643 81.7143 152.154 81.8251 151.7 81.9785C151.251 82.1262 150.887 82.3507 150.609 82.6518C150.336 82.9473 150.2 83.3507 150.2 83.862C150.2 84.5609 150.458 85.0893 150.975 85.4473C151.498 85.7995 152.16 85.9757 152.961 85.9757ZM168.018 74.3848V76.0893H161.234V74.3848H168.018ZM163.212 71.2484H165.223V83.7257C165.223 84.2939 165.305 84.72 165.47 85.0041C165.641 85.2825 165.857 85.47 166.118 85.5666C166.385 85.6575 166.666 85.703 166.962 85.703C167.183 85.703 167.365 85.6916 167.507 85.6689C167.649 85.6405 167.763 85.6177 167.848 85.6007L168.257 87.4075C168.121 87.4586 167.93 87.5098 167.686 87.5609C167.442 87.6177 167.132 87.6461 166.757 87.6461C166.189 87.6461 165.632 87.524 165.087 87.2797C164.547 87.0353 164.098 86.6632 163.74 86.1632C163.388 85.6632 163.212 85.0325 163.212 84.2711V71.2484ZM176.392 87.7484C175.131 87.7484 174.043 87.47 173.128 86.9132C172.219 86.3507 171.517 85.5666 171.023 84.5609C170.534 83.5495 170.29 82.3734 170.29 81.0325C170.29 79.6916 170.534 78.5098 171.023 77.487C171.517 76.4586 172.205 75.6575 173.085 75.0836C173.972 74.5041 175.006 74.2143 176.188 74.2143C176.869 74.2143 177.543 74.328 178.207 74.5552C178.872 74.7825 179.477 75.1518 180.023 75.6632C180.568 76.1689 181.003 76.8393 181.327 77.6745C181.651 78.5098 181.812 79.5382 181.812 80.7598V81.612H171.722V79.8734H179.767C179.767 79.1348 179.619 78.4757 179.324 77.8961C179.034 77.3166 178.619 76.8592 178.08 76.524C177.545 76.1887 176.915 76.0211 176.188 76.0211C175.386 76.0211 174.693 76.22 174.108 76.6177C173.528 77.0098 173.082 77.5211 172.77 78.1518C172.457 78.7825 172.301 79.4586 172.301 80.1802V81.3393C172.301 82.328 172.472 83.166 172.812 83.8535C173.159 84.5353 173.639 85.0552 174.253 85.4132C174.866 85.7655 175.58 85.9416 176.392 85.9416C176.92 85.9416 177.398 85.8677 177.824 85.72C178.256 85.5666 178.628 85.3393 178.94 85.0382C179.253 84.7314 179.494 84.3507 179.665 83.8961L181.608 84.4416C181.403 85.1007 181.06 85.6802 180.577 86.1802C180.094 86.6745 179.497 87.0609 178.787 87.3393C178.077 87.612 177.278 87.7484 176.392 87.7484ZM189.815 87.7484C188.724 87.7484 187.761 87.4728 186.926 86.9217C186.091 86.3649 185.438 85.5808 184.966 84.5694C184.494 83.5524 184.259 82.3507 184.259 80.9643C184.259 79.5893 184.494 78.3961 184.966 77.3848C185.438 76.3734 186.094 75.5922 186.935 75.041C187.776 74.4899 188.747 74.2143 189.849 74.2143C190.702 74.2143 191.375 74.3564 191.869 74.6405C192.369 74.9189 192.75 75.237 193.011 75.595C193.278 75.9473 193.486 76.237 193.634 76.4643H193.804V70.0211H195.815V87.4757H193.872V85.4643H193.634C193.486 85.703 193.276 86.0041 193.003 86.3677C192.73 86.7257 192.341 87.0467 191.835 87.3308C191.33 87.6092 190.656 87.7484 189.815 87.7484ZM190.088 85.9416C190.895 85.9416 191.577 85.7314 192.134 85.3109C192.69 84.8848 193.114 84.2967 193.403 83.5467C193.693 82.791 193.838 81.9189 193.838 80.9302C193.838 79.9529 193.696 79.0978 193.412 78.3649C193.128 77.6262 192.707 77.0524 192.151 76.6433C191.594 76.2285 190.906 76.0211 190.088 76.0211C189.236 76.0211 188.526 76.2399 187.957 76.6774C187.395 77.1092 186.972 77.6973 186.688 78.4416C186.409 79.1802 186.27 80.0098 186.27 80.9302C186.27 81.862 186.412 82.7086 186.696 83.47C186.986 84.2257 187.412 84.828 187.974 85.2768C188.543 85.72 189.247 85.9416 190.088 85.9416ZM206.801 87.4757V70.0211H208.812V76.4643H208.983C209.131 76.237 209.335 75.9473 209.597 75.595C209.864 75.237 210.244 74.9189 210.739 74.6405C211.239 74.3564 211.915 74.2143 212.767 74.2143C213.869 74.2143 214.841 74.4899 215.682 75.041C216.523 75.5922 217.179 76.3734 217.651 77.3848C218.122 78.3961 218.358 79.5893 218.358 80.9643C218.358 82.3507 218.122 83.5524 217.651 84.5694C217.179 85.5808 216.526 86.3649 215.69 86.9217C214.855 87.4728 213.892 87.7484 212.801 87.7484C211.96 87.7484 211.287 87.6092 210.781 87.3308C210.276 87.0467 209.886 86.7257 209.614 86.3677C209.341 86.0041 209.131 85.703 208.983 85.4643H208.744V87.4757H206.801ZM208.778 80.9302C208.778 81.9189 208.923 82.791 209.213 83.5467C209.503 84.2967 209.926 84.8848 210.483 85.3109C211.04 85.7314 211.722 85.9416 212.528 85.9416C213.369 85.9416 214.071 85.72 214.634 85.2768C215.202 84.828 215.628 84.2257 215.912 83.47C216.202 82.7086 216.347 81.862 216.347 80.9302C216.347 80.0098 216.205 79.1802 215.92 78.4416C215.642 77.6973 215.219 77.1092 214.651 76.6774C214.088 76.2399 213.381 76.0211 212.528 76.0211C211.71 76.0211 211.023 76.2285 210.466 76.6433C209.909 77.0524 209.489 77.6262 209.205 78.3649C208.92 79.0978 208.778 79.9529 208.778 80.9302ZM222.261 92.3848C221.92 92.3848 221.616 92.3564 221.349 92.2995C221.082 92.2484 220.898 92.1973 220.795 92.1461L221.307 90.3734C221.795 90.4984 222.227 90.5439 222.602 90.5098C222.977 90.4757 223.31 90.3081 223.599 90.0069C223.895 89.7115 224.165 89.2314 224.409 88.5666L224.784 87.5439L219.943 74.3848H222.125L225.739 84.8166H225.875L229.489 74.3848H231.67L226.114 89.3848C225.864 90.0609 225.554 90.6206 225.185 91.0637C224.815 91.5126 224.386 91.845 223.898 92.0609C223.415 92.2768 222.869 92.3848 222.261 92.3848ZM241.348 87.4757V70.0211H243.462V85.6007H251.575V87.4757H241.348ZM254.575 87.4757V74.3848H256.587V87.4757H254.575ZM255.598 72.203C255.206 72.203 254.868 72.0694 254.584 71.8024C254.305 71.5353 254.166 71.2143 254.166 70.8393C254.166 70.4643 254.305 70.1433 254.584 69.8762C254.868 69.6092 255.206 69.4757 255.598 69.4757C255.99 69.4757 256.325 69.6092 256.604 69.8762C256.888 70.1433 257.03 70.4643 257.03 70.8393C257.03 71.2143 256.888 71.5353 256.604 71.8024C256.325 72.0694 255.99 72.203 255.598 72.203ZM265.555 92.6575C264.583 92.6575 263.748 92.5325 263.049 92.2825C262.35 92.0382 261.768 91.7143 261.302 91.3109C260.842 90.9132 260.475 90.487 260.202 90.0325L261.805 88.9075C261.987 89.1461 262.217 89.4189 262.495 89.7257C262.773 90.0382 263.154 90.3081 263.637 90.5353C264.126 90.7683 264.765 90.8848 265.555 90.8848C266.612 90.8848 267.484 90.6291 268.171 90.1177C268.859 89.6064 269.202 88.8052 269.202 87.7143V85.0552H269.032C268.884 85.2939 268.674 85.5893 268.401 85.9416C268.134 86.2882 267.748 86.5978 267.242 86.8706C266.742 87.1376 266.066 87.2711 265.214 87.2711C264.157 87.2711 263.208 87.0211 262.367 86.5211C261.532 86.0211 260.87 85.2939 260.381 84.3393C259.898 83.3848 259.657 82.2257 259.657 80.862C259.657 79.5211 259.893 78.3535 260.364 77.3592C260.836 76.3592 261.492 75.5865 262.333 75.041C263.174 74.4899 264.146 74.2143 265.248 74.2143C266.1 74.2143 266.776 74.3564 267.276 74.6405C267.782 74.9189 268.168 75.237 268.435 75.595C268.708 75.9473 268.918 76.237 269.066 76.4643H269.271V74.3848H271.214V87.8507C271.214 88.9757 270.958 89.8905 270.447 90.595C269.941 91.3052 269.259 91.8251 268.401 92.1547C267.549 92.4899 266.6 92.6575 265.555 92.6575ZM265.487 85.4643C266.293 85.4643 266.975 85.2797 267.532 84.9103C268.089 84.541 268.512 84.0098 268.802 83.3166C269.092 82.6234 269.237 81.7939 269.237 80.8279C269.237 79.8848 269.094 79.0524 268.81 78.3308C268.526 77.6092 268.106 77.0439 267.549 76.6348C266.992 76.2257 266.305 76.0211 265.487 76.0211C264.634 76.0211 263.924 76.237 263.356 76.6689C262.793 77.1007 262.37 77.6802 262.086 78.4075C261.808 79.1348 261.668 79.9416 261.668 80.8279C261.668 81.737 261.81 82.541 262.094 83.2399C262.384 83.9331 262.81 84.4785 263.373 84.8762C263.941 85.2683 264.646 85.4643 265.487 85.4643ZM276.907 79.6007V87.4757H274.896V70.0211H276.907V76.4302H277.077C277.384 75.7541 277.844 75.2172 278.458 74.8194C279.077 74.416 279.901 74.2143 280.93 74.2143C281.822 74.2143 282.603 74.3933 283.273 74.7512C283.944 75.1035 284.464 75.6461 284.833 76.3791C285.208 77.1064 285.396 78.0325 285.396 79.1575V87.4757H283.384V79.2939C283.384 78.2541 283.114 77.4501 282.575 76.8819C282.04 76.3081 281.299 76.0211 280.35 76.0211C279.691 76.0211 279.1 76.1603 278.577 76.4387C278.06 76.7172 277.651 77.1234 277.35 77.6575C277.055 78.1916 276.907 78.8393 276.907 79.6007ZM294.768 74.3848V76.0893H287.984V74.3848H294.768ZM289.962 71.2484H291.973V83.7257C291.973 84.2939 292.055 84.72 292.22 85.0041C292.391 85.2825 292.607 85.47 292.868 85.5666C293.135 85.6575 293.416 85.703 293.712 85.703C293.933 85.703 294.115 85.6916 294.257 85.6689C294.399 85.6405 294.513 85.6177 294.598 85.6007L295.007 87.4075C294.871 87.4586 294.68 87.5098 294.436 87.5609C294.192 87.6177 293.882 87.6461 293.507 87.6461C292.939 87.6461 292.382 87.524 291.837 87.2797C291.297 87.0353 290.848 86.6632 290.49 86.1632C290.138 85.6632 289.962 85.0325 289.962 84.2711V71.2484ZM299.805 79.6007V87.4757H297.794V74.3848H299.737V76.4302H299.908C300.214 75.7655 300.68 75.2314 301.305 74.828C301.93 74.4189 302.737 74.2143 303.726 74.2143C304.612 74.2143 305.388 74.3961 306.053 74.7598C306.717 75.1177 307.234 75.6632 307.604 76.3961C307.973 77.1234 308.158 78.0439 308.158 79.1575V87.4757H306.146V79.2939C306.146 78.2655 305.879 77.4643 305.345 76.8904C304.811 76.3109 304.078 76.0211 303.146 76.0211C302.504 76.0211 301.93 76.1603 301.425 76.4387C300.925 76.7172 300.53 77.1234 300.24 77.6575C299.95 78.1916 299.805 78.8393 299.805 79.6007ZM311.833 87.4757V74.3848H313.844V87.4757H311.833ZM312.856 72.203C312.464 72.203 312.126 72.0694 311.842 71.8024C311.563 71.5353 311.424 71.2143 311.424 70.8393C311.424 70.4643 311.563 70.1433 311.842 69.8762C312.126 69.6092 312.464 69.4757 312.856 69.4757C313.248 69.4757 313.583 69.6092 313.862 69.8762C314.146 70.1433 314.288 70.4643 314.288 70.8393C314.288 71.2143 314.146 71.5353 313.862 71.8024C313.583 72.0694 313.248 72.203 312.856 72.203ZM319.54 79.6007V87.4757H317.528V74.3848H319.472V76.4302H319.642C319.949 75.7655 320.415 75.2314 321.04 74.828C321.665 74.4189 322.472 74.2143 323.46 74.2143C324.347 74.2143 325.122 74.3961 325.787 74.7598C326.452 75.1177 326.969 75.6632 327.338 76.3961C327.707 77.1234 327.892 78.0439 327.892 79.1575V87.4757H325.881V79.2939C325.881 78.2655 325.614 77.4643 325.08 76.8904C324.545 76.3109 323.813 76.0211 322.881 76.0211C322.239 76.0211 321.665 76.1603 321.159 76.4387C320.659 76.7172 320.264 77.1234 319.974 77.6575C319.685 78.1916 319.54 78.8393 319.54 79.6007ZM336.852 92.6575C335.88 92.6575 335.045 92.5325 334.346 92.2825C333.647 92.0382 333.065 91.7143 332.599 91.3109C332.138 90.9132 331.772 90.487 331.499 90.0325L333.102 88.9075C333.283 89.1461 333.513 89.4189 333.792 89.7257C334.07 90.0382 334.451 90.3081 334.934 90.5353C335.423 90.7683 336.062 90.8848 336.852 90.8848C337.908 90.8848 338.781 90.6291 339.468 90.1177C340.156 89.6064 340.499 88.8052 340.499 87.7143V85.0552H340.329C340.181 85.2939 339.971 85.5893 339.698 85.9416C339.431 86.2882 339.045 86.5978 338.539 86.8706C338.039 87.1376 337.363 87.2711 336.511 87.2711C335.454 87.2711 334.505 87.0211 333.664 86.5211C332.829 86.0211 332.167 85.2939 331.678 84.3393C331.195 83.3848 330.954 82.2257 330.954 80.862C330.954 79.5211 331.19 78.3535 331.661 77.3592C332.133 76.3592 332.789 75.5865 333.63 75.041C334.471 74.4899 335.442 74.2143 336.545 74.2143C337.397 74.2143 338.073 74.3564 338.573 74.6405C339.079 74.9189 339.465 75.237 339.732 75.595C340.005 75.9473 340.215 76.237 340.363 76.4643H340.567V74.3848H342.511V87.8507C342.511 88.9757 342.255 89.8905 341.744 90.595C341.238 91.3052 340.556 91.8251 339.698 92.1547C338.846 92.4899 337.897 92.6575 336.852 92.6575ZM336.783 85.4643C337.59 85.4643 338.272 85.2797 338.829 84.9103C339.386 84.541 339.809 84.0098 340.099 83.3166C340.388 82.6234 340.533 81.7939 340.533 80.8279C340.533 79.8848 340.391 79.0524 340.107 78.3308C339.823 77.6092 339.403 77.0439 338.846 76.6348C338.289 76.2257 337.602 76.0211 336.783 76.0211C335.931 76.0211 335.221 76.237 334.653 76.6689C334.09 77.1007 333.667 77.6802 333.383 78.4075C333.104 79.1348 332.965 79.9416 332.965 80.8279C332.965 81.737 333.107 82.541 333.391 83.2399C333.681 83.9331 334.107 84.4785 334.67 84.8762C335.238 85.2683 335.942 85.4643 336.783 85.4643ZM353.931 87.4757H351.715L358.124 70.0211H360.306L366.715 87.4757H364.499L359.283 72.7825H359.147L353.931 87.4757ZM354.749 80.6575H363.681V82.5325H354.749V80.6575ZM371.548 70.0211V87.4757H369.434V70.0211H371.548Z" fill="#4F4F4F"/>
<defs>
<linearGradient id="paint0_linear_402_115" x1="61.9776" y1="31.7057" x2="-41.3019" y2="125.09" gradientUnits="userSpaceOnUse">
<stop stop-color="#792EE5"/>
<stop offset="1" stop-color="#428FF4"/>
</linearGradient>
</defs>
</svg>
