<svg width="385" height="101" viewBox="0 0 385 101" fill="none" xmlns="http://www.w3.org/2000/svg">
<g clip-path="url(#clip0_402_129)">
<path d="M41.5765 1.57696L1.78056 24.6539C1.191 24.9497 0.896211 25.5415 0.306642 26.1332C0.0665573 26.6922 -0.0346068 27.3014 0.0118562 27.9083V74.0622C0.0729164 74.6908 0.27444 75.2976 0.601428 75.8373C0.935017 76.4667 1.44824 76.9818 2.07535 77.3166L41.5765 100.394C42.0867 100.778 42.7074 100.985 43.3452 100.985C43.983 100.985 44.6036 100.778 45.1139 100.394L84.615 77.3166C85.2421 76.9818 85.7554 76.4667 86.0889 75.8373C86.4159 75.2976 86.6175 74.6908 86.6785 74.0622V27.9379C86.6175 27.3092 86.4159 26.7025 86.0889 26.1628C85.7554 25.5334 85.2421 25.0183 84.615 24.6835L45.1139 1.60655C44.5761 1.27837 43.9716 1.07611 43.3452 1.01483C42.7211 1.06707 42.1167 1.25917 41.5765 1.57696Z" fill="url(#paint0_linear_402_129)"/>
<g clip-path="url(#clip1_402_129)">
<path d="M67.6675 50.6829C67.5909 49.5408 67.0834 48.4704 66.2478 47.6882C65.4121 46.906 64.3106 46.4703 63.166 46.4692H63.1524C62.1912 46.4719 61.2559 46.7808 60.4822 47.3511C59.7085 47.9214 59.1366 48.7234 58.8496 49.6407H52.6205V46.38C52.6213 46.0294 52.5305 45.6847 52.3573 45.3799C52.1841 45.0752 51.9343 44.8209 51.6327 44.6422L51.6098 44.6286L55.2688 40.9704C56.2251 41.472 57.3294 41.6143 58.3816 41.3715C59.4338 41.1287 60.3642 40.5169 61.0041 39.6471C61.644 38.7772 61.951 37.7068 61.8694 36.63C61.7879 35.5533 61.3232 34.5413 60.5596 33.7777C59.796 33.0142 58.7841 32.5495 57.7074 32.4679C56.6306 32.3864 55.5602 32.6934 54.6904 33.3332C53.8205 33.9731 53.2087 34.9035 52.966 35.9558C52.7232 37.008 52.8655 38.1124 53.3671 39.0687L49.2053 43.2306L44.6936 40.5975V35.4759C45.7242 35.1544 46.6056 34.4742 47.1778 33.5587C47.75 32.6431 47.9753 31.5529 47.8127 30.4855C47.6501 29.4182 47.1104 28.4444 46.2915 27.7408C45.4726 27.0372 44.4287 26.6503 43.349 26.6503C42.2694 26.6503 41.2255 27.0372 40.4066 27.7408C39.5877 28.4444 39.048 29.4182 38.8854 30.4855C38.7228 31.5529 38.948 32.6431 39.5203 33.5587C40.0925 34.4742 40.9739 35.1544 42.0045 35.4759V40.5975L37.4936 43.2238L33.3319 39.0619C33.8334 38.1056 33.9757 37.0012 33.7329 35.949C33.4902 34.8967 32.8784 33.9663 32.0085 33.3265C31.1387 32.6866 30.0683 32.3796 28.9916 32.4611C27.9148 32.5427 26.9029 33.0074 26.1393 33.7709C25.3757 34.5345 24.911 35.5465 24.8295 36.6232C24.748 37.7 25.055 38.7704 25.6948 39.6403C26.3347 40.5101 27.2651 41.1219 28.3173 41.3647C29.3695 41.6075 30.4739 41.4652 31.4302 40.9636L35.0891 44.6218L35.0671 44.6354C34.7646 44.8137 34.5141 45.0679 34.3402 45.3729C34.1663 45.6779 34.0752 46.023 34.0759 46.374V49.6373H27.8417C27.5202 48.6064 26.8399 47.7248 25.9242 47.1524C25.0085 46.58 23.918 46.3547 22.8505 46.5173C21.7829 46.6799 20.809 47.2197 20.1052 48.0387C19.4015 48.8578 19.0145 49.9019 19.0145 50.9818C19.0145 52.0617 19.4015 53.1059 20.1052 53.9249C20.809 54.744 21.7829 55.2838 22.8505 55.4464C23.918 55.609 25.0085 55.3837 25.9242 54.8113C26.8399 54.2389 27.5202 53.3573 27.8417 52.3264H34.0759V55.5879C34.0759 55.9387 34.1675 56.2834 34.3414 56.588C34.5154 56.8926 34.7658 57.1466 35.0679 57.3249L35.0908 57.3384L31.4319 60.9966C30.4756 60.4951 29.3712 60.3528 28.319 60.5955C27.2668 60.8383 26.3364 61.4501 25.6965 62.32C25.0567 63.1899 24.7497 64.2602 24.8312 65.337C24.9127 66.4138 25.3774 67.4257 26.141 68.1893C26.9046 68.9529 27.9165 69.4176 28.9933 69.4991C30.07 69.5807 31.1404 69.2737 32.0102 68.6338C32.8801 67.9939 33.4919 67.0635 33.7346 66.0113C33.9774 64.9591 33.8351 63.8547 33.3336 62.8984L37.4953 58.7365L42.0037 61.3704V66.492C40.9728 66.8135 40.0912 67.4938 39.5188 68.4095C38.9464 69.3252 38.7211 70.4157 38.8837 71.4833C39.0463 72.5509 39.5861 73.5248 40.4051 74.2286C41.2242 74.9324 42.2683 75.3193 43.3482 75.3193C44.428 75.3193 45.4722 74.9324 46.2912 74.2286C47.1103 73.5248 47.6501 72.5509 47.8127 71.4833C47.9753 70.4157 47.7499 69.3252 47.1776 68.4095C46.6052 67.4938 45.7236 66.8135 44.6927 66.492V61.3704L49.2044 58.7441L53.3662 62.906C52.8643 63.8624 52.7218 64.9671 52.9645 66.0196C53.2073 67.0721 53.8192 68.0028 54.6894 68.6427C55.5595 69.2827 56.6302 69.5895 57.7072 69.5077C58.7842 69.4258 59.7962 68.9606 60.5597 68.1965C61.3231 67.4324 61.7874 66.42 61.8683 65.3428C61.9491 64.2657 61.6413 63.1953 61.0006 62.3257C60.3599 61.4561 59.4287 60.845 58.376 60.6032C57.3233 60.3614 56.2188 60.5049 55.2628 61.0077L51.6013 57.3452L51.6234 57.3316C51.9268 57.1541 52.1785 56.9001 52.3535 56.5951C52.5284 56.2901 52.6205 55.9446 52.6205 55.593V52.3298H58.8547C59.1832 53.3862 59.8882 54.2853 60.8358 54.8564C61.7834 55.4274 62.9077 55.6306 63.9953 55.4275C65.0828 55.2243 66.0579 54.6289 66.7355 53.7543C67.4131 52.8797 67.7459 51.7867 67.6709 50.6829H67.6675ZM63.166 49.1591C63.6501 49.1602 64.1143 49.3521 64.4578 49.6933C64.8 50.036 64.9922 50.5005 64.9922 50.9848C64.9922 51.4691 64.8 51.9336 64.4578 52.2763C64.1144 52.6177 63.6502 52.81 63.166 52.8114C62.6817 52.8114 62.2172 52.619 61.8747 52.2765C61.5323 51.934 61.3399 51.4695 61.3399 50.9852C61.3399 50.5009 61.5323 50.0364 61.8747 49.694C62.2172 49.3515 62.6817 49.1591 63.166 49.1591ZM57.3497 63.1438C57.592 63.1469 57.8315 63.1977 58.0542 63.2935C58.2769 63.3893 58.4785 63.528 58.6474 63.7019L58.6542 63.7086C58.995 64.0509 59.1863 64.5142 59.1863 64.9971C59.1863 65.4801 58.995 65.9434 58.6542 66.2856C58.3044 66.6183 57.8401 66.8038 57.3573 66.8038C56.8745 66.8038 56.4102 66.6183 56.0603 66.2856C55.7969 66.0319 55.6158 65.7049 55.5403 65.347C55.4648 64.9892 55.4984 64.6169 55.6368 64.2784C55.7753 63.9398 56.0121 63.6506 56.3167 63.4482C56.6213 63.2458 56.9797 63.1395 57.3454 63.143L57.3497 63.1438ZM31.1567 36.9708C31.1572 37.2095 31.1106 37.446 31.0195 37.6667C30.9284 37.8874 30.7946 38.0879 30.6258 38.2567C30.2759 38.5883 29.8122 38.773 29.3302 38.773C28.8481 38.773 28.3844 38.5883 28.0345 38.2567C27.8231 38.0437 27.6675 37.782 27.5814 37.4946C27.4952 37.2072 27.4812 36.903 27.5406 36.6089C27.6 36.3148 27.7309 36.0398 27.9218 35.8084C28.1127 35.5769 28.3577 35.3961 28.6352 35.2818C28.9126 35.1675 29.2139 35.1234 29.5124 35.1533C29.811 35.1831 30.0975 35.2861 30.3468 35.4531C30.5961 35.6201 30.8004 35.8459 30.9416 36.1106C31.0829 36.3753 31.1568 36.6707 31.1567 36.9708ZM42.0538 32.4573C41.8837 32.2881 41.7488 32.087 41.6569 31.8653C41.5651 31.6437 41.5181 31.4061 41.5187 31.1662C41.5202 30.682 41.7124 30.2178 42.0538 29.8744C42.3965 29.5322 42.861 29.34 43.3452 29.34C43.8295 29.34 44.2939 29.5322 44.6366 29.8744C44.9778 30.2179 45.1697 30.6821 45.1709 31.1662C45.1708 31.5273 45.0636 31.8803 44.863 32.1805C44.6623 32.4808 44.3772 32.7147 44.0435 32.8529C43.7099 32.9911 43.3428 33.0273 42.9887 32.9568C42.6345 32.8864 42.3092 32.7126 42.0538 32.4573ZM49.9272 48.5747V55.2065L44.6893 58.2566V51.7437L49.9272 48.5747ZM42.0037 51.7437V58.2566L36.7657 55.2057V48.5705L42.0037 51.7437ZM43.349 49.4131L37.8945 46.1048L43.3482 42.9316L48.8078 46.1116L43.349 49.4131ZM44.6366 69.5123C44.8066 69.6815 44.9414 69.8827 45.0331 70.1043C45.1248 70.3259 45.1716 70.5635 45.1709 70.8034C45.1698 71.2875 44.9778 71.7517 44.6366 72.0952C44.2939 72.4374 43.8295 72.6296 43.3452 72.6296C42.861 72.6296 42.3965 72.4374 42.0538 72.0952C41.7123 71.7518 41.5201 71.2876 41.5187 70.8034C41.5186 70.4421 41.6257 70.0889 41.8264 69.7885C42.0271 69.4881 42.3124 69.254 42.6462 69.1158C42.98 68.9776 43.3473 68.9415 43.7016 69.0121C44.0559 69.0826 44.3813 69.2567 44.6366 69.5123ZM57.8321 35.2067C58.1411 35.2897 58.4228 35.4524 58.6492 35.6785C58.8755 35.9047 59.0385 36.1863 59.1218 36.4952C59.2052 36.8041 59.2059 37.1295 59.124 37.4387C59.0421 37.748 58.8804 38.0304 58.6551 38.2576C58.3052 38.5891 57.8415 38.7739 57.3594 38.7739C56.8774 38.7739 56.4137 38.5891 56.0637 38.2576C55.7235 37.9148 55.5329 37.451 55.5339 36.968C55.5348 36.485 55.7272 36.022 56.0688 35.6806L56.0909 35.6568C56.3179 35.4383 56.5974 35.2821 56.9024 35.2033C57.2074 35.1244 57.5276 35.1256 57.8321 35.2067ZM31.1575 64.9997C31.1582 65.2386 31.1117 65.4752 31.0206 65.6961C30.9295 65.9169 30.7956 66.1175 30.6267 66.2865C30.2769 66.618 29.8133 66.8027 29.3314 66.8027C28.8495 66.8027 28.386 66.618 28.0362 66.2865C27.8246 66.0736 27.6688 65.8119 27.5825 65.5245C27.4962 65.2371 27.482 64.9328 27.5413 64.6387C27.6005 64.3445 27.7314 64.0694 27.9222 63.8379C28.113 63.6063 28.358 63.4253 28.6355 63.3109C28.9129 63.1966 29.2142 63.1523 29.5128 63.1821C29.8114 63.2119 30.0981 63.3149 30.3474 63.4818C30.5968 63.6488 30.8011 63.8746 30.9424 64.1394C31.0837 64.4041 31.1576 64.6996 31.1575 64.9997ZM25.3565 50.9852C25.3566 51.2251 25.3094 51.4626 25.2177 51.6842C25.126 51.9058 24.9915 52.1071 24.8219 52.2767C24.6523 52.4463 24.4509 52.5808 24.2293 52.6726C24.0077 52.7643 23.7702 52.8115 23.5304 52.8114C23.0465 52.8102 22.5826 52.6182 22.2394 52.2771C22.0698 52.1075 21.9352 51.9062 21.8434 51.6846C21.7516 51.463 21.7044 51.2255 21.7044 50.9857C21.7044 50.7458 21.7516 50.5083 21.8434 50.2867C21.9352 50.0651 22.0698 49.8638 22.2394 49.6942C22.5825 49.3529 23.0464 49.1606 23.5304 49.1591C24.0146 49.1593 24.479 49.3518 24.8214 49.6942C25.1638 50.0366 25.3563 50.501 25.3565 50.9852Z" fill="white"/>
</g>
</g>
<path d="M107.857 47.9852V18.8943H113.127V43.5676H125.94V47.9852H107.857ZM129.286 47.9852V26.167H134.428V47.9852H129.286ZM131.872 23.0705C131.057 23.0705 130.356 22.8006 129.769 22.2608C129.182 21.7116 128.889 21.0534 128.889 20.2864C128.889 19.5098 129.182 18.8517 129.769 18.3119C130.356 17.7627 131.057 17.4881 131.872 17.4881C132.695 17.4881 133.396 17.7627 133.974 18.3119C134.561 18.8517 134.855 19.5098 134.855 20.2864C134.855 21.0534 134.561 21.7116 133.974 22.2608C133.396 22.8006 132.695 23.0705 131.872 23.0705ZM148.205 56.6216C146.358 56.6216 144.772 56.3706 143.446 55.8688C142.12 55.3763 141.055 54.7134 140.25 53.8801C139.445 53.0468 138.886 52.1235 138.574 51.1102L143.205 49.9881C143.413 50.4142 143.716 50.8356 144.114 51.2523C144.511 51.6784 145.047 52.0288 145.719 52.3034C146.401 52.5875 147.258 52.7295 148.29 52.7295C149.748 52.7295 150.956 52.3744 151.912 51.6642C152.868 50.9634 153.347 49.8081 153.347 48.1983V44.0648H153.091C152.826 44.5951 152.438 45.1396 151.926 45.6983C151.424 46.257 150.757 46.7258 149.923 47.1045C149.1 47.4833 148.063 47.6727 146.813 47.6727C145.136 47.6727 143.617 47.2797 142.253 46.4938C140.899 45.6983 139.819 44.5146 139.014 42.9426C138.219 41.3612 137.821 39.382 137.821 37.0051C137.821 34.6093 138.219 32.5875 139.014 30.9398C139.819 29.2826 140.904 28.0278 142.267 27.1756C143.631 26.3138 145.151 25.883 146.827 25.883C148.105 25.883 149.156 26.1008 149.98 26.5364C150.814 26.9625 151.476 27.4786 151.969 28.0847C152.461 28.6813 152.835 29.2447 153.091 29.775H153.375V26.167H158.446V48.3403C158.446 50.2059 158.001 51.7494 157.111 52.971C156.221 54.1926 155.004 55.1064 153.46 55.7125C151.917 56.3186 150.165 56.6216 148.205 56.6216ZM148.247 43.6386C149.336 43.6386 150.264 43.3735 151.031 42.8432C151.798 42.3129 152.381 41.5506 152.779 40.5563C153.176 39.5619 153.375 38.3688 153.375 36.9767C153.375 35.6036 153.176 34.4009 152.779 33.3688C152.39 32.3366 151.813 31.5364 151.046 30.9682C150.288 30.3905 149.355 30.1017 148.247 30.1017C147.101 30.1017 146.145 30.4 145.378 30.9966C144.611 31.5932 144.033 32.4123 143.645 33.454C143.257 34.4862 143.063 35.6604 143.063 36.9767C143.063 38.3119 143.257 39.4814 143.645 40.4852C144.043 41.4795 144.625 42.2561 145.392 42.8148C146.169 43.364 147.12 43.6386 148.247 43.6386ZM167.858 35.2011V47.9852H162.716V18.8943H167.744V29.8744H168C168.511 28.6434 169.302 27.6727 170.372 26.9625C171.452 26.2428 172.825 25.883 174.492 25.883C176.007 25.883 177.328 26.2002 178.455 26.8347C179.582 27.4691 180.453 28.3972 181.068 29.6188C181.693 30.8403 182.006 32.3318 182.006 34.0932V47.9852H176.864V34.8886C176.864 33.4208 176.485 32.2797 175.727 31.4653C174.979 30.6415 173.928 30.2295 172.574 30.2295C171.665 30.2295 170.85 30.4284 170.131 30.8261C169.421 31.2144 168.862 31.7778 168.455 32.5165C168.057 33.2551 167.858 34.15 167.858 35.2011ZM197.142 26.167V30.1443H184.6V26.167H197.142ZM187.696 20.9398H192.838V41.4227C192.838 42.114 192.942 42.6443 193.151 43.0136C193.368 43.3735 193.653 43.6197 194.003 43.7523C194.353 43.8849 194.742 43.9511 195.168 43.9511C195.49 43.9511 195.783 43.9275 196.048 43.8801C196.323 43.8328 196.531 43.7902 196.673 43.7523L197.54 47.7722C197.265 47.8669 196.872 47.971 196.361 48.0847C195.859 48.1983 195.243 48.2646 194.514 48.2835C193.226 48.3214 192.066 48.1273 191.034 47.7011C190.002 47.2655 189.183 46.5932 188.577 45.6841C187.98 44.775 187.687 43.6386 187.696 42.275V20.9398ZM205.585 35.2011V47.9852H200.443V26.167H205.357V29.8744H205.613C206.115 28.6528 206.915 27.6822 208.014 26.9625C209.122 26.2428 210.49 25.883 212.119 25.883C213.624 25.883 214.936 26.2049 216.053 26.8489C217.18 27.4928 218.051 28.4256 218.667 29.6472C219.292 30.8688 219.6 32.3508 219.59 34.0932V47.9852H214.448V34.8886C214.448 33.4303 214.069 32.2892 213.312 31.4653C212.564 30.6415 211.527 30.2295 210.201 30.2295C209.301 30.2295 208.501 30.4284 207.801 30.8261C207.109 31.2144 206.565 31.7778 206.167 32.5165C205.779 33.2551 205.585 34.15 205.585 35.2011ZM223.818 47.9852V26.167H228.96V47.9852H223.818ZM226.403 23.0705C225.588 23.0705 224.888 22.8006 224.301 22.2608C223.713 21.7116 223.42 21.0534 223.42 20.2864C223.42 19.5098 223.713 18.8517 224.301 18.3119C224.888 17.7627 225.588 17.4881 226.403 17.4881C227.227 17.4881 227.927 17.7627 228.505 18.3119C229.092 18.8517 229.386 19.5098 229.386 20.2864C229.386 21.0534 229.092 21.7116 228.505 22.2608C227.927 22.8006 227.227 23.0705 226.403 23.0705ZM238.389 35.2011V47.9852H233.247V26.167H238.162V29.8744H238.418C238.92 28.6528 239.72 27.6822 240.818 26.9625C241.926 26.2428 243.295 25.883 244.923 25.883C246.429 25.883 247.741 26.2049 248.858 26.8489C249.985 27.4928 250.856 28.4256 251.472 29.6472C252.097 30.8688 252.404 32.3508 252.395 34.0932V47.9852H247.253V34.8886C247.253 33.4303 246.874 32.2892 246.117 31.4653C245.368 30.6415 244.332 30.2295 243.006 30.2295C242.106 30.2295 241.306 30.4284 240.605 30.8261C239.914 31.2144 239.369 31.7778 238.972 32.5165C238.583 33.2551 238.389 34.15 238.389 35.2011ZM266.111 56.6216C264.264 56.6216 262.678 56.3706 261.352 55.8688C260.027 55.3763 258.961 54.7134 258.156 53.8801C257.351 53.0468 256.793 52.1235 256.48 51.1102L261.111 49.9881C261.319 50.4142 261.622 50.8356 262.02 51.2523C262.418 51.6784 262.953 52.0288 263.625 52.3034C264.307 52.5875 265.164 52.7295 266.196 52.7295C267.654 52.7295 268.862 52.3744 269.818 51.6642C270.775 50.9634 271.253 49.8081 271.253 48.1983V44.0648H270.997C270.732 44.5951 270.344 45.1396 269.832 45.6983C269.331 46.257 268.663 46.7258 267.83 47.1045C267.006 47.4833 265.969 47.6727 264.719 47.6727C263.043 47.6727 261.523 47.2797 260.159 46.4938C258.805 45.6983 257.725 44.5146 256.921 42.9426C256.125 41.3612 255.727 39.382 255.727 37.0051C255.727 34.6093 256.125 32.5875 256.921 30.9398C257.725 29.2826 258.81 28.0278 260.173 27.1756C261.537 26.3138 263.057 25.883 264.733 25.883C266.011 25.883 267.063 26.1008 267.886 26.5364C268.72 26.9625 269.383 27.4786 269.875 28.0847C270.368 28.6813 270.742 29.2447 270.997 29.775H271.281V26.167H276.352V48.3403C276.352 50.2059 275.907 51.7494 275.017 52.971C274.127 54.1926 272.91 55.1064 271.367 55.7125C269.823 56.3186 268.071 56.6216 266.111 56.6216ZM266.154 43.6386C267.243 43.6386 268.171 43.3735 268.938 42.8432C269.705 42.3129 270.287 41.5506 270.685 40.5563C271.082 39.5619 271.281 38.3688 271.281 36.9767C271.281 35.6036 271.082 34.4009 270.685 33.3688C270.297 32.3366 269.719 31.5364 268.952 30.9682C268.194 30.3905 267.261 30.1017 266.154 30.1017C265.008 30.1017 264.051 30.4 263.284 30.9966C262.517 31.5932 261.94 32.4123 261.551 33.454C261.163 34.4862 260.969 35.6604 260.969 36.9767C260.969 38.3119 261.163 39.4814 261.551 40.4852C261.949 41.4795 262.531 42.2561 263.298 42.8148C264.075 43.364 265.027 43.6386 266.154 43.6386ZM293.507 47.9852H287.882L298.124 18.8943H304.629L314.885 47.9852H309.26L301.49 24.8602H301.263L293.507 47.9852ZM293.692 36.579H309.033V40.8119H293.692V36.579ZM317.489 56.167V26.167H322.546V29.775H322.845C323.11 29.2447 323.484 28.6813 323.967 28.0847C324.45 27.4786 325.103 26.9625 325.927 26.5364C326.751 26.1008 327.802 25.883 329.08 25.883C330.766 25.883 332.286 26.3138 333.64 27.1756C335.004 28.0278 336.083 29.292 336.879 30.9682C337.684 32.6348 338.086 34.6803 338.086 37.1045C338.086 39.5004 337.693 41.5364 336.907 43.2125C336.121 44.8886 335.051 46.167 333.697 47.0477C332.343 47.9284 330.809 48.3688 329.095 48.3688C327.845 48.3688 326.808 48.1604 325.984 47.7438C325.16 47.3271 324.497 46.8252 323.995 46.2381C323.503 45.6415 323.119 45.078 322.845 44.5477H322.632V56.167H317.489ZM322.532 37.0761C322.532 38.4871 322.731 39.7229 323.129 40.7835C323.536 41.8441 324.118 42.6727 324.876 43.2693C325.643 43.8564 326.571 44.15 327.66 44.15C328.796 44.15 329.748 43.847 330.515 43.2409C331.282 42.6254 331.86 41.7873 332.248 40.7267C332.646 39.6566 332.845 38.4398 332.845 37.0761C332.845 35.722 332.65 34.5193 332.262 33.4682C331.874 32.417 331.296 31.5932 330.529 30.9966C329.762 30.4 328.806 30.1017 327.66 30.1017C326.561 30.1017 325.629 30.3905 324.862 30.9682C324.095 31.5458 323.512 32.3555 323.114 33.3972C322.726 34.4388 322.532 35.6652 322.532 37.0761ZM341.489 56.167V26.167H346.546V29.775H346.845C347.11 29.2447 347.484 28.6813 347.967 28.0847C348.45 27.4786 349.103 26.9625 349.927 26.5364C350.751 26.1008 351.802 25.883 353.08 25.883C354.766 25.883 356.286 26.3138 357.64 27.1756C359.004 28.0278 360.083 29.292 360.879 30.9682C361.684 32.6348 362.086 34.6803 362.086 37.1045C362.086 39.5004 361.693 41.5364 360.907 43.2125C360.121 44.8886 359.051 46.167 357.697 47.0477C356.343 47.9284 354.809 48.3688 353.095 48.3688C351.845 48.3688 350.808 48.1604 349.984 47.7438C349.16 47.3271 348.497 46.8252 347.995 46.2381C347.503 45.6415 347.119 45.078 346.845 44.5477H346.632V56.167H341.489ZM346.532 37.0761C346.532 38.4871 346.731 39.7229 347.129 40.7835C347.536 41.8441 348.118 42.6727 348.876 43.2693C349.643 43.8564 350.571 44.15 351.66 44.15C352.796 44.15 353.748 43.847 354.515 43.2409C355.282 42.6254 355.86 41.7873 356.248 40.7267C356.646 39.6566 356.845 38.4398 356.845 37.0761C356.845 35.722 356.65 34.5193 356.262 33.4682C355.874 32.417 355.296 31.5932 354.529 30.9966C353.762 30.4 352.806 30.1017 351.66 30.1017C350.561 30.1017 349.629 30.3905 348.862 30.9682C348.095 31.5458 347.512 32.3555 347.114 33.3972C346.726 34.4388 346.532 35.6652 346.532 37.0761ZM382.734 31.9341L378.046 32.4455C377.914 31.972 377.682 31.5269 377.35 31.1102C377.028 30.6936 376.593 30.3574 376.043 30.1017C375.494 29.846 374.822 29.7182 374.026 29.7182C372.956 29.7182 372.057 29.9502 371.328 30.4142C370.608 30.8782 370.253 31.4795 370.262 32.2182C370.253 32.8527 370.485 33.3688 370.958 33.7665C371.441 34.1642 372.237 34.4909 373.345 34.7466L377.066 35.542C379.131 35.9871 380.665 36.6926 381.668 37.6585C382.682 38.6244 383.193 39.8886 383.203 41.4511C383.193 42.8242 382.791 44.0364 381.995 45.0875C381.209 46.1292 380.115 46.9436 378.714 47.5307C377.312 48.1178 375.703 48.4114 373.884 48.4114C371.214 48.4114 369.064 47.8527 367.435 46.7352C365.807 45.6083 364.836 44.0411 364.524 42.0335L369.538 41.5506C369.765 42.5354 370.248 43.2788 370.987 43.7807C371.725 44.2826 372.686 44.5335 373.87 44.5335C375.092 44.5335 376.072 44.2826 376.81 43.7807C377.559 43.2788 377.933 42.6585 377.933 41.9199C377.933 41.2949 377.691 40.7788 377.208 40.3716C376.735 39.9644 375.996 39.6519 374.992 39.4341L371.271 38.6528C369.178 38.2172 367.63 37.4833 366.626 36.4511C365.622 35.4095 365.125 34.0932 365.134 32.5023C365.125 31.1576 365.489 29.9928 366.228 29.008C366.976 28.0136 368.013 27.2466 369.339 26.7068C370.674 26.1576 372.213 25.883 373.955 25.883C376.512 25.883 378.524 26.4275 379.992 27.5165C381.47 28.6055 382.383 30.078 382.734 31.9341Z" fill="#1C1C1C"/>
<path d="M123.159 75.3333H121.045C120.92 74.7254 120.702 74.1913 120.389 73.731C120.082 73.2708 119.707 72.8844 119.264 72.5719C118.827 72.2538 118.341 72.0151 117.807 71.856C117.273 71.6969 116.716 71.6174 116.136 71.6174C115.08 71.6174 114.122 71.8844 113.264 72.4185C112.412 72.9526 111.733 73.7396 111.227 74.7793C110.727 75.8191 110.477 77.0947 110.477 78.606C110.477 80.1174 110.727 81.393 111.227 82.4327C111.733 83.4725 112.412 84.2594 113.264 84.7935C114.122 85.3276 115.08 85.5947 116.136 85.5947C116.716 85.5947 117.273 85.5151 117.807 85.356C118.341 85.1969 118.827 84.9612 119.264 84.6487C119.707 84.3305 120.082 83.9413 120.389 83.481C120.702 83.0151 120.92 82.481 121.045 81.8788H123.159C123 82.7708 122.71 83.5691 122.29 84.2737C121.869 84.9782 121.347 85.5776 120.722 86.0719C120.097 86.5606 119.395 86.9327 118.616 87.1884C117.844 87.4441 117.017 87.5719 116.136 87.5719C114.648 87.5719 113.324 87.2083 112.165 86.481C111.006 85.7538 110.094 84.7197 109.429 83.3788C108.764 82.0379 108.432 80.4469 108.432 78.606C108.432 76.7651 108.764 75.1742 109.429 73.8333C110.094 72.4924 111.006 71.4583 112.165 70.731C113.324 70.0038 114.648 69.6401 116.136 69.6401C117.017 69.6401 117.844 69.768 118.616 70.0237C119.395 70.2793 120.097 70.6543 120.722 71.1487C121.347 71.6373 121.869 72.2339 122.29 72.9384C122.71 73.6373 123 74.4356 123.159 75.3333ZM126.302 87.3333V74.2424H128.245V76.2197H128.381C128.62 75.5719 129.052 75.0464 129.677 74.643C130.302 74.2396 131.006 74.0379 131.79 74.0379C131.938 74.0379 132.123 74.0407 132.344 74.0464C132.566 74.0521 132.734 74.0606 132.847 74.0719V76.1174C132.779 76.1004 132.623 76.0748 132.379 76.0407C132.14 76.0009 131.887 75.981 131.62 75.981C130.984 75.981 130.415 76.1146 129.915 76.3816C129.421 76.643 129.029 77.0066 128.739 77.4725C128.455 77.9327 128.313 78.4583 128.313 79.0492V87.3333H126.302ZM140.322 87.606C139.06 87.606 137.972 87.3276 137.058 86.7708C136.148 86.2083 135.447 85.4242 134.952 84.4185C134.464 83.4072 134.219 82.231 134.219 80.8901C134.219 79.5492 134.464 78.3674 134.952 77.3447C135.447 76.3163 136.134 75.5151 137.015 74.9413C137.901 74.3617 138.935 74.0719 140.117 74.0719C140.799 74.0719 141.472 74.1856 142.137 74.4129C142.802 74.6401 143.407 75.0094 143.952 75.5208C144.498 76.0265 144.933 76.6969 145.256 77.5322C145.58 78.3674 145.742 79.3958 145.742 80.6174V81.4697H135.651V79.731H143.697C143.697 78.9924 143.549 78.3333 143.254 77.7538C142.964 77.1742 142.549 76.7168 142.009 76.3816C141.475 76.0464 140.844 75.8788 140.117 75.8788C139.316 75.8788 138.623 76.0776 138.038 76.4754C137.458 76.8674 137.012 77.3788 136.7 78.0094C136.387 78.6401 136.231 79.3163 136.231 80.0379V81.1969C136.231 82.1856 136.401 83.0237 136.742 83.7112C137.089 84.393 137.569 84.9129 138.183 85.2708C138.796 85.6231 139.509 85.7992 140.322 85.7992C140.85 85.7992 141.327 85.7254 141.754 85.5776C142.185 85.4242 142.558 85.1969 142.87 84.8958C143.183 84.589 143.424 84.2083 143.594 83.7538L145.538 84.2992C145.333 84.9583 144.989 85.5379 144.506 86.0379C144.023 86.5322 143.427 86.9185 142.717 87.1969C142.006 87.4697 141.208 87.606 140.322 87.606ZM152.654 87.6401C151.825 87.6401 151.072 87.4839 150.396 87.1714C149.719 86.8532 149.183 86.3958 148.785 85.7992C148.387 85.1969 148.188 84.4697 148.188 83.6174C148.188 82.8674 148.336 82.2594 148.631 81.7935C148.927 81.3219 149.322 80.9526 149.816 80.6856C150.31 80.4185 150.856 80.2197 151.452 80.089C152.055 79.9526 152.66 79.8447 153.268 79.7651C154.063 79.6629 154.708 79.5862 155.202 79.535C155.702 79.4782 156.066 79.3844 156.293 79.2538C156.526 79.1231 156.643 78.8958 156.643 78.5719V78.5038C156.643 77.6629 156.413 77.0094 155.952 76.5435C155.498 76.0776 154.808 75.8447 153.881 75.8447C152.921 75.8447 152.168 76.0549 151.623 76.4754C151.077 76.8958 150.694 77.3447 150.472 77.8219L148.563 77.1401C148.904 76.3447 149.359 75.7254 149.927 75.2822C150.501 74.8333 151.126 74.5208 151.802 74.3447C152.484 74.1629 153.154 74.0719 153.813 74.0719C154.234 74.0719 154.717 74.1231 155.262 74.2254C155.813 74.3219 156.344 74.5237 156.856 74.8305C157.373 75.1373 157.802 75.6004 158.143 76.2197C158.484 76.839 158.654 77.6685 158.654 78.7083V87.3333H156.643V85.5606H156.54C156.404 85.8447 156.177 86.1487 155.859 86.4725C155.54 86.7964 155.117 87.0719 154.589 87.2992C154.06 87.5265 153.415 87.6401 152.654 87.6401ZM152.961 85.8333C153.756 85.8333 154.427 85.6771 154.972 85.3646C155.523 85.0521 155.938 84.6487 156.217 84.1543C156.501 83.66 156.643 83.1401 156.643 82.5947V80.7538C156.558 80.856 156.37 80.9498 156.08 81.035C155.796 81.1146 155.467 81.1856 155.092 81.2481C154.722 81.3049 154.362 81.356 154.009 81.4015C153.663 81.4413 153.381 81.4754 153.165 81.5038C152.643 81.5719 152.154 81.6827 151.7 81.8362C151.251 81.9839 150.887 82.2083 150.609 82.5094C150.336 82.8049 150.2 83.2083 150.2 83.7197C150.2 84.4185 150.458 84.9469 150.975 85.3049C151.498 85.6572 152.16 85.8333 152.961 85.8333ZM168.018 74.2424V75.9469H161.234V74.2424H168.018ZM163.212 71.106H165.223V83.5833C165.223 84.1515 165.305 84.5776 165.47 84.8617C165.641 85.1401 165.857 85.3276 166.118 85.4242C166.385 85.5151 166.666 85.5606 166.962 85.5606C167.183 85.5606 167.365 85.5492 167.507 85.5265C167.649 85.4981 167.763 85.4754 167.848 85.4583L168.257 87.2651C168.121 87.3163 167.93 87.3674 167.686 87.4185C167.442 87.4754 167.132 87.5038 166.757 87.5038C166.189 87.5038 165.632 87.3816 165.087 87.1373C164.547 86.893 164.098 86.5208 163.74 86.0208C163.388 85.5208 163.212 84.8901 163.212 84.1288V71.106ZM176.392 87.606C175.131 87.606 174.043 87.3276 173.128 86.7708C172.219 86.2083 171.517 85.4242 171.023 84.4185C170.534 83.4072 170.29 82.231 170.29 80.8901C170.29 79.5492 170.534 78.3674 171.023 77.3447C171.517 76.3163 172.205 75.5151 173.085 74.9413C173.972 74.3617 175.006 74.0719 176.188 74.0719C176.869 74.0719 177.543 74.1856 178.207 74.4129C178.872 74.6401 179.477 75.0094 180.023 75.5208C180.568 76.0265 181.003 76.6969 181.327 77.5322C181.651 78.3674 181.812 79.3958 181.812 80.6174V81.4697H171.722V79.731H179.767C179.767 78.9924 179.619 78.3333 179.324 77.7538C179.034 77.1742 178.619 76.7168 178.08 76.3816C177.545 76.0464 176.915 75.8788 176.188 75.8788C175.386 75.8788 174.693 76.0776 174.108 76.4754C173.528 76.8674 173.082 77.3788 172.77 78.0094C172.457 78.6401 172.301 79.3163 172.301 80.0379V81.1969C172.301 82.1856 172.472 83.0237 172.812 83.7112C173.159 84.393 173.639 84.9129 174.253 85.2708C174.866 85.6231 175.58 85.7992 176.392 85.7992C176.92 85.7992 177.398 85.7254 177.824 85.5776C178.256 85.4242 178.628 85.1969 178.94 84.8958C179.253 84.589 179.494 84.2083 179.665 83.7538L181.608 84.2992C181.403 84.9583 181.06 85.5379 180.577 86.0379C180.094 86.5322 179.497 86.9185 178.787 87.1969C178.077 87.4697 177.278 87.606 176.392 87.606ZM189.815 87.606C188.724 87.606 187.761 87.3305 186.926 86.7793C186.091 86.2225 185.438 85.4384 184.966 84.4271C184.494 83.41 184.259 82.2083 184.259 80.8219C184.259 79.4469 184.494 78.2538 184.966 77.2424C185.438 76.231 186.094 75.4498 186.935 74.8987C187.776 74.3475 188.747 74.0719 189.849 74.0719C190.702 74.0719 191.375 74.214 191.869 74.4981C192.369 74.7765 192.75 75.0947 193.011 75.4526C193.278 75.8049 193.486 76.0947 193.634 76.3219H193.804V69.8788H195.815V87.3333H193.872V85.3219H193.634C193.486 85.5606 193.276 85.8617 193.003 86.2254C192.73 86.5833 192.341 86.9043 191.835 87.1884C191.33 87.4668 190.656 87.606 189.815 87.606ZM190.088 85.7992C190.895 85.7992 191.577 85.589 192.134 85.1685C192.69 84.7424 193.114 84.1543 193.403 83.4043C193.693 82.6487 193.838 81.7765 193.838 80.7879C193.838 79.8106 193.696 78.9555 193.412 78.2225C193.128 77.4839 192.707 76.91 192.151 76.5009C191.594 76.0862 190.906 75.8788 190.088 75.8788C189.236 75.8788 188.526 76.0975 187.957 76.535C187.395 76.9668 186.972 77.5549 186.688 78.2992C186.409 79.0379 186.27 79.8674 186.27 80.7879C186.27 81.7197 186.412 82.5663 186.696 83.3276C186.986 84.0833 187.412 84.6856 187.974 85.1344C188.543 85.5776 189.247 85.7992 190.088 85.7992ZM206.801 87.3333V69.8788H208.812V76.3219H208.983C209.131 76.0947 209.335 75.8049 209.597 75.4526C209.864 75.0947 210.244 74.7765 210.739 74.4981C211.239 74.214 211.915 74.0719 212.767 74.0719C213.869 74.0719 214.841 74.3475 215.682 74.8987C216.523 75.4498 217.179 76.231 217.651 77.2424C218.122 78.2538 218.358 79.4469 218.358 80.8219C218.358 82.2083 218.122 83.41 217.651 84.4271C217.179 85.4384 216.526 86.2225 215.69 86.7793C214.855 87.3305 213.892 87.606 212.801 87.606C211.96 87.606 211.287 87.4668 210.781 87.1884C210.276 86.9043 209.886 86.5833 209.614 86.2254C209.341 85.8617 209.131 85.5606 208.983 85.3219H208.744V87.3333H206.801ZM208.778 80.7879C208.778 81.7765 208.923 82.6487 209.213 83.4043C209.503 84.1543 209.926 84.7424 210.483 85.1685C211.04 85.589 211.722 85.7992 212.528 85.7992C213.369 85.7992 214.071 85.5776 214.634 85.1344C215.202 84.6856 215.628 84.0833 215.912 83.3276C216.202 82.5663 216.347 81.7197 216.347 80.7879C216.347 79.8674 216.205 79.0379 215.92 78.2992C215.642 77.5549 215.219 76.9668 214.651 76.535C214.088 76.0975 213.381 75.8788 212.528 75.8788C211.71 75.8788 211.023 76.0862 210.466 76.5009C209.909 76.91 209.489 77.4839 209.205 78.2225C208.92 78.9555 208.778 79.8106 208.778 80.7879ZM222.261 92.2424C221.92 92.2424 221.616 92.214 221.349 92.1572C221.082 92.106 220.898 92.0549 220.795 92.0038L221.307 90.231C221.795 90.356 222.227 90.4015 222.602 90.3674C222.977 90.3333 223.31 90.1657 223.599 89.8646C223.895 89.5691 224.165 89.089 224.409 88.4242L224.784 87.4015L219.943 74.2424H222.125L225.739 84.6742H225.875L229.489 74.2424H231.67L226.114 89.2424C225.864 89.9185 225.554 90.4782 225.185 90.9214C224.815 91.3702 224.386 91.7026 223.898 91.9185C223.415 92.1344 222.869 92.2424 222.261 92.2424ZM241.348 87.3333V69.8788H243.462V85.4583H251.575V87.3333H241.348ZM254.575 87.3333V74.2424H256.587V87.3333H254.575ZM255.598 72.0606C255.206 72.0606 254.868 71.9271 254.584 71.66C254.305 71.393 254.166 71.0719 254.166 70.6969C254.166 70.3219 254.305 70.0009 254.584 69.7339C254.868 69.4668 255.206 69.3333 255.598 69.3333C255.99 69.3333 256.325 69.4668 256.604 69.7339C256.888 70.0009 257.03 70.3219 257.03 70.6969C257.03 71.0719 256.888 71.393 256.604 71.66C256.325 71.9271 255.99 72.0606 255.598 72.0606ZM265.555 92.5151C264.583 92.5151 263.748 92.3901 263.049 92.1401C262.35 91.8958 261.768 91.5719 261.302 91.1685C260.842 90.7708 260.475 90.3447 260.202 89.8901L261.805 88.7651C261.987 89.0038 262.217 89.2765 262.495 89.5833C262.773 89.8958 263.154 90.1657 263.637 90.393C264.126 90.6259 264.765 90.7424 265.555 90.7424C266.612 90.7424 267.484 90.4867 268.171 89.9754C268.859 89.464 269.202 88.6629 269.202 87.5719V84.9129H269.032C268.884 85.1515 268.674 85.4469 268.401 85.7992C268.134 86.1458 267.748 86.4555 267.242 86.7282C266.742 86.9952 266.066 87.1288 265.214 87.1288C264.157 87.1288 263.208 86.8788 262.367 86.3788C261.532 85.8788 260.87 85.1515 260.381 84.1969C259.898 83.2424 259.657 82.0833 259.657 80.7197C259.657 79.3788 259.893 78.2112 260.364 77.2168C260.836 76.2168 261.492 75.4441 262.333 74.8987C263.174 74.3475 264.146 74.0719 265.248 74.0719C266.1 74.0719 266.776 74.214 267.276 74.4981C267.782 74.7765 268.168 75.0947 268.435 75.4526C268.708 75.8049 268.918 76.0947 269.066 76.3219H269.271V74.2424H271.214V87.7083C271.214 88.8333 270.958 89.7481 270.447 90.4526C269.941 91.1629 269.259 91.6827 268.401 92.0123C267.549 92.3475 266.6 92.5151 265.555 92.5151ZM265.487 85.3219C266.293 85.3219 266.975 85.1373 267.532 84.768C268.089 84.3987 268.512 83.8674 268.802 83.1742C269.092 82.481 269.237 81.6515 269.237 80.6856C269.237 79.7424 269.094 78.91 268.81 78.1884C268.526 77.4668 268.106 76.9015 267.549 76.4924C266.992 76.0833 266.305 75.8788 265.487 75.8788C264.634 75.8788 263.924 76.0947 263.356 76.5265C262.793 76.9583 262.37 77.5379 262.086 78.2651C261.808 78.9924 261.668 79.7992 261.668 80.6856C261.668 81.5947 261.81 82.3987 262.094 83.0975C262.384 83.7907 262.81 84.3362 263.373 84.7339C263.941 85.1259 264.646 85.3219 265.487 85.3219ZM276.907 79.4583V87.3333H274.896V69.8788H276.907V76.2879H277.077C277.384 75.6117 277.844 75.0748 278.458 74.6771C279.077 74.2737 279.901 74.0719 280.93 74.0719C281.822 74.0719 282.603 74.2509 283.273 74.6089C283.944 74.9612 284.464 75.5038 284.833 76.2367C285.208 76.964 285.396 77.8901 285.396 79.0151V87.3333H283.384V79.1515C283.384 78.1117 283.114 77.3077 282.575 76.7396C282.04 76.1657 281.299 75.8788 280.35 75.8788C279.691 75.8788 279.1 76.018 278.577 76.2964C278.06 76.5748 277.651 76.981 277.35 77.5151C277.055 78.0492 276.907 78.6969 276.907 79.4583ZM294.768 74.2424V75.9469H287.984V74.2424H294.768ZM289.962 71.106H291.973V83.5833C291.973 84.1515 292.055 84.5776 292.22 84.8617C292.391 85.1401 292.607 85.3276 292.868 85.4242C293.135 85.5151 293.416 85.5606 293.712 85.5606C293.933 85.5606 294.115 85.5492 294.257 85.5265C294.399 85.4981 294.513 85.4754 294.598 85.4583L295.007 87.2651C294.871 87.3163 294.68 87.3674 294.436 87.4185C294.192 87.4754 293.882 87.5038 293.507 87.5038C292.939 87.5038 292.382 87.3816 291.837 87.1373C291.297 86.893 290.848 86.5208 290.49 86.0208C290.138 85.5208 289.962 84.8901 289.962 84.1288V71.106ZM299.805 79.4583V87.3333H297.794V74.2424H299.737V76.2879H299.908C300.214 75.6231 300.68 75.089 301.305 74.6856C301.93 74.2765 302.737 74.0719 303.726 74.0719C304.612 74.0719 305.388 74.2538 306.053 74.6174C306.717 74.9754 307.234 75.5208 307.604 76.2538C307.973 76.981 308.158 77.9015 308.158 79.0151V87.3333H306.146V79.1515C306.146 78.1231 305.879 77.3219 305.345 76.7481C304.811 76.1685 304.078 75.8788 303.146 75.8788C302.504 75.8788 301.93 76.018 301.425 76.2964C300.925 76.5748 300.53 76.981 300.24 77.5151C299.95 78.0492 299.805 78.6969 299.805 79.4583ZM311.833 87.3333V74.2424H313.844V87.3333H311.833ZM312.856 72.0606C312.464 72.0606 312.126 71.9271 311.842 71.66C311.563 71.393 311.424 71.0719 311.424 70.6969C311.424 70.3219 311.563 70.0009 311.842 69.7339C312.126 69.4668 312.464 69.3333 312.856 69.3333C313.248 69.3333 313.583 69.4668 313.862 69.7339C314.146 70.0009 314.288 70.3219 314.288 70.6969C314.288 71.0719 314.146 71.393 313.862 71.66C313.583 71.9271 313.248 72.0606 312.856 72.0606ZM319.54 79.4583V87.3333H317.528V74.2424H319.472V76.2879H319.642C319.949 75.6231 320.415 75.089 321.04 74.6856C321.665 74.2765 322.472 74.0719 323.46 74.0719C324.347 74.0719 325.122 74.2538 325.787 74.6174C326.452 74.9754 326.969 75.5208 327.338 76.2538C327.707 76.981 327.892 77.9015 327.892 79.0151V87.3333H325.881V79.1515C325.881 78.1231 325.614 77.3219 325.08 76.7481C324.545 76.1685 323.813 75.8788 322.881 75.8788C322.239 75.8788 321.665 76.018 321.159 76.2964C320.659 76.5748 320.264 76.981 319.974 77.5151C319.685 78.0492 319.54 78.6969 319.54 79.4583ZM336.852 92.5151C335.88 92.5151 335.045 92.3901 334.346 92.1401C333.647 91.8958 333.065 91.5719 332.599 91.1685C332.138 90.7708 331.772 90.3447 331.499 89.8901L333.102 88.7651C333.283 89.0038 333.513 89.2765 333.792 89.5833C334.07 89.8958 334.451 90.1657 334.934 90.393C335.423 90.6259 336.062 90.7424 336.852 90.7424C337.908 90.7424 338.781 90.4867 339.468 89.9754C340.156 89.464 340.499 88.6629 340.499 87.5719V84.9129H340.329C340.181 85.1515 339.971 85.4469 339.698 85.7992C339.431 86.1458 339.045 86.4555 338.539 86.7282C338.039 86.9952 337.363 87.1288 336.511 87.1288C335.454 87.1288 334.505 86.8788 333.664 86.3788C332.829 85.8788 332.167 85.1515 331.678 84.1969C331.195 83.2424 330.954 82.0833 330.954 80.7197C330.954 79.3788 331.19 78.2112 331.661 77.2168C332.133 76.2168 332.789 75.4441 333.63 74.8987C334.471 74.3475 335.442 74.0719 336.545 74.0719C337.397 74.0719 338.073 74.214 338.573 74.4981C339.079 74.7765 339.465 75.0947 339.732 75.4526C340.005 75.8049 340.215 76.0947 340.363 76.3219H340.567V74.2424H342.511V87.7083C342.511 88.8333 342.255 89.7481 341.744 90.4526C341.238 91.1629 340.556 91.6827 339.698 92.0123C338.846 92.3475 337.897 92.5151 336.852 92.5151ZM336.783 85.3219C337.59 85.3219 338.272 85.1373 338.829 84.768C339.386 84.3987 339.809 83.8674 340.099 83.1742C340.388 82.481 340.533 81.6515 340.533 80.6856C340.533 79.7424 340.391 78.91 340.107 78.1884C339.823 77.4668 339.403 76.9015 338.846 76.4924C338.289 76.0833 337.602 75.8788 336.783 75.8788C335.931 75.8788 335.221 76.0947 334.653 76.5265C334.09 76.9583 333.667 77.5379 333.383 78.2651C333.104 78.9924 332.965 79.7992 332.965 80.6856C332.965 81.5947 333.107 82.3987 333.391 83.0975C333.681 83.7907 334.107 84.3362 334.67 84.7339C335.238 85.1259 335.942 85.3219 336.783 85.3219ZM353.931 87.3333H351.715L358.124 69.8788H360.306L366.715 87.3333H364.499L359.283 72.6401H359.147L353.931 87.3333ZM354.749 80.5151H363.681V82.3901H354.749V80.5151ZM371.548 69.8788V87.3333H369.434V69.8788H371.548Z" fill="#4F4F4F"/>
<defs>
<linearGradient id="paint0_linear_402_129" x1="62.0319" y1="31.7357" x2="-41.4197" y2="127.346" gradientUnits="userSpaceOnUse">
<stop stop-color="#792EE5"/>
<stop offset="1" stop-color="#428FF4"/>
</linearGradient>
<clipPath id="clip0_402_129">
<rect width="86.6667" height="100" fill="white" transform="translate(0.0118408 0.985229)"/>
</clipPath>
<clipPath id="clip1_402_129">
<rect width="48.6667" height="48.6667" fill="white" transform="translate(19.0118 26.6519)"/>
</clipPath>
</defs>
</svg>
