<svg width="48" height="48" viewBox="0 0 48 48" fill="none" xmlns="http://www.w3.org/2000/svg">
<path d="M23.0796 0.246544L3.91737 11.3271C3.63833 11.4887 3.4067 11.7208 3.24568 12.0002C3.08467 12.2795 2.99995 12.5962 3 12.9186V35.0828C3.0001 35.4052 3.08489 35.7218 3.24589 36.0012C3.40688 36.2805 3.63844 36.5126 3.91737 36.6744L23.0796 47.7534C23.3594 47.9149 23.6769 48 24 48C24.3231 48 24.6405 47.9149 24.9204 47.7534L44.0826 36.6744C44.3615 36.5126 44.5931 36.2805 44.7541 36.0012C44.9151 35.7218 44.9999 35.4052 45 35.0828V12.9186C45 12.5962 44.9153 12.2795 44.7543 12.0002C44.5933 11.7208 44.3617 11.4887 44.0826 11.3271L24.9204 0.246544C24.6405 0.0850093 24.3231 0 24 0C23.6769 0 23.3594 0.0850093 23.0796 0.246544ZM19.9563 37.1933L22.2317 27.5006C22.248 27.4306 22.2458 27.3575 22.2255 27.2885C22.2051 27.2195 22.1672 27.1569 22.1155 27.1069L16.6007 21.7288C16.56 21.6898 16.5275 21.6429 16.5054 21.5911C16.4833 21.5392 16.4719 21.4835 16.4719 21.4271C16.4719 21.3707 16.4833 21.3149 16.5054 21.2631C16.5275 21.2112 16.56 21.1644 16.6007 21.1254L27.3843 10.4099C27.4484 10.3456 27.5317 10.304 27.6216 10.2914C27.7115 10.2788 27.8031 10.2959 27.8824 10.3401C27.9617 10.3844 28.0243 10.4533 28.0608 10.5364C28.0973 10.6196 28.1055 10.7124 28.0844 10.8007L25.8061 20.5159C25.789 20.5861 25.7906 20.6595 25.8107 20.7288C25.8308 20.7982 25.8688 20.861 25.9208 20.9111L31.4039 26.2591C31.4432 26.2981 31.4745 26.3445 31.4958 26.3956C31.5172 26.4468 31.5281 26.5016 31.5281 26.557C31.5281 26.6124 31.5172 26.6673 31.4958 26.7184C31.4745 26.7696 31.4432 26.816 31.4039 26.855L20.6579 37.5795C20.5938 37.6426 20.511 37.6833 20.4219 37.6956C20.3328 37.7079 20.2421 37.691 20.1633 37.6476C20.0845 37.6043 20.0217 37.5367 19.9845 37.4548C19.9472 37.3729 19.9373 37.2812 19.9563 37.1933Z" fill="url(#paint0_linear_1878_170386)"/>
<defs>
<linearGradient id="paint0_linear_1878_170386" x1="34.672" y1="6.1852" x2="-5.45303" y2="75.3597" gradientUnits="userSpaceOnUse">
<stop stop-color="#792EE5"/>
<stop offset="1" stop-color="#3EABB3"/>
</linearGradient>
</defs>
</svg>
