<svg width="1300" height="320" viewBox="0 0 1300 320" fill="none" xmlns="http://www.w3.org/2000/svg">
<path d="M133.12 2.62939L6.12 76.0796C4.27068 77.1508 2.73546 78.6893 1.66834 80.541C0.601208 82.3927 0.0397193 84.4922 0.0400392 86.6294V233.55C0.040729 235.687 0.602651 237.786 1.66968 239.637C2.7367 241.489 4.27136 243.028 6.12 244.1L133.12 317.54C134.975 318.61 137.079 319.174 139.22 319.174C141.362 319.174 143.465 318.61 145.32 317.54L272.32 244.1C274.169 243.028 275.703 241.489 276.77 239.637C277.837 237.786 278.399 235.687 278.4 233.55V86.6294C278.4 84.4922 277.839 82.3927 276.772 80.541C275.704 78.6893 274.169 77.1508 272.32 76.0796L145.32 2.62939C143.465 1.55862 141.362 0.995117 139.22 0.995117C137.079 0.995117 134.975 1.55862 133.12 2.62939ZM112.42 247.54L127.5 183.29C127.608 182.825 127.594 182.341 127.459 181.883C127.324 181.426 127.073 181.011 126.73 180.68L90.1801 145.03C89.9102 144.771 89.6954 144.46 89.5487 144.117C89.402 143.773 89.3265 143.403 89.3265 143.03C89.3265 142.656 89.402 142.286 89.5487 141.942C89.6954 141.599 89.9102 141.288 90.1801 141.03L161.65 69.9995C162.075 69.5731 162.627 69.2974 163.223 69.2139C163.819 69.1304 164.426 69.2438 164.951 69.5371C165.476 69.8304 165.892 70.2873 166.133 70.8384C166.375 71.3895 166.43 72.0046 166.29 72.5898L151.19 136.99C151.077 137.455 151.087 137.941 151.221 138.401C151.354 138.861 151.606 139.277 151.95 139.609L188.29 175.06C188.551 175.318 188.758 175.626 188.9 175.965C189.041 176.304 189.114 176.667 189.114 177.035C189.114 177.402 189.041 177.766 188.9 178.104C188.758 178.443 188.551 178.751 188.29 179.01L117.07 250.1C116.645 250.518 116.096 250.788 115.506 250.869C114.915 250.951 114.314 250.839 113.792 250.551C113.269 250.264 112.854 249.816 112.607 249.273C112.359 248.73 112.294 248.122 112.42 247.54V247.54Z" fill="url(#paint0_linear_1284_160327)"/>
<path fill-rule="evenodd" clip-rule="evenodd" d="M470.246 98.5282H448.281V120.966H470.246V98.5282ZM372.786 98.5282H350V230.396H430.869V208.53H372.761V98.5282H372.786ZM448.331 138.33H470.296V230.346H448.331V138.305V138.33ZM555.792 145.668C552.931 143.255 549.772 141.265 546.389 139.723C541.787 137.683 536.812 136.663 531.812 136.738C525.742 136.713 519.723 137.957 514.176 140.444C508.827 142.807 503.977 146.191 499.897 150.419C495.818 154.673 492.609 159.698 490.395 165.196C488.106 170.867 486.937 176.962 486.962 183.106C486.937 189.325 488.057 195.495 490.295 201.266C492.41 206.788 495.544 211.863 499.524 216.216C503.529 220.545 508.38 223.978 513.753 226.316C519.474 228.804 525.618 230.072 531.837 230.022C536.812 230.097 541.762 229.127 546.389 227.236C549.772 225.794 552.956 223.903 555.816 221.565V226.888C555.816 234.027 553.826 239.45 549.996 243.033C546.19 246.64 541.066 248.53 535.021 248.53C529.424 248.53 524.797 247.51 521.24 245.545C517.683 243.505 514.847 240.346 513.181 236.54L512.832 235.769H489.873L496.738 253.381L497.012 253.829C501.862 258.928 507.808 262.859 514.35 265.272C520.842 267.71 527.708 268.953 534.648 268.953C548.18 268.953 558.851 265.197 566.363 257.809C573.901 250.421 577.756 240.545 577.756 228.505V138.355H555.792V145.618V145.668ZM550.294 165.046C552.632 167.41 554.448 170.221 555.667 173.33C556.886 176.44 557.458 179.773 557.359 183.106C557.458 189.873 554.971 196.39 550.419 201.291C548.254 203.753 545.593 205.694 542.633 207.012C539.673 208.306 536.439 208.953 533.205 208.853C529.971 208.953 526.787 208.331 523.827 207.012C520.867 205.719 518.23 203.753 516.066 201.291C511.564 196.365 509.101 189.823 509.225 183.082C509.225 175.818 511.514 169.723 516.066 164.997C518.28 162.658 520.966 160.818 523.902 159.599C526.862 158.38 530.021 157.783 533.205 157.857C536.389 157.808 539.523 158.429 542.459 159.673C545.394 160.917 548.055 162.733 550.269 165.046H550.294ZM628.029 140.37C632.68 137.882 637.879 136.638 643.128 136.713C653.75 136.713 662.431 140.121 668.998 146.812C675.54 153.504 678.873 163.007 678.873 175.022V230.371H656.909V177.559C657.033 172.435 655.342 167.459 652.133 163.529C648.974 159.748 644.521 157.907 638.551 157.907C632.581 157.907 628.004 159.798 624.571 163.653C621.138 167.509 619.472 172.733 619.472 179.176V230.396H597.507V98.5282H619.472V146.688C622.034 144.2 624.919 142.086 628.054 140.419L628.029 140.37ZM728.027 107.757L707.828 115.319L708.077 138.305H688.426V158.031H706.112V199.773C706.112 209.823 709.146 217.584 715.166 222.858C721.186 228.132 728.549 230.719 737.255 230.719C739.494 230.719 741.559 230.694 743.449 230.619C745.365 230.57 746.907 230.47 748.101 230.346L749.27 230.221V210.843H740.24C738.623 210.918 737.007 210.669 735.489 210.097C733.972 209.525 732.579 208.654 731.41 207.535C729.171 205.346 728.052 202.037 728.052 197.634V158.056H752.106V138.33H728.052V107.807L728.027 107.757ZM874.143 98.4287H896.108V120.941H874.143V98.4785V98.4287ZM896.108 138.23H874.143V230.321H896.108V138.28V138.23ZM1084.91 145.569V138.23H1106.87V228.555C1106.87 240.595 1103.04 250.471 1095.48 257.859C1087.94 265.272 1077.27 268.978 1063.77 268.978C1056.85 268.978 1049.98 267.734 1043.47 265.321C1036.9 262.884 1030.98 258.978 1026.1 253.878L1025.83 253.431L1018.99 235.819H1041.95L1042.3 236.59C1043.97 240.396 1046.78 243.555 1050.36 245.595C1053.89 247.585 1058.52 248.58 1064.14 248.58C1070.21 248.58 1075.26 246.739 1079.11 243.107C1082.97 239.475 1084.93 234.077 1084.93 226.963V221.614C1082.07 223.953 1078.89 225.868 1075.51 227.286C1070.88 229.177 1065.93 230.122 1060.95 230.072C1054.74 230.122 1048.59 228.878 1042.87 226.366C1037.52 224.027 1032.67 220.594 1028.67 216.266C1024.69 211.913 1021.58 206.838 1019.46 201.316C1017.22 195.544 1016.08 189.375 1016.1 183.156C1016.1 177.012 1017.25 170.917 1019.54 165.245C1021.73 159.723 1024.96 154.698 1029.04 150.469C1033.12 146.24 1037.97 142.857 1043.32 140.494C1048.89 138.031 1054.89 136.763 1060.95 136.787C1065.95 136.738 1070.93 137.758 1075.53 139.773C1078.89 141.315 1082.05 143.305 1084.88 145.693L1084.93 145.618L1084.91 145.569ZM1079.54 201.191C1084.09 196.291 1086.58 189.748 1086.48 183.007C1086.58 179.649 1086 176.34 1084.79 173.206C1083.57 170.096 1081.75 167.285 1079.41 164.922C1077.17 162.609 1074.51 160.793 1071.58 159.574C1068.64 158.355 1065.48 157.733 1062.32 157.783C1059.14 157.708 1055.95 158.28 1053.02 159.524C1050.06 160.743 1047.4 162.584 1045.18 164.922C1040.66 169.673 1038.37 175.743 1038.37 183.007C1038.27 189.748 1040.71 196.266 1045.21 201.216C1047.35 203.679 1049.98 205.619 1052.94 206.938C1055.91 208.231 1059.11 208.878 1062.32 208.778C1065.56 208.878 1068.74 208.256 1071.73 206.938C1074.69 205.644 1077.35 203.704 1079.51 201.266L1079.56 201.191H1079.54ZM941.405 160.643H919.44V231.167H941.405V160.693V160.643ZM941.405 160.643V138.205H963.37C973.295 138.205 982.822 142.235 989.837 149.4C996.852 156.564 1000.81 166.29 1000.81 176.44V231.117H978.842V181.564C978.842 176.042 976.703 170.718 972.872 166.813C969.041 162.907 963.842 160.693 958.445 160.693L941.43 160.643H941.405ZM792.851 160.643H770.886V231.167H792.851V160.693V160.643ZM792.851 160.643V138.205H814.816C824.741 138.205 834.268 142.235 841.283 149.4C848.298 156.564 852.253 166.29 852.253 176.44V231.117H830.288V181.564C830.288 176.042 828.149 170.718 824.318 166.813C820.487 162.907 815.288 160.693 809.891 160.693L792.876 160.643H792.851Z" fill="#292F36"/>
<path d="M1213.91 159.722H1234.18L1213.24 94H1180.75L1159.81 159.722H1179.46L1182.39 149.125H1210.98L1213.91 159.722V159.722ZM1187.39 131.04L1192.64 112.085H1200.73L1205.98 131.04H1187.39Z" fill="#292F36"/>
<path d="M1299.85 112.085V94H1243.36V112.085H1262.54V141.538H1243.36V159.722H1299.85V141.538H1280.68V112.085H1299.85Z" fill="#292F36"/>
<defs>
    <linearGradient id="paint0_linear_1284_160327" x1="209.95" y1="41.9952" x2="-56.0504" y2="500.495" gradientUnits="userSpaceOnUse">
        <stop stop-color="#792EE5"/>
        <stop offset="1" stop-color="#3EABB3"/>
    </linearGradient>
</defs>
</svg>
