<?xml version="1.0" encoding="UTF-8" standalone="no"?>
<svg
   xmlns:dc="http://purl.org/dc/elements/1.1/"
   xmlns:cc="http://creativecommons.org/ns#"
   xmlns:rdf="http://www.w3.org/1999/02/22-rdf-syntax-ns#"
   xmlns:svg="http://www.w3.org/2000/svg"
   xmlns="http://www.w3.org/2000/svg"
   xmlns:sodipodi="http://sodipodi.sourceforge.net/DTD/sodipodi-0.dtd"
   xmlns:inkscape="http://www.inkscape.org/namespaces/inkscape"
   id="svg"
   version="1.1"
   width="16.000004"
   height="15.999986"
   viewBox="0 0 16.000004 15.999986"
   sodipodi:docname="lightning_icon.svg"
   inkscape:version="0.92.3 (2405546, 2018-03-11)">
  <metadata
     id="metadata13">
    <rdf:RDF>
      <cc:Work
         rdf:about="">
        <dc:format>image/svg+xml</dc:format>
        <dc:type
           rdf:resource="http://purl.org/dc/dcmitype/StillImage" />
        <dc:title></dc:title>
      </cc:Work>
    </rdf:RDF>
  </metadata>
  <defs
     id="defs11" />
  <sodipodi:namedview
     pagecolor="#ffffff"
     bordercolor="#666666"
     borderopacity="1"
     objecttolerance="10"
     gridtolerance="10"
     guidetolerance="10"
     inkscape:pageopacity="0"
     inkscape:pageshadow="2"
     inkscape:window-width="1920"
     inkscape:window-height="1028"
     id="namedview9"
     showgrid="false"
     inkscape:zoom="0.59"
     inkscape:cx="-669.05062"
     inkscape:cy="373.84245"
     inkscape:window-x="0"
     inkscape:window-y="0"
     inkscape:window-maximized="1"
     inkscape:current-layer="svg" />
  <path
     style="fill:#fbfbfb;fill-rule:evenodd;stroke:none;stroke-width:0.04002798"
     inkscape:connector-curvature="0"
     d="m 8.987101,1.723485 c -0.05588,0.03422 -4.121881,4.096544 -4.184645,4.180924 -0.02317,0.0311 -0.04587,0.06016 -0.05044,0.06456 -0.0087,0.0084 -0.07477,0.145063 -0.09679,0.20014 -0.05848,0.146583 -0.05804,0.44387 0.001,0.592413 0.08426,0.21243 0.08826,0.216754 1.576864,1.706274 0.779463,0.779947 1.41719,1.426877 1.41719,1.437604 0,0.0232 -0.253177,0.79848 -0.273873,0.838707 -0.0079,0.0153 -0.01433,0.04087 -0.01433,0.05684 0,0.01597 -0.0059,0.03587 -0.01313,0.04423 -0.0072,0.0084 -0.03678,0.09086 -0.06568,0.18333 -0.02893,0.09246 -0.05904,0.180647 -0.06693,0.195937 -0.0079,0.0153 -0.01437,0.04087 -0.01437,0.05684 0,0.01597 -0.0059,0.03586 -0.01313,0.04423 -0.0072,0.0084 -0.03679,0.09086 -0.06569,0.18333 -0.02893,0.09246 -0.05904,0.180643 -0.06693,0.195937 -0.0079,0.0153 -0.01437,0.04187 -0.01437,0.05908 0,0.0172 -0.0072,0.03574 -0.016,0.04119 -0.0088,0.0054 -0.016,0.02607 -0.016,0.04579 0,0.01973 -0.006,0.04271 -0.0134,0.05108 -0.0074,0.0084 -0.04439,0.112477 -0.08222,0.23136 -0.03787,0.118884 -0.151103,0.461124 -0.251693,0.760534 -0.489984,1.45874 -0.462444,1.36155 -0.413611,1.45938 0.06917,0.138657 0.23128,0.199741 0.358251,0.134974 0.07057,-0.03602 4.143298,-4.099985 4.245368,-4.236242 0.03382,-0.04515 0.09094,-0.165796 0.109916,-0.232123 0.0088,-0.03083 0.0243,-0.08498 0.03442,-0.120363 0.03346,-0.11668 0.0068,-0.361134 -0.0566,-0.520084 C 10.880518,9.229614 10.738898,9.079187 9.372744,7.714673 8.601524,6.944416 7.970523,6.302806 7.970523,6.288916 c 0,-0.01393 0.02817,-0.107833 0.0626,-0.208663 0.03442,-0.100834 0.07881,-0.237367 0.09859,-0.303414 0.0198,-0.06605 0.04207,-0.12693 0.04947,-0.135293 0.0074,-0.0084 0.0135,-0.03133 0.0135,-0.05108 0,-0.01973 0.0072,-0.04035 0.016,-0.04579 0.0088,-0.0054 0.016,-0.02707 0.016,-0.04803 0,-0.02097 0.0072,-0.04259 0.016,-0.04803 0.0088,-0.0054 0.016,-0.02707 0.016,-0.04803 0,-0.02097 0.0072,-0.04259 0.016,-0.04803 0.0088,-0.0054 0.016,-0.02707 0.016,-0.04803 0,-0.02097 0.0072,-0.04259 0.016,-0.04803 0.0088,-0.0054 0.016,-0.02707 0.016,-0.04803 0,-0.02097 0.0072,-0.04259 0.016,-0.04803 0.0088,-0.0054 0.016,-0.02707 0.016,-0.04803 0,-0.02097 0.0072,-0.04259 0.016,-0.04803 0.0088,-0.0054 0.016,-0.02707 0.016,-0.04803 0,-0.02097 0.0072,-0.04259 0.016,-0.04804 0.0088,-0.0054 0.016,-0.02707 0.016,-0.04803 0,-0.02097 0.0072,-0.04259 0.016,-0.04803 0.0088,-0.0054 0.016,-0.02707 0.016,-0.04803 0,-0.02097 0.0072,-0.04259 0.016,-0.04803 0.0088,-0.0054 0.016,-0.02707 0.016,-0.04803 0,-0.02097 0.0072,-0.04259 0.016,-0.04803 0.0088,-0.0054 0.016,-0.02707 0.016,-0.04803 0,-0.02097 0.0072,-0.04259 0.016,-0.04803 0.0088,-0.0054 0.016,-0.02707 0.016,-0.04803 0,-0.02097 0.0072,-0.04259 0.016,-0.04803 0.0088,-0.0054 0.016,-0.02707 0.016,-0.04803 0,-0.02097 0.0072,-0.04259 0.016,-0.04803 0.0088,-0.0054 0.016,-0.02707 0.016,-0.04803 0,-0.02097 0.0072,-0.04259 0.016,-0.04804 0.0088,-0.0054 0.016,-0.02707 0.016,-0.04803 0,-0.02097 0.0072,-0.04259 0.016,-0.04803 0.0088,-0.0054 0.016,-0.02397 0.016,-0.04119 0,-0.0172 0.0065,-0.04379 0.0144,-0.05908 0.0079,-0.0153 0.119204,-0.34484 0.247334,-0.73231 C 9.064507,2.979766 9.220177,2.513319 9.28226,2.330632 9.408267,1.960092 9.41367,1.921146 9.35255,1.826839 9.27225,1.703032 9.099973,1.654399 8.986893,1.723566"
     id="path0" />
  <path
     style="fill:#540c8c;fill-rule:evenodd;stroke:none;stroke-width:0.04002798"
     inkscape:connector-curvature="0"
     d="m 0.07719102,0.01733399 c -0.02187,0.0111 -0.04875,0.03799 -0.05984,0.05984 -0.0161,0.03173 -0.01937,1.62421701 -0.01633,7.94479601 l 0.0038,7.905086 0.03647,0.03646 0.03646,0.03647 H 8.00241 15.927073 l 0.03646,-0.03647 0.03647,-0.03646 V 8.002393 0.07773399 l -0.03647,-0.03646 -0.03646,-0.03647 -7.905086,-0.0038 c -6.320579,-0.003 -7.91305298,2.4e-4 -7.94479598,0.01633 M 9.193764,1.668208 c 0.259903,0.09046 0.275193,0.212427 0.09363,0.74628 C 8.845834,3.776859 8.388843,5.102846 7.991127,6.302606 L 9.415644,7.72492 c 1.24415,1.242111 1.51682,1.523547 1.51682,1.565414 0,0.0051 0.0133,0.03987 0.02953,0.07718 0.12913,0.296607 0.0877,0.664983 -0.103314,0.91872 -0.141456,0.187933 -4.207341,4.228478 -4.273468,4.246848 -0.139417,0.03871 -0.248653,-0.006 -0.34324,-0.140417 -0.07665,-0.108996 -0.06985,-0.137256 0.287004,-1.194633 0.34663,-1.101761 0.75901,-2.243218 1.08916,-3.290661 0,-0.0078 -0.636164,-0.650377 -1.413707,-1.427921 C 4.877658,7.152643 4.728155,6.995813 4.673718,6.87361 4.661948,6.84718 4.645988,6.81305 4.638168,6.79776 4.630368,6.78246 4.624038,6.75689 4.624038,6.74092 c 0,-0.01597 -0.0076,-0.03659 -0.01687,-0.04587 -0.02253,-0.02253 -0.02253,-0.436904 0,-0.45944 0.0093,-0.0093 0.01687,-0.0327 0.01687,-0.05204 0,-0.0363 0.06917,-0.178363 0.130414,-0.267907 0.07965,-0.1164 4.221831,-4.237681 4.259458,-4.237921 0.02047,-1.2e-4 0.04803,-0.0072 0.06124,-0.01577 0.03147,-0.02033 0.04415,-0.01967 0.118603,0.0062"
     id="path1"
     sodipodi:nodetypes="ccscccccccccccscccccscccccccccsssscccc" />
</svg>
