<?xml version="1.0" encoding="UTF-8" standalone="no"?>
<svg
   xmlns:dc="http://purl.org/dc/elements/1.1/"
   xmlns:cc="http://creativecommons.org/ns#"
   xmlns:rdf="http://www.w3.org/1999/02/22-rdf-syntax-ns#"
   xmlns:svg="http://www.w3.org/2000/svg"
   xmlns="http://www.w3.org/2000/svg"
   xmlns:sodipodi="http://sodipodi.sourceforge.net/DTD/sodipodi-0.dtd"
   xmlns:inkscape="http://www.inkscape.org/namespaces/inkscape"
   id="svg"
   version="1.1"
   width="47.999985"
   height="47.999943"
   viewBox="0 0 47.999985 47.999943"
   sodipodi:docname="lightning_logo.svg"
   inkscape:version="0.92.3 (2405546, 2018-03-11)">
  <metadata
     id="metadata13">
    <rdf:RDF>
      <cc:Work
         rdf:about="">
        <dc:format>image/svg+xml</dc:format>
        <dc:type
           rdf:resource="http://purl.org/dc/dcmitype/StillImage" />
        <dc:title />
      </cc:Work>
    </rdf:RDF>
  </metadata>
  <defs
     id="defs11" />
  <sodipodi:namedview
     pagecolor="#ffffff"
     bordercolor="#666666"
     borderopacity="1"
     objecttolerance="10"
     gridtolerance="10"
     guidetolerance="10"
     inkscape:pageopacity="0"
     inkscape:pageshadow="2"
     inkscape:window-width="1920"
     inkscape:window-height="1028"
     id="namedview9"
     showgrid="false"
     inkscape:zoom="0.59"
     inkscape:cx="-347.96588"
     inkscape:cy="389.84243"
     inkscape:window-x="0"
     inkscape:window-y="0"
     inkscape:window-maximized="1"
     inkscape:current-layer="svg" />
  <path
     style="fill:#fbfbfb;fill-rule:evenodd;stroke:none;stroke-width:0.12008391"
     inkscape:connector-curvature="0"
     d="m 26.961294,5.1704519 c -0.16764,0.10267 -12.36564,12.2896301 -12.55393,12.5427701 -0.0695,0.0933 -0.13762,0.18048 -0.15131,0.19369 -0.0262,0.0252 -0.22432,0.43519 -0.29036,0.60042 -0.17544,0.43975 -0.17412,1.33161 0.003,1.77724 0.25278,0.63729 0.26479,0.65026 4.73059,5.11882 2.33839,2.33984 4.25157,4.28063 4.25157,4.31281 0,0.0696 -0.75953,2.39544 -0.82162,2.51612 -0.0237,0.0459 -0.043,0.12261 -0.043,0.17052 0,0.0479 -0.0177,0.1076 -0.0394,0.13269 -0.0216,0.0251 -0.11035,0.27259 -0.19705,0.54999 -0.0868,0.27739 -0.17713,0.54194 -0.20078,0.58781 -0.0238,0.0459 -0.0431,0.1226 -0.0431,0.17052 0,0.0479 -0.0177,0.10759 -0.0394,0.13269 -0.0216,0.0251 -0.11036,0.27259 -0.19706,0.54999 -0.0868,0.27739 -0.17712,0.54193 -0.20078,0.58781 -0.0238,0.0459 -0.0431,0.1256 -0.0431,0.17724 0,0.0516 -0.0216,0.10723 -0.048,0.12357 -0.0264,0.0163 -0.048,0.0782 -0.048,0.13737 0,0.0592 -0.0181,0.12813 -0.0402,0.15323 -0.0221,0.0251 -0.13318,0.33743 -0.24666,0.69408 -0.1136,0.35665 -0.45331,1.38337 -0.75508,2.2816 -1.46995,4.37622 -1.38733,4.08465 -1.24083,4.37814 0.2075,0.41597 0.69384,0.59922 1.07475,0.40492 0.21171,-0.10807 12.42989,-12.29995 12.7361,-12.70872 0.10147,-0.13545 0.27283,-0.49739 0.32975,-0.69637 0.0264,-0.0925 0.0729,-0.25493 0.10327,-0.36109 0.10039,-0.35004 0.0205,-1.0834 -0.1698,-1.56025 -0.17928,-0.44923 -0.60414,-0.90051 -4.7026,-4.99405 -2.31366,-2.31077 -4.20666,-4.2356 -4.20666,-4.27727 0,-0.0418 0.0845,-0.3235 0.18781,-0.62599 0.10327,-0.3025 0.23644,-0.7121 0.29577,-0.91024 0.0594,-0.19814 0.1262,-0.38079 0.14842,-0.40588 0.0223,-0.0251 0.0405,-0.094 0.0405,-0.15323 0,-0.0592 0.0216,-0.12105 0.048,-0.13738 0.0264,-0.0163 0.048,-0.0812 0.048,-0.1441 0,-0.0629 0.0216,-0.12777 0.048,-0.1441 0.0264,-0.0163 0.048,-0.0812 0.048,-0.1441 0,-0.0629 0.0216,-0.12777 0.048,-0.1441 0.0264,-0.0163 0.048,-0.0812 0.048,-0.1441 0,-0.0629 0.0216,-0.12777 0.048,-0.1441 0.0264,-0.0163 0.048,-0.0812 0.048,-0.1441 0,-0.0629 0.0216,-0.12777 0.048,-0.1441 0.0264,-0.0163 0.048,-0.0812 0.048,-0.1441 0,-0.0629 0.0216,-0.12777 0.048,-0.1441 0.0264,-0.0163 0.048,-0.0812 0.048,-0.1441 0,-0.0629 0.0216,-0.12777 0.048,-0.14411 0.0264,-0.0163 0.048,-0.0812 0.048,-0.1441 0,-0.0629 0.0216,-0.12777 0.048,-0.1441 0.0264,-0.0163 0.048,-0.0812 0.048,-0.1441 0,-0.0629 0.0216,-0.12777 0.048,-0.1441 0.0264,-0.0163 0.048,-0.0812 0.048,-0.1441 0,-0.0629 0.0216,-0.12777 0.048,-0.1441 0.0264,-0.0163 0.048,-0.0812 0.048,-0.1441 0,-0.0629 0.0216,-0.12777 0.048,-0.1441 0.0264,-0.0163 0.048,-0.0812 0.048,-0.1441 0,-0.0629 0.0216,-0.12777 0.048,-0.1441 0.0264,-0.0163 0.048,-0.0812 0.048,-0.1441 0,-0.0629 0.0216,-0.12777 0.048,-0.1441 0.0264,-0.0163 0.048,-0.0812 0.048,-0.1441 0,-0.0629 0.0216,-0.12777 0.048,-0.14411 0.0264,-0.0163 0.048,-0.0812 0.048,-0.1441 0,-0.0629 0.0216,-0.12777 0.048,-0.1441 0.0264,-0.0163 0.048,-0.0719 0.048,-0.12356 0,-0.0516 0.0195,-0.13137 0.0432,-0.17725 0.0237,-0.0459 0.35761,-1.03452 0.742,-2.19693 0.38427,-1.1624101 0.85128,-2.5617501 1.03753,-3.1098101 0.37802,-1.11162 0.39423,-1.22846 0.21087,-1.51138 -0.24089,-0.37142 -0.75773,-0.51732 -1.09697,-0.30982"
     id="path0" />
  <path
     style="fill:#540c8c;fill-rule:evenodd;stroke:none;stroke-width:0.12008391"
     inkscape:connector-curvature="0"
     d="m 0.2315739,0.05200186 c -0.0656,0.0333 -0.14626,0.11396 -0.17952,0.17952 -0.0483,0.0952 -0.0581,4.87265004 -0.049,23.83438014 l 0.0114,23.71525 0.1094,0.10939 0.10939,0.1094 h 23.7739701 23.77398 l 0.10939,-0.1094 0.1094,-0.10939 V 24.007172 0.23320186 l -0.1094,-0.10939 -0.10939,-0.1094 -23.71525,-0.0114 c -18.9617301,-0.009 -23.7391501,7.2e-4 -23.8343801,0.049 M 27.581274,5.0046319 c 0.77971,0.27139 0.82558,0.63728 0.28088,2.23884 -1.32468,4.0871101 -2.69565,8.0650701 -3.8888,11.6643501 l 4.27355,4.26694 c 3.73245,3.72633 4.55046,4.57064 4.55046,4.69624 0,0.0154 0.0399,0.11961 0.0886,0.23153 0.38739,0.88982 0.2631,1.99495 -0.30994,2.75616 -0.42437,0.5638 -12.62202,12.68543 -12.8204,12.74054 -0.41825,0.11613 -0.74596,-0.018 -1.02972,-0.42125 -0.22996,-0.32699 -0.20954,-0.41177 0.86101,-3.5839 1.03989,-3.30528 2.27703,-6.72965 3.26748,-9.87198 0,-0.0234 -1.90849,-1.95113 -4.24112,-4.28376 -3.98031,-3.98042 -4.42882,-4.45091 -4.59213,-4.81752 -0.0353,-0.0793 -0.0832,-0.18169 -0.10664,-0.22756 -0.0233,-0.0459 -0.0424,-0.12261 -0.0424,-0.17052 0,-0.0479 -0.0227,-0.10976 -0.0506,-0.13762 -0.0676,-0.0676 -0.0676,-1.31071 0,-1.37832 0.0279,-0.0279 0.0506,-0.0981 0.0506,-0.15611 0,-0.10891 0.20751,-0.53509 0.39124,-0.80372 0.23896,-0.3492 12.66549,-12.7130401 12.77837,-12.7137601 0.0614,-3.6e-4 0.1441,-0.0217 0.18372,-0.0473 0.0944,-0.061 0.13246,-0.059 0.35581,0.0187"
     id="path1"
     sodipodi:nodetypes="ccscccccccccccscccccscccccccccsssscccc" />
</svg>
