<?xml version="1.0" encoding="UTF-8" standalone="no"?>
<svg
   xmlns:dc="http://purl.org/dc/elements/1.1/"
   xmlns:cc="http://creativecommons.org/ns#"
   xmlns:rdf="http://www.w3.org/1999/02/22-rdf-syntax-ns#"
   xmlns:svg="http://www.w3.org/2000/svg"
   xmlns="http://www.w3.org/2000/svg"
   xmlns:sodipodi="http://sodipodi.sourceforge.net/DTD/sodipodi-0.dtd"
   xmlns:inkscape="http://www.inkscape.org/namespaces/inkscape"
   id="svg"
   version="1.1"
   width="400"
   height="400"
   viewBox="0, 0, 400,400"
   sodipodi:docname="lightning_logo.svg"
   inkscape:version="0.92.3 (2405546, 2018-03-11)">
  <metadata
     id="metadata13">
    <rdf:RDF>
      <cc:Work
         rdf:about="">
        <dc:format>image/svg+xml</dc:format>
        <dc:type
           rdf:resource="http://purl.org/dc/dcmitype/StillImage" />
      </cc:Work>
    </rdf:RDF>
  </metadata>
  <defs
     id="defs11" />
  <sodipodi:namedview
     pagecolor="#ffffff"
     bordercolor="#666666"
     borderopacity="1"
     objecttolerance="10"
     gridtolerance="10"
     guidetolerance="10"
     inkscape:pageopacity="0"
     inkscape:pageshadow="2"
     inkscape:window-width="1920"
     inkscape:window-height="1028"
     id="namedview9"
     showgrid="false"
     inkscape:zoom="9.44"
     inkscape:cx="203.07907"
     inkscape:cy="335.32491"
     inkscape:window-x="0"
     inkscape:window-y="0"
     inkscape:window-maximized="1"
     inkscape:current-layer="svg" />
  <path
     style="fill:#fbfbfb;fill-rule:evenodd;stroke:none"
     inkscape:connector-curvature="0"
     d="m 224.6,43.137 c -1.396,0.855 -102.975,102.342 -104.543,104.45 -0.579,0.777 -1.146,1.503 -1.26,1.613 -0.218,0.21 -1.868,3.624 -2.418,5 -1.461,3.662 -1.45,11.089 0.022,14.8 2.105,5.307 2.205,5.415 39.394,42.627 19.473,19.485 35.405,35.647 35.405,35.915 0,0.58 -6.325,19.948 -6.842,20.953 -0.197,0.382 -0.358,1.021 -0.358,1.42 0,0.399 -0.147,0.896 -0.328,1.105 -0.18,0.209 -0.919,2.27 -1.641,4.58 -0.723,2.31 -1.475,4.513 -1.672,4.895 -0.198,0.382 -0.359,1.021 -0.359,1.42 0,0.399 -0.147,0.896 -0.328,1.105 -0.18,0.209 -0.919,2.27 -1.641,4.58 -0.723,2.31 -1.475,4.513 -1.672,4.895 -0.198,0.382 -0.359,1.046 -0.359,1.476 0,0.43 -0.18,0.893 -0.4,1.029 -0.22,0.136 -0.4,0.651 -0.4,1.144 0,0.493 -0.151,1.067 -0.335,1.276 -0.184,0.209 -1.109,2.81 -2.054,5.78 -0.946,2.97 -3.775,11.52 -6.288,19 -12.241,36.443 -11.553,34.015 -10.333,36.459 1.728,3.464 5.778,4.99 8.95,3.372 1.763,-0.9 103.51,-102.428 106.06,-105.832 0.845,-1.128 2.272,-4.142 2.746,-5.799 0.22,-0.77 0.607,-2.123 0.86,-3.007 0.836,-2.915 0.171,-9.022 -1.414,-12.993 -1.493,-3.741 -5.031,-7.499 -39.161,-41.588 C 214.964,173.569 199.2,157.54 199.2,157.193 c 0,-0.348 0.704,-2.694 1.564,-5.213 0.86,-2.519 1.969,-5.93 2.463,-7.58 0.495,-1.65 1.051,-3.171 1.236,-3.38 0.186,-0.209 0.337,-0.783 0.337,-1.276 0,-0.493 0.18,-1.008 0.4,-1.144 0.22,-0.136 0.4,-0.676 0.4,-1.2 0,-0.524 0.18,-1.064 0.4,-1.2 0.22,-0.136 0.4,-0.676 0.4,-1.2 0,-0.524 0.18,-1.064 0.4,-1.2 0.22,-0.136 0.4,-0.676 0.4,-1.2 0,-0.524 0.18,-1.064 0.4,-1.2 0.22,-0.136 0.4,-0.676 0.4,-1.2 0,-0.524 0.18,-1.064 0.4,-1.2 0.22,-0.136 0.4,-0.676 0.4,-1.2 0,-0.524 0.18,-1.064 0.4,-1.2 0.22,-0.136 0.4,-0.676 0.4,-1.2 0,-0.524 0.18,-1.064 0.4,-1.2 0.22,-0.136 0.4,-0.676 0.4,-1.2 0,-0.524 0.18,-1.064 0.4,-1.2 0.22,-0.136 0.4,-0.676 0.4,-1.2 0,-0.524 0.18,-1.064 0.4,-1.2 0.22,-0.136 0.4,-0.676 0.4,-1.2 0,-0.524 0.18,-1.064 0.4,-1.2 0.22,-0.136 0.4,-0.676 0.4,-1.2 0,-0.524 0.18,-1.064 0.4,-1.2 0.22,-0.136 0.4,-0.676 0.4,-1.2 0,-0.524 0.18,-1.064 0.4,-1.2 0.22,-0.136 0.4,-0.676 0.4,-1.2 0,-0.524 0.18,-1.064 0.4,-1.2 0.22,-0.136 0.4,-0.676 0.4,-1.2 0,-0.524 0.18,-1.064 0.4,-1.2 0.22,-0.136 0.4,-0.676 0.4,-1.2 0,-0.524 0.18,-1.064 0.4,-1.2 0.22,-0.136 0.4,-0.599 0.4,-1.029 0,-0.43 0.162,-1.094 0.36,-1.476 0.197,-0.382 2.978,-8.615 6.179,-18.295 3.2,-9.68 7.089,-21.333 8.64,-25.897 3.148,-9.257 3.283,-10.23 1.756,-12.586 -2.006,-3.093 -6.31,-4.308 -9.135,-2.58"
     id="path0" />
  <path
     style="fill:#540c8c;fill-rule:evenodd;stroke:none"
     inkscape:connector-curvature="0"
     d="M 2.008,0.513 C 1.462,0.79 0.79,1.462 0.513,2.008 0.111,2.801 0.029,42.585 0.105,200.489 L 0.2,397.978 1.111,398.889 2.022,399.8 H 200 397.978 l 0.911,-0.911 0.911,-0.911 V 200 2.022 L 398.889,1.111 397.978,0.2 200.489,0.105 C 42.585,0.029 2.801,0.111 2.008,0.513 m 227.755,41.243 c 6.493,2.26 6.875,5.307 2.339,18.644 -11.0313,34.035452 -22.44803,67.16196 -32.384,97.135 l 35.588,35.533 c 31.082,31.031 37.894,38.062 37.894,39.108 0,0.128 0.332,0.996 0.738,1.928 3.226,7.41 2.191,16.613 -2.581,22.952 -3.534,4.695 -105.11,105.638 -106.762,106.097 -3.483,0.967 -6.212,-0.15 -8.575,-3.508 -1.915,-2.723 -1.745,-3.429 7.17,-29.845 8.65971,-27.52475 18.96205,-56.04122 27.21,-82.209 0,-0.195 -15.893,-16.248 -35.318,-35.673 -33.146,-33.147 -36.881,-37.065 -38.241,-40.118 -0.294,-0.66 -0.693,-1.513 -0.888,-1.895 -0.194,-0.382 -0.353,-1.021 -0.353,-1.42 0,-0.399 -0.189,-0.914 -0.421,-1.146 -0.563,-0.563 -0.563,-10.915 0,-11.478 0.232,-0.232 0.421,-0.817 0.421,-1.3 0,-0.907 1.728,-4.456 3.258,-6.693 C 120.848,144.96 224.33,42 225.27,41.994 c 0.511,-0.003 1.2,-0.181 1.53,-0.394 0.786,-0.508 1.103,-0.491 2.963,0.156"
     id="path1"
     sodipodi:nodetypes="ccscccccccccccscccccscccccccccsssscccc" />
</svg>
