<svg width="33" height="38" viewBox="0 0 33 38" fill="none" xmlns="http://www.w3.org/2000/svg">
<path d="M15.5629 0.195181L0.711016 8.96731C0.494828 9.09534 0.315359 9.2791 0.190577 9.50023C0.0657942 9.72135 8.06666e-05 9.97205 0 10.2273V27.7739C8.06666e-05 28.0291 0.0657942 28.2798 0.190577 28.501C0.315359 28.7221 0.494828 28.9058 0.711016 29.0339L15.5629 37.8048C15.7798 37.9326 16.0259 38 16.2763 38C16.5267 38 16.7728 37.9326 16.9896 37.8048L31.8416 29.0339C32.0577 28.9058 32.2372 28.7221 32.362 28.501C32.4868 28.2798 32.5525 28.0291 32.5526 27.7739V10.2273C32.5525 9.97205 32.4868 9.72135 32.362 9.50023C32.2372 9.2791 32.0577 9.09534 31.8416 8.96731L16.9896 0.195181C16.7728 0.0672991 16.5267 0 16.2763 0C16.0259 0 15.7798 0.0672991 15.5629 0.195181V0.195181ZM13.1422 29.4447L14.9057 21.7726C14.9183 21.717 14.9168 21.659 14.9013 21.6043C14.8857 21.5495 14.8566 21.4997 14.8168 21.4596L10.5343 17.202C10.5037 17.1712 10.4793 17.1345 10.4627 17.094C10.4461 17.0535 10.4375 17.01 10.4375 16.9661C10.4375 16.9222 10.4461 16.8787 10.4627 16.8382C10.4793 16.7977 10.5037 16.761 10.5343 16.7302L18.8923 8.24117C18.942 8.19024 19.0066 8.15729 19.0762 8.14731C19.1459 8.13734 19.2169 8.15089 19.2784 8.18592C19.3398 8.22094 19.3884 8.27551 19.4166 8.34133C19.4449 8.40714 19.4513 8.48061 19.435 8.5505L17.6691 16.2418C17.6559 16.2973 17.6571 16.3554 17.6727 16.4103C17.6883 16.4652 17.7177 16.515 17.758 16.5547L22.0077 20.7897C22.0384 20.8203 22.0627 20.857 22.0793 20.8974C22.0959 20.9378 22.1044 20.9811 22.1044 21.0249C22.1044 21.0687 22.0959 21.1121 22.0793 21.1525C22.0627 21.1929 22.0384 21.2295 22.0077 21.2602L13.6778 29.7552C13.6277 29.8048 13.5632 29.8366 13.494 29.8458C13.4248 29.855 13.3545 29.8411 13.2937 29.8062C13.2328 29.7713 13.1846 29.7172 13.1563 29.6521C13.1279 29.587 13.1209 29.5142 13.1363 29.4447H13.1422Z" fill="url(#paint0_linear_531_6703)"/>
<defs>
<linearGradient id="paint0_linear_531_6703" x1="24.5477" y1="4.89662" x2="-7.54851" y2="59.0691" gradientUnits="userSpaceOnUse">
<stop stop-color="#792EE5"/>
<stop offset="1" stop-color="#3EABB3"/>
</linearGradient>
</defs>
</svg>
