<svg width="127" height="28" viewBox="0 0 127 28" fill="none"
xmlns="http://www.w3.org/2000/svg">
<rect x="7" y="6" width="10" height="17" fill="white"/>
<path d="M11.6754 0.143818L0.533406 6.60749C0.371162 6.70176 0.236475 6.83715 0.142854 7.0001C0.0492324 7.16305 -2.80545e-05 7.34781 1.19866e-08 7.53588V20.465C6.05283e-05 20.653 0.049359 20.8377 0.142971 21.0007C0.236584 21.1636 0.371222 21.299 0.533406 21.3934L11.6754 27.8561C11.8381 27.9504 12.0227 28 12.2105 28C12.3984 28 12.583 27.9504 12.7457 27.8561L23.8876 21.3934C24.0498 21.299 24.1845 21.1636 24.2781 21.0007C24.3717 20.8377 24.421 20.653 24.4211 20.465V7.53588C24.4211 7.34781 24.3718 7.16305 24.2782 7.0001C24.1846 6.83715 24.0499 6.70176 23.8876 6.60749L12.7457 0.143818C12.583 0.0495887 12.3984 0 12.2105 0C12.0227 0 11.8381 0.0495887 11.6754 0.143818ZM9.85931 21.6961L11.1823 16.042C11.1918 16.0012 11.1906 15.9585 11.1787 15.9183C11.1669 15.878 11.1448 15.8415 11.1148 15.8124L7.90816 12.6752C7.88448 12.6524 7.86564 12.625 7.85277 12.5948C7.8399 12.5646 7.83328 12.532 7.83328 12.4992C7.83328 12.4663 7.8399 12.4337 7.85277 12.4035C7.86564 12.3732 7.88448 12.3459 7.90816 12.3232L14.1784 6.07244C14.2156 6.03491 14.2641 6.01065 14.3163 6.0033C14.3686 5.99595 14.4219 6.00593 14.468 6.03174C14.5141 6.05755 14.5505 6.09776 14.5717 6.14626C14.5929 6.19475 14.5977 6.24889 14.5854 6.30039L13.2607 11.9676C13.2508 12.0086 13.2517 12.0514 13.2634 12.0918C13.2751 12.1323 13.2971 12.1689 13.3274 12.1982L16.5155 15.3178C16.5384 15.3405 16.5566 15.3676 16.569 15.3975C16.5814 15.4273 16.5878 15.4593 16.5878 15.4916C16.5878 15.5239 16.5814 15.5559 16.569 15.5858C16.5566 15.6156 16.5384 15.6427 16.5155 15.6654L10.2673 21.9214C10.23 21.9582 10.1818 21.9819 10.13 21.9891C10.0782 21.9963 10.0255 21.9864 9.97964 21.9611C9.93382 21.9358 9.89736 21.8964 9.87568 21.8486C9.854 21.8009 9.84826 21.7474 9.85931 21.6961Z" fill="url(#paint0_linear_7357_212041)"/>
<g>
<path fill-rule="evenodd" clip-rule="evenodd" d="M43.2615 7.23044H41.1127V9.42551H43.2615V7.23044ZM33.7271 7.23044H31.498V20.1307H39.4093V17.9916H33.7247V7.23044H33.7271ZM41.1176 11.1241H43.2663V20.1259H41.1176V11.1217V11.1241ZM51.6302 11.842C51.3503 11.606 51.0413 11.4113 50.7103 11.2604C50.2601 11.0609 49.7734 10.9611 49.2843 10.9684C48.6905 10.9659 48.1016 11.0876 47.559 11.331C47.0358 11.5622 46.5613 11.8931 46.1622 12.3068C45.7631 12.723 45.4492 13.2146 45.2326 13.7524C45.0087 14.3072 44.8943 14.9034 44.8968 15.5045C44.8943 16.1129 45.0038 16.7164 45.2228 17.281C45.4297 17.8213 45.7363 18.3177 46.1257 18.7436C46.5174 19.167 46.992 19.5029 47.5176 19.7316C48.0773 19.975 48.6784 20.0991 49.2867 20.0942C49.7734 20.1015 50.2577 20.0066 50.7103 19.8217C51.0413 19.6805 51.3528 19.4956 51.6326 19.2668V19.7876C51.6326 20.486 51.4379 21.0165 51.0632 21.367C50.6909 21.7198 50.1896 21.9048 49.5982 21.9048C49.0507 21.9048 48.5981 21.805 48.2501 21.6128C47.9021 21.4132 47.6247 21.1042 47.4616 20.7318L47.4276 20.6564H45.1815L45.8531 22.3793L45.8799 22.4231C46.3544 22.922 46.936 23.3065 47.576 23.5426C48.2111 23.7811 48.8828 23.9027 49.5617 23.9027C50.8855 23.9027 51.9295 23.5353 52.6644 22.8125C53.4017 22.0897 53.7789 21.1236 53.7789 19.9458V11.1266H51.6302V11.8372V11.842ZM51.0924 13.7378C51.3211 13.969 51.4988 14.244 51.618 14.5481C51.7373 14.8523 51.7932 15.1784 51.7835 15.5045C51.7932 16.1665 51.5499 16.8041 51.1045 17.2835C50.8928 17.5244 50.6325 17.7142 50.3429 17.8432C50.0533 17.9697 49.7369 18.033 49.4206 18.0233C49.1042 18.033 48.7927 17.9722 48.5032 17.8432C48.2136 17.7166 47.9556 17.5244 47.7439 17.2835C47.3035 16.8016 47.0625 16.1616 47.0747 15.5021C47.0747 14.7915 47.2986 14.1953 47.7439 13.7329C47.9605 13.5042 48.2233 13.3241 48.5105 13.2048C48.8 13.0856 49.1091 13.0272 49.4206 13.0345C49.7321 13.0296 50.0387 13.0904 50.3258 13.2121C50.613 13.3338 50.8734 13.5115 51.0899 13.7378H51.0924ZM58.697 11.3237C59.152 11.0803 59.6606 10.9586 60.1741 10.9659C61.2132 10.9659 62.0625 11.2993 62.7049 11.954C63.3449 12.6086 63.671 13.5382 63.671 14.7136V20.1283H61.5222V14.9619C61.5344 14.4605 61.3689 13.9738 61.055 13.5893C60.746 13.2194 60.3104 13.0393 59.7263 13.0393C59.1423 13.0393 58.6946 13.2243 58.3587 13.6015C58.0229 13.9787 57.8599 14.4897 57.8599 15.12V20.1307H55.7111V7.23044H57.8599V11.9418C58.1105 11.6985 58.3928 11.4916 58.6994 11.3285L58.697 11.3237ZM68.4796 8.13329L66.5036 8.87309L66.5279 11.1217H64.6055V13.0515H66.3357V17.135C66.3357 18.1182 66.6325 18.8774 67.2214 19.3934C67.8103 19.9093 68.5307 20.1624 69.3824 20.1624C69.6014 20.1624 69.8034 20.1599 69.9883 20.1526C70.1757 20.1478 70.3266 20.138 70.4434 20.1259L70.5577 20.1137V18.218H69.6744C69.5162 18.2253 69.358 18.2009 69.2096 18.1449C69.0612 18.089 68.9249 18.0038 68.8105 17.8943C68.5915 17.6801 68.482 17.3565 68.482 16.9257V13.0539H70.8352V11.1241H68.482V8.13815L68.4796 8.13329ZM82.7738 7.2207H84.9225V9.42307H82.7738V7.22557V7.2207ZM84.9225 11.1144H82.7738V20.1234H84.9225V11.1193V11.1144ZM103.393 11.8323V11.1144H105.541V19.9506C105.541 21.1285 105.167 22.0946 104.427 22.8174C103.689 23.5426 102.646 23.9052 101.324 23.9052C100.648 23.9052 99.976 23.7835 99.3384 23.5474C98.696 23.309 98.1168 22.9269 97.6399 22.428L97.6131 22.3842L96.9439 20.6612H99.19L99.2241 20.7367C99.3871 21.109 99.6621 21.4181 100.013 21.6176C100.358 21.8123 100.811 21.9097 101.361 21.9097C101.954 21.9097 102.448 21.7296 102.826 21.3743C103.203 21.019 103.395 20.4909 103.395 19.7949V19.2717C103.115 19.5004 102.804 19.6878 102.473 19.8265C102.02 20.0115 101.536 20.104 101.049 20.0991C100.441 20.104 99.8397 19.9823 99.28 19.7365C98.7568 19.5077 98.2823 19.1719 97.8905 18.7485C97.5012 18.3226 97.197 17.8262 96.9901 17.2859C96.7711 16.7213 96.6592 16.1178 96.6616 15.5094C96.6616 14.9083 96.7736 14.3121 96.9974 13.7572C97.2116 13.217 97.5279 12.7254 97.927 12.3117C98.3261 11.898 98.8006 11.567 99.3238 11.3359C99.8689 11.0949 100.455 10.9708 101.049 10.9733C101.538 10.9684 102.025 11.0682 102.475 11.2653C102.804 11.4162 103.113 11.6108 103.39 11.8445L103.395 11.8372L103.393 11.8323ZM102.867 17.2737C103.312 16.7943 103.556 16.1543 103.546 15.4948C103.556 15.1663 103.5 14.8426 103.38 14.536C103.261 14.2318 103.084 13.9568 102.855 13.7256C102.636 13.4993 102.375 13.3216 102.088 13.2024C101.801 13.0831 101.492 13.0223 101.183 13.0272C100.872 13.0199 100.56 13.0758 100.273 13.1975C99.9833 13.3168 99.7229 13.4968 99.5063 13.7256C99.0635 14.1904 98.8396 14.7842 98.8396 15.4948C98.8298 16.1543 99.0683 16.7919 99.5088 17.2762C99.7181 17.5171 99.976 17.7069 100.266 17.8359C100.555 17.9624 100.869 18.0257 101.183 18.016C101.499 18.0257 101.811 17.9649 102.103 17.8359C102.392 17.7093 102.653 17.5195 102.865 17.281L102.869 17.2737H102.867ZM89.3539 13.307H87.2051V20.2062H89.3539V13.3119V13.307ZM89.3539 13.307V11.112H91.5027C92.4736 11.112 93.4056 11.5062 94.0919 12.2071C94.7781 12.9079 95.165 13.8594 95.165 14.8523V20.2013H93.0163V15.3537C93.0163 14.8134 92.807 14.2926 92.4322 13.9106C92.0575 13.5285 91.5489 13.3119 91.0208 13.3119L89.3563 13.307H89.3539ZM74.8212 13.307H72.6724V20.2062H74.8212V13.3119V13.307ZM74.8212 13.307V11.112H76.9699C77.9409 11.112 78.8729 11.5062 79.5592 12.2071C80.2454 12.9079 80.6323 13.8594 80.6323 14.8523V20.2013H78.4836V15.3537C78.4836 14.8134 78.2743 14.2926 77.8995 13.9106C77.5248 13.5285 77.0162 13.3119 76.4881 13.3119L74.8236 13.307H74.8212Z" fill="#292F36"/>
<path d="M116.012 13.6384H117.995L115.946 7.20898H112.768L110.719 13.6384H112.641L112.928 12.6017H115.724L116.012 13.6384V13.6384ZM113.417 10.8326L113.931 8.97818H114.722L115.235 10.8326H113.417Z" fill="#292F36"/>
<path d="M124.419 8.97818V7.20898H118.893V8.97818H120.769V11.8595H118.893V13.6384H124.419V11.8595H122.543V8.97818H124.419Z" fill="#292F36"/>
</g>
<defs>
<linearGradient id="paint0_linear_7357_212041" x1="18.4158" y1="3.60803" x2="-5.02791" y2="43.8941" gradientUnits="userSpaceOnUse">
<stop stop-color="#792EE5"/>
<stop offset="1" stop-color="#3EABB3"/>
</linearGradient>
</defs>
</svg>
