<svg width="96" height="96" viewBox="0 0 96 96" fill="none" xmlns="http://www.w3.org/2000/svg">
<path d="M0 48C0 21.4903 21.4903 0 48 0V0C74.5097 0 96 21.4903 96 48V48C96 74.5097 74.5097 96 48 96V96C21.4903 96 0 74.5097 0 48V48Z" fill="#FFF6D4"/>
<path fill-rule="evenodd" clip-rule="evenodd" d="M49.0345 50.1165C48.991 50.616 48.5395 51 48.001 51C47.461 51 47.0095 50.616 46.966 50.1165L46.504 44.9895C46.5025 44.9625 46.501 44.9355 46.501 44.9085C46.501 44.2155 47.062 43.5 48.001 43.5C48.94 43.5 49.501 44.2155 49.501 44.9085L49.0345 50.1165ZM48.001 55.5C47.173 55.5 46.501 54.828 46.501 54C46.501 53.172 47.173 52.5 48.001 52.5C48.8275 52.5 49.501 53.172 49.501 54C49.501 54.828 48.8275 55.5 48.001 55.5V55.5ZM50.0454 38.643C49.627 37.929 48.877 37.5015 48.0415 37.5H48.037C47.2015 37.5 46.4516 37.9245 46.0286 38.637L36.3194 55.05C35.8994 55.7625 35.8934 56.6145 36.3029 57.333C36.7198 58.0635 37.4773 58.5 38.3263 58.5H57.6742C58.5217 58.5 59.2777 58.065 59.6946 57.3345C60.1056 56.6205 60.0996 55.7685 59.6841 55.0575L50.0454 38.643Z" fill="#FCBE2E"/>
</svg>
